<svg width="25" height="25" viewBox="0 0 25 25" fill="none" xmlns="http://www.w3.org/2000/svg">
<g clip-path="url(#clip0_22_2)">
<g filter="url(#filter0_d_22_2)">
<mask id="path-1-outside-1_22_2" maskUnits="userSpaceOnUse" x="0" y="1" width="25" height="23" fill="black">
<rect fill="white" y="1" width="25" height="23"/>
<path fill-rule="evenodd" clip-rule="evenodd" d="M13.4576 2.8726C13.5821 2.65691 13.5082 2.38111 13.2926 2.25658L12.8595 2.00658C12.8361 1.99304 12.8061 2.00107 12.7926 2.02453V2.02453C12.7737 2.05722 12.7265 2.05722 12.7076 2.02453V2.02453C12.6941 2.00107 12.6641 1.99304 12.6406 2.00658L12.2076 2.25658C11.9919 2.38111 11.918 2.65691 12.0426 2.8726V2.8726C12.1231 3.01213 12.1231 3.18404 12.0426 3.32356L1.06707 22.3337C0.929 22.5728 1.01094 22.8786 1.25008 23.0167V23.0167C1.48923 23.1547 1.79502 23.0728 1.9331 22.8337L11.8841 5.59808C12.269 4.93142 13.2312 4.93142 13.6161 5.59808L23.5671 22.8337C23.7051 23.0728 24.0109 23.1547 24.2501 23.0167V23.0167C24.4892 22.8786 24.5712 22.5728 24.4331 22.3337L13.4576 3.32357C13.3771 3.18404 13.3771 3.01213 13.4576 2.8726V2.8726Z"/>
</mask>
<path fill-rule="evenodd" clip-rule="evenodd" d="M13.4576 2.8726C13.5821 2.65691 13.5082 2.38111 13.2926 2.25658L12.8595 2.00658C12.8361 1.99304 12.8061 2.00107 12.7926 2.02453V2.02453C12.7737 2.05722 12.7265 2.05722 12.7076 2.02453V2.02453C12.6941 2.00107 12.6641 1.99304 12.6406 2.00658L12.2076 2.25658C11.9919 2.38111 11.918 2.65691 12.0426 2.8726V2.8726C12.1231 3.01213 12.1231 3.18404 12.0426 3.32356L1.06707 22.3337C0.929 22.5728 1.01094 22.8786 1.25008 23.0167V23.0167C1.48923 23.1547 1.79502 23.0728 1.9331 22.8337L11.8841 5.59808C12.269 4.93142 13.2312 4.93142 13.6161 5.59808L23.5671 22.8337C23.7051 23.0728 24.0109 23.1547 24.2501 23.0167V23.0167C24.4892 22.8786 24.5712 22.5728 24.4331 22.3337L13.4576 3.32357C13.3771 3.18404 13.3771 3.01213 13.4576 2.8726V2.8726Z" fill="url(#paint0_linear_22_2)"/>
<path d="M24.4331 22.3337L24.2599 22.4337L24.4331 22.3337ZM23.5671 22.8337L23.3939 22.9337L23.5671 22.8337ZM11.8841 5.59808L12.0573 5.69808L11.8841 5.59808ZM13.6161 5.59808L13.7893 5.49808L13.6161 5.59808ZM1.9331 22.8337L1.75989 22.7337L1.9331 22.8337ZM1.06707 22.3337L0.893866 22.2337L1.06707 22.3337ZM12.0426 3.32356L11.8693 3.22356L12.0426 3.32356ZM12.2076 2.25658L12.1076 2.08337L12.2076 2.25658ZM12.6406 2.00658L12.5406 1.83337L12.6406 2.00658ZM13.2926 2.25658L13.3926 2.08337L13.2926 2.25658ZM12.8595 2.00658L12.7595 2.17978L12.8595 2.00658ZM12.7595 2.17978L13.1926 2.42978L13.3926 2.08337L12.9595 1.83337L12.7595 2.17978ZM12.3076 2.42978L12.7406 2.17978L12.5406 1.83337L12.1076 2.08337L12.3076 2.42978ZM1.24028 22.4337L12.2158 3.42356L11.8693 3.22356L0.893866 22.2337L1.24028 22.4337ZM11.7109 5.49808L1.75989 22.7337L2.1063 22.9337L12.0573 5.69808L11.7109 5.49808ZM23.7403 22.7337L13.7893 5.49808L13.4429 5.69808L23.3939 22.9337L23.7403 22.7337ZM13.2844 3.42357L24.2599 22.4337L24.6063 22.2337L13.6308 3.22357L13.2844 3.42357ZM13.6308 3.22357C13.586 3.14592 13.586 3.05025 13.6308 2.9726L13.2844 2.7726C13.1681 2.97401 13.1681 3.22216 13.2844 3.42357L13.6308 3.22357ZM24.3501 23.1899C24.6849 22.9966 24.7996 22.5685 24.6063 22.2337L24.2599 22.4337C24.3427 22.5771 24.2936 22.7606 24.1501 22.8435L24.3501 23.1899ZM23.3939 22.9337C23.5872 23.2685 24.0153 23.3832 24.3501 23.1899L24.1501 22.8435C24.0066 22.9263 23.8231 22.8771 23.7403 22.7337L23.3939 22.9337ZM12.0573 5.69808C12.3652 5.16475 13.135 5.16475 13.4429 5.69808L13.7893 5.49808C13.3274 4.69808 12.1727 4.69808 11.7109 5.49808L12.0573 5.69808ZM1.15008 23.1899C1.48489 23.3832 1.913 23.2685 2.1063 22.9337L1.75989 22.7337C1.67705 22.8771 1.49357 22.9263 1.35008 22.8435L1.15008 23.1899ZM0.893866 22.2337C0.700566 22.5685 0.815279 22.9966 1.15008 23.1899L1.35008 22.8435C1.2066 22.7606 1.15743 22.5771 1.24028 22.4337L0.893866 22.2337ZM11.8693 2.9726C11.9142 3.05025 11.9142 3.14592 11.8693 3.22356L12.2158 3.42356C12.332 3.22216 12.332 2.97401 12.2158 2.7726L11.8693 2.9726ZM12.1076 2.08337C11.7963 2.26313 11.6896 2.66125 11.8693 2.9726L12.2158 2.7726C12.1465 2.65257 12.1876 2.49908 12.3076 2.42978L12.1076 2.08337ZM12.8808 1.92453C12.8121 1.80542 12.6597 1.7646 12.5406 1.83337L12.7406 2.17978C12.6684 2.22147 12.5761 2.19673 12.5344 2.12453L12.8808 1.92453ZM12.6193 1.92453C12.6775 1.82388 12.8227 1.82389 12.8808 1.92453L12.5344 2.12453C12.6303 2.29055 12.8699 2.29055 12.9658 2.12453L12.6193 1.92453ZM13.1926 2.42978C13.3126 2.49908 13.3537 2.65257 13.2844 2.7726L13.6308 2.9726C13.8106 2.66125 13.7039 2.26313 13.3926 2.08337L13.1926 2.42978ZM12.9595 1.83337C12.8404 1.7646 12.6881 1.80541 12.6193 1.92453L12.9658 2.12453C12.9241 2.19673 12.8317 2.22147 12.7595 2.17978L12.9595 1.83337Z" fill="url(#paint1_linear_22_2)" mask="url(#path-1-outside-1_22_2)"/>
</g>
<g filter="url(#filter1_d_22_2)">
<path d="M1 13.7778C1 13.7778 13 9.77778 24 13.7778" stroke="url(#paint2_linear_22_2)"/>
</g>
</g>
<defs>
<filter id="filter0_d_22_2" x="-1.20004" y="-0.200035" width="27.9002" height="25.4838" filterUnits="userSpaceOnUse" color-interpolation-filters="sRGB">
<feFlood flood-opacity="0" result="BackgroundImageFix"/>
<feColorMatrix in="SourceAlpha" type="matrix" values="0 0 0 0 0 0 0 0 0 0 0 0 0 0 0 0 0 0 127 0" result="hardAlpha"/>
<feOffset/>
<feGaussianBlur stdDeviation="1"/>
<feComposite in2="hardAlpha" operator="out"/>
<feColorMatrix type="matrix" values="0 0 0 0 0 0 0 0 0 0 0 0 0 0 0 0 0 0 0.25 0"/>
<feBlend mode="normal" in2="BackgroundImageFix" result="effect1_dropShadow_22_2"/>
<feBlend mode="normal" in="SourceGraphic" in2="effect1_dropShadow_22_2" result="shape"/>
</filter>
<filter id="filter1_d_22_2" x="-3.15773" y="11.5" width="31.3286" height="10.7522" filterUnits="userSpaceOnUse" color-interpolation-filters="sRGB">
<feFlood flood-opacity="0" result="BackgroundImageFix"/>
<feColorMatrix in="SourceAlpha" type="matrix" values="0 0 0 0 0 0 0 0 0 0 0 0 0 0 0 0 0 0 127 0" result="hardAlpha"/>
<feOffset dy="4"/>
<feGaussianBlur stdDeviation="2"/>
<feComposite in2="hardAlpha" operator="out"/>
<feColorMatrix type="matrix" values="0 0 0 0 0 0 0 0 0 0 0 0 0 0 0 0 0 0 0.25 0"/>
<feBlend mode="normal" in2="BackgroundImageFix" result="effect1_dropShadow_22_2"/>
<feBlend mode="normal" in="SourceGraphic" in2="effect1_dropShadow_22_2" result="shape"/>
</filter>
<linearGradient id="paint0_linear_22_2" x1="12.7501" y1="2" x2="12.7501" y2="23.0837" gradientUnits="userSpaceOnUse">
<stop stop-color="#FF7D7D"/>
<stop offset="1" stop-color="#D91818"/>
</linearGradient>
<linearGradient id="paint1_linear_22_2" x1="12.7501" y1="2" x2="12.7501" y2="23.0837" gradientUnits="userSpaceOnUse">
<stop stop-color="#FF0000"/>
<stop offset="1" stop-color="#060000"/>
</linearGradient>
<linearGradient id="paint2_linear_22_2" x1="12.5" y1="12" x2="12.5" y2="13.7778" gradientUnits="userSpaceOnUse">
<stop stop-color="#FFE2AA"/>
<stop offset="0.53" stop-color="#FFBF43"/>
</linearGradient>
<clipPath id="clip0_22_2">
<rect width="25" height="25" fill="white"/>
</clipPath>
</defs>
</svg>
