# Blender 5.1.2
# www.blender.org
mtllib model.mtl
o Columns
v 0.000000 0.000000 -11.035870
v -0.631031 0.779998 -11.541529
v 0.631032 0.779998 -11.541529
v 0.000000 24.000000 -11.035870
v 0.631031 23.220001 -11.541529
v -0.631032 23.220001 -11.541529
v 10.495736 0.000000 -3.410271
v 10.781647 0.779998 -4.166675
v 11.171646 0.779998 -2.966382
v 10.495736 24.000000 -3.410271
v 11.171646 23.220001 -2.966382
v 10.781647 23.220001 -4.166675
v 6.486722 0.000000 8.928206
v 7.294456 0.779998 8.966382
v 6.273425 0.779998 9.708204
v 6.486722 24.000000 8.928206
v 6.273425 23.220001 9.708204
v 7.294456 23.220001 8.966382
v -6.486722 0.000000 8.928206
v -6.273425 0.779998 9.708204
v -7.294456 0.779998 8.966382
v -6.486722 24.000000 8.928206
v -7.294456 23.220001 8.966382
v -6.273425 23.220001 9.708204
v -10.495736 0.000000 -3.410271
v -11.171646 0.779998 -2.966382
v -10.781647 0.779998 -4.166675
v -10.495736 24.000000 -3.410271
v -10.781647 23.220001 -4.166675
v -11.171646 23.220001 -2.966382
v 18.844212 0.000001 -58.244621
v 18.213177 0.779999 -58.750275
v 19.475243 0.779999 -58.750275
v 18.844212 24.505112 -58.244621
v 19.475243 23.725113 -58.750275
v 18.213179 23.725113 -58.750275
v 29.339945 0.000001 -50.619019
v 29.625858 0.779999 -51.375423
v 30.015856 0.779999 -50.175125
v 29.339945 24.505112 -50.619019
v 30.015856 23.725113 -50.175125
v 29.625858 23.725113 -51.375423
v 25.330931 0.000001 -38.280540
v 26.138666 0.779999 -38.242367
v 25.117636 0.779999 -37.500542
v 25.330931 24.505112 -38.280540
v 25.117636 23.725113 -37.500542
v 26.138666 23.725113 -38.242367
v 12.357489 0.000001 -38.280540
v 12.570786 0.779999 -37.500542
v 11.549755 0.779999 -38.242367
v 12.357489 24.505112 -38.280540
v 11.549755 23.725113 -38.242367
v 12.570786 23.725113 -37.500542
v 8.348476 0.000001 -50.619015
v 7.672565 0.779999 -50.175125
v 8.062565 0.779999 -51.375423
v 8.348476 24.505112 -50.619015
v 8.062565 23.725113 -51.375423
v 7.672565 23.725113 -50.175125
v -46.004040 0.000003 -138.091217
v -46.635071 0.780001 -138.596878
v -45.373009 0.780001 -138.596878
v -46.004040 43.114811 -138.091217
v -45.373009 42.334816 -138.596878
v -46.635071 42.334816 -138.596878
v -35.508305 0.000003 -130.465622
v -35.222389 0.780001 -131.222015
v -34.832394 0.780001 -130.021729
v -35.508305 43.114811 -130.465622
v -34.832394 42.334816 -130.021729
v -35.222389 42.334816 -131.222015
v -39.517323 0.000003 -118.127136
v -38.709583 0.780001 -118.088959
v -39.730614 0.780001 -117.347145
v -39.517323 43.114811 -118.127136
v -39.730614 42.334816 -117.347145
v -38.709583 42.334816 -118.088959
v -52.490761 0.000003 -118.127136
v -52.277470 0.780001 -117.347145
v -53.298492 0.780001 -118.088959
v -52.490761 43.114811 -118.127136
v -53.298492 42.334816 -118.088959
v -52.277470 42.334816 -117.347145
v -56.499771 0.000003 -130.465622
v -57.175682 0.780001 -130.021729
v -56.785683 0.780001 -131.222015
v -56.499771 43.114811 -130.465622
v -56.785683 42.334816 -131.222015
v -57.175682 42.334816 -130.021729
v 42.464413 0.000000 -109.005737
v 41.833382 0.779998 -109.511398
v 43.095444 0.779998 -109.511398
v 42.464413 35.204647 -109.005737
v 43.095444 34.424648 -109.511398
v 41.833382 34.424648 -109.511398
v 52.960152 0.000000 -101.380157
v 53.246056 0.779998 -102.136551
v 53.636063 0.779998 -100.936264
v 52.960152 35.204647 -101.380157
v 53.636063 34.424648 -100.936264
v 53.246056 34.424648 -102.136551
v 48.951130 0.000000 -89.041656
v 49.758865 0.779998 -89.003487
v 48.737835 0.779998 -88.261665
v 48.951130 35.204647 -89.041656
v 48.737835 34.424648 -88.261665
v 49.758865 34.424648 -89.003487
v 35.977692 0.000000 -89.041656
v 36.190987 0.779998 -88.261665
v 35.169956 0.779998 -89.003487
v 35.977692 35.204647 -89.041656
v 35.169956 34.424648 -89.003487
v 36.190987 34.424648 -88.261665
v 31.968678 0.000000 -101.380157
v 31.292765 0.779998 -100.936264
v 31.682768 0.779998 -102.136551
v 31.968678 35.204647 -101.380157
v 31.682768 34.424648 -102.136551
v 31.292767 34.424648 -100.936264
v 35.373386 0.000003 -171.437958
v 34.742355 0.780000 -171.943604
v 36.004421 0.780000 -171.943604
v 35.373386 44.326477 -171.437958
v 36.004421 43.546478 -171.943604
v 34.742355 43.546478 -171.943604
v 45.869122 0.000003 -163.812363
v 46.155033 0.780000 -164.568756
v 46.545033 0.780000 -163.368469
v 45.869122 44.326477 -163.812363
v 46.545036 43.546478 -163.368469
v 46.155033 43.546478 -164.568756
v 41.860104 0.000003 -151.473877
v 42.667839 0.780000 -151.435699
v 41.646812 0.780000 -150.693878
v 41.860104 44.326477 -151.473877
v 41.646812 43.546478 -150.693878
v 42.667843 43.546478 -151.435699
v 28.886669 0.000003 -151.473877
v 29.099962 0.780000 -150.693878
v 28.078932 0.780000 -151.435699
v 28.886669 44.326477 -151.473877
v 28.078934 43.546478 -151.435699
v 29.099962 43.546478 -150.693878
v 24.877653 0.000003 -163.812363
v 24.201740 0.780000 -163.368469
v 24.591743 0.780000 -164.568756
v 24.877653 44.326477 -163.812363
v 24.591743 43.546478 -164.568756
v 24.201742 43.546478 -163.368469
v -60.369610 -0.000002 -33.596291
v -61.000641 0.779996 -34.101944
v -59.738579 0.779996 -34.101948
v -60.369610 47.192635 -33.596291
v -59.738579 46.412636 -34.101948
v -61.000641 46.412636 -34.101948
v -49.873871 -0.000002 -25.970688
v -49.587967 0.779996 -26.727089
v -49.197960 0.779996 -25.526796
v -49.873871 47.192635 -25.970688
v -49.197960 46.412636 -25.526796
v -49.587967 46.412636 -26.727089
v -53.882889 -0.000002 -13.632211
v -53.075150 0.779996 -13.594034
v -54.096176 0.779996 -12.852213
v -53.882889 47.192635 -13.632211
v -54.096176 46.412636 -12.852213
v -53.075150 46.412636 -13.594034
v -66.856323 -0.000002 -13.632211
v -66.643036 0.779996 -12.852213
v -67.664062 0.779996 -13.594034
v -66.856323 47.192635 -13.632211
v -67.664062 46.412636 -13.594033
v -66.643036 46.412636 -12.852213
v -70.865334 -0.000002 -25.970688
v -71.541245 0.779996 -25.526796
v -71.151245 0.779996 -26.727089
v -70.865334 47.192635 -25.970688
v -71.151245 46.412636 -26.727093
v -71.541245 46.412636 -25.526796
v -24.599413 -0.000002 -82.172577
v -25.230446 0.779996 -82.678230
v -23.968382 0.779996 -82.678230
v -24.599413 32.671402 -82.172577
v -23.968380 31.891405 -82.678230
v -25.230446 31.891405 -82.678230
v -14.103679 -0.000002 -74.546974
v -13.817768 0.779996 -75.303383
v -13.427768 0.779996 -74.103088
v -14.103679 32.671402 -74.546974
v -13.427768 31.891405 -74.103088
v -13.817766 31.891405 -75.303383
v -18.112690 -0.000002 -62.208504
v -17.304958 0.779996 -62.170326
v -18.325989 0.779996 -61.428505
v -18.112690 32.671402 -62.208504
v -18.325989 31.891405 -61.428505
v -17.304958 31.891405 -62.170326
v -31.086140 -0.000002 -62.208504
v -30.872841 0.779996 -61.428505
v -31.893871 0.779996 -62.170326
v -31.086140 32.671402 -62.208504
v -31.893871 31.891405 -62.170326
v -30.872841 31.891405 -61.428505
v -35.095146 -0.000002 -74.546974
v -35.771057 0.779996 -74.103088
v -35.381054 0.779996 -75.303383
v -35.095146 32.671402 -74.546974
v -35.381054 31.891405 -75.303383
v -35.771057 31.891405 -74.103088
v 70.518707 -0.000000 -65.929047
v 69.887680 0.779997 -66.434708
v 71.149742 0.779997 -66.434708
v 70.518707 12.629997 -65.929047
v 71.149742 11.849999 -66.434708
v 69.887680 11.849999 -66.434708
v 81.014450 -0.000000 -58.303448
v 81.300354 0.779997 -59.059856
v 81.690361 0.779998 -57.859558
v 81.014450 12.629997 -58.303448
v 81.690353 11.849999 -57.859558
v 81.300354 11.849999 -59.059856
v 77.005432 -0.000000 -45.964973
v 77.813171 0.779997 -45.926796
v 76.792130 0.779997 -45.184975
v 77.005432 12.629997 -45.964973
v 76.792130 11.849999 -45.184975
v 77.813164 11.849999 -45.926796
v 64.031990 -0.000000 -45.964973
v 64.245285 0.779997 -45.184975
v 63.224258 0.779998 -45.926796
v 64.031998 12.629997 -45.964973
v 63.224251 11.849999 -45.926796
v 64.245285 11.849999 -45.184975
v 60.022972 -0.000000 -58.303448
v 59.347069 0.779997 -57.859558
v 59.737068 0.779997 -59.059856
v 60.022972 12.629997 -58.303448
v 59.737068 11.849999 -59.059856
v 59.347061 11.849999 -57.859558
v 0.486909 -0.000002 -132.353867
v -0.144124 0.779996 -132.859528
v 1.117940 0.779996 -132.859528
v 0.486909 33.587181 -132.353867
v 1.117941 32.807182 -132.859528
v -0.144123 32.807182 -132.859528
v 10.982645 -0.000002 -124.728271
v 11.268555 0.779996 -125.484673
v 11.658554 0.779996 -124.284378
v 10.982645 33.587181 -124.728271
v 11.658556 32.807182 -124.284378
v 11.268555 32.807182 -125.484673
v 6.973628 -0.000002 -112.389786
v 7.781363 0.779996 -112.351608
v 6.760334 0.779996 -111.609787
v 6.973628 33.587181 -112.389786
v 6.760334 32.807182 -111.609787
v 7.781364 32.807182 -112.351608
v -5.999810 -0.000002 -112.389786
v -5.786516 0.779996 -111.609787
v -6.807547 0.779996 -112.351608
v -5.999810 33.587181 -112.389786
v -6.807545 32.807182 -112.351608
v -5.786516 32.807182 -111.609787
v -10.008827 -0.000002 -124.728271
v -10.684738 0.779996 -124.284378
v -10.294737 0.779996 -125.484673
v -10.008827 33.587181 -124.728271
v -10.294737 32.807182 -125.484673
v -10.684736 32.807182 -124.284378
v -83.393784 0.000001 -89.764816
v -84.024818 0.779999 -90.270477
v -82.762749 0.779999 -90.270477
v -83.393784 36.392899 -89.764816
v -82.762749 35.612900 -90.270477
v -84.024818 35.612900 -90.270477
v -72.898056 0.000001 -82.139221
v -72.612137 0.779999 -82.895630
v -72.222137 0.779999 -81.695328
v -72.898056 36.392899 -82.139221
v -72.222137 35.612900 -81.695328
v -72.612137 35.612900 -82.895630
v -76.907066 0.000001 -69.800743
v -76.099335 0.779999 -69.762566
v -77.120361 0.779999 -69.020744
v -76.907066 36.392899 -69.800743
v -77.120361 35.612900 -69.020744
v -76.099335 35.612900 -69.762566
v -89.880508 0.000001 -69.800743
v -89.667221 0.779999 -69.020744
v -90.688240 0.779999 -69.762566
v -89.880508 36.392899 -69.800743
v -90.688240 35.612900 -69.762566
v -89.667221 35.612900 -69.020744
v -93.889519 0.000001 -82.139221
v -94.565430 0.779999 -81.695328
v -94.175430 0.779999 -82.895630
v -93.889519 36.392899 -82.139221
v -94.175430 35.612900 -82.895630
v -94.565430 35.612900 -81.695328
v -28.080513 0.000003 -201.827774
v -28.711548 0.780000 -202.333420
v -27.449482 0.780000 -202.333420
v -28.080513 57.036186 -201.827774
v -27.449482 56.256191 -202.333420
v -28.711548 56.256191 -202.333420
v -17.584778 0.000003 -194.202164
v -17.298870 0.780000 -194.958572
v -16.908869 0.780000 -193.758270
v -17.584778 57.036186 -194.202164
v -16.908871 56.256191 -193.758270
v -17.298868 56.256191 -194.958572
v -21.593794 0.000003 -181.863678
v -20.786060 0.780000 -181.825500
v -21.807089 0.780000 -181.083679
v -21.593794 57.036186 -181.863678
v -21.807089 56.256191 -181.083679
v -20.786058 56.256191 -181.825500
v -34.567230 0.000003 -181.863678
v -34.353939 0.780000 -181.083679
v -35.374969 0.780000 -181.825500
v -34.567230 57.036186 -181.863678
v -35.374969 56.256191 -181.825500
v -34.353939 56.256191 -181.083679
v -38.576248 0.000003 -194.202164
v -39.252155 0.780000 -193.758270
v -38.862160 0.780000 -194.958572
v -38.576248 57.036186 -194.202164
v -38.862160 56.256191 -194.958572
v -39.252159 56.256191 -193.758270
v -104.571564 0.000003 -159.875046
v -105.202591 0.780000 -160.380707
v -103.940536 0.780000 -160.380707
v -104.571564 44.326477 -159.875046
v -103.940536 43.546478 -160.380707
v -105.202591 43.546478 -160.380707
v -94.075829 0.000003 -152.249466
v -93.789925 0.780000 -153.005859
v -93.399925 0.780000 -151.805573
v -94.075836 44.326477 -152.249466
v -93.399918 43.546478 -151.805573
v -93.789925 43.546478 -153.005859
v -98.084854 0.000003 -139.910965
v -97.277115 0.780000 -139.872787
v -98.298141 0.780000 -139.130981
v -98.084854 44.326477 -139.910965
v -98.298141 43.546478 -139.130981
v -97.277115 43.546478 -139.872787
v -111.058296 0.000003 -139.910965
v -110.845001 0.780000 -139.130981
v -111.866028 0.780000 -139.872787
v -111.058296 44.326477 -139.910965
v -111.866028 43.546478 -139.872787
v -110.845001 43.546478 -139.130981
v -115.067307 0.000003 -152.249451
v -115.743210 0.780000 -151.805573
v -115.353218 0.780000 -153.005859
v -115.067307 44.326477 -152.249451
v -115.353218 43.546478 -153.005859
v -115.743210 43.546478 -151.805573
v 20.566826 0.000001 -231.829346
v 19.935795 0.779999 -232.334991
v 21.197859 0.779999 -232.334991
v 20.566826 33.587185 -231.829346
v 21.197861 32.807186 -232.334991
v 19.935795 32.807186 -232.334991
v 31.062561 0.000001 -224.203735
v 31.348473 0.779999 -224.960144
v 31.738472 0.779999 -223.759857
v 31.062561 33.587185 -224.203735
v 31.738468 32.807186 -223.759857
v 31.348473 32.807186 -224.960144
v 27.053551 0.000001 -211.865265
v 27.861286 0.779999 -211.827087
v 26.840252 0.779999 -211.085266
v 27.053551 33.587185 -211.865265
v 26.840252 32.807186 -211.085266
v 27.861282 32.807186 -211.827087
v 14.080104 0.000001 -211.865265
v 14.293402 0.779999 -211.085266
v 13.272371 0.779999 -211.827087
v 14.080104 33.587185 -211.865265
v 13.272369 32.807186 -211.827087
v 14.293402 32.807186 -211.085266
v 10.071091 0.000001 -224.203735
v 9.395184 0.779999 -223.759857
v 9.785181 0.779999 -224.960144
v 10.071091 33.587185 -224.203735
v 9.785181 32.807186 -224.960144
v 9.395182 32.807186 -223.759857
v -77.933853 -0.000003 -229.493500
v -78.564888 0.779995 -229.999146
v -77.302818 0.779995 -229.999146
v -77.933853 35.204643 -229.493500
v -77.302818 34.424644 -229.999146
v -78.564888 34.424644 -229.999146
v -67.438118 -0.000003 -221.867889
v -67.152206 0.779995 -222.624298
v -66.762207 0.779995 -221.423996
v -67.438118 35.204643 -221.867889
v -66.762207 34.424644 -221.423996
v -67.152206 34.424644 -222.624298
v -71.447128 -0.000003 -209.529419
v -70.639397 0.779995 -209.491241
v -71.660431 0.779995 -208.749420
v -71.447128 35.204643 -209.529419
v -71.660431 34.424644 -208.749420
v -70.639404 34.424644 -209.491241
v -84.420578 -0.000003 -209.529419
v -84.207275 0.779995 -208.749420
v -85.228302 0.779995 -209.491241
v -84.420578 35.204643 -209.529419
v -85.228310 34.424644 -209.491241
v -84.207275 34.424644 -208.749420
v -88.429588 -0.000003 -221.867889
v -89.105499 0.779995 -221.423996
v -88.715500 0.779995 -222.624298
v -88.429588 35.204643 -221.867889
v -88.715500 34.424644 -222.624298
v -89.105499 34.424644 -221.423996
vn -0.0000 -0.5440 -0.8391
vn -0.0000 0.5440 -0.8391
vn 0.7980 -0.5440 -0.2593
vn 0.7980 0.5440 -0.2593
vn 0.4932 -0.5440 0.6788
vn 0.4932 0.5440 0.6788
vn -0.4932 -0.5440 0.6788
vn -0.4932 0.5440 0.6788
vn -0.7980 -0.5440 -0.2593
vn -0.7980 0.5440 -0.2593
vn 0.4932 -0.5440 0.6789
vn 0.4932 0.5440 0.6789
vn -0.4932 -0.5440 0.6789
vn -0.4932 0.5440 0.6789
vn 0.4932 -0.5439 0.6789
vn 0.4156 -0.7071 -0.5721
vn 0.4156 0.7071 -0.5721
vn -0.0000 -0.0000 -1.0000
vn 0.9511 -0.0000 -0.3090
vn 0.6725 -0.7071 0.2185
vn 0.6725 0.7071 0.2185
vn 0.5878 -0.0000 0.8090
vn -0.0000 -0.7071 0.7071
vn -0.0000 0.7071 0.7071
vn -0.5878 -0.0000 0.8090
vn -0.6725 -0.7071 0.2185
vn -0.6725 0.7071 0.2185
vn -0.9511 -0.0000 -0.3090
vn -0.4156 -0.7071 -0.5721
vn -0.4156 0.7071 -0.5721
vn -0.0000 -1.0000 -0.0000
vn 0.5878 -0.0000 -0.8090
vn -0.5878 -0.0000 -0.8090
vn -0.0000 1.0000 -0.0000
vn 0.9511 -0.0000 0.3090
vn -0.0000 -0.0000 1.0000
vn -0.9511 -0.0000 0.3090
vt -2.614431 -0.217002
vt -2.622250 -0.181658
vt -2.584125 -0.181658
vt -2.593657 -3.951308
vt -2.565063 -3.928395
vt -2.622250 -3.928395
vt -2.118065 -4.296845
vt -2.105110 -4.262570
vt -2.087438 -4.316958
vt -2.299725 -0.217002
vt -2.274046 -0.181658
vt -2.309390 -0.181658
vt -2.299725 0.870505
vt -2.309390 0.835161
vt -2.274046 0.835161
vt -2.887588 -0.217002
vt -2.877923 -0.181658
vt -2.913267 -0.181658
vt -2.887588 0.870505
vt -2.913267 0.835161
vt -2.877923 0.835161
vt -8.265799 -0.217002
vt -8.274991 -0.181658
vt -8.241377 -0.181658
vt -3.069248 -4.296845
vt -3.082203 -4.262570
vt -3.099875 -4.316958
vt -1.732848 -0.217002
vt -1.754069 -0.181658
vt -1.711178 -0.181658
vt -1.718998 0.893393
vt -1.711179 0.858049
vt -1.749304 0.858049
vt -1.243407 -0.217002
vt -1.251226 -0.181658
vt -1.222632 -0.181658
vt -1.243407 0.893393
vt -1.222632 0.858049
vt -1.251226 0.858049
vt -6.685730 -0.217002
vt -6.676538 -0.181658
vt -6.710152 -0.181658
vt -6.685730 0.893393
vt -6.710151 0.858049
vt -6.676538 0.858049
vt -2.033704 -0.217002
vt -2.024039 -0.181658
vt -2.059383 -0.181658
vt -2.033704 0.893393
vt -2.059383 0.858049
vt -2.024039 0.858049
vt -6.126639 -0.217002
vt -6.135830 -0.181658
vt -6.102217 -0.181658
vt -2.215364 -2.157684
vt -2.228319 -2.123409
vt -2.245991 -2.177798
vt -4.671305 -0.217002
vt -4.692526 -0.181658
vt -4.649636 -0.181658
vt -4.657454 1.736651
vt -4.649636 1.701307
vt -4.687760 1.701307
vt -4.181863 -0.217002
vt -4.189682 -0.181658
vt -4.161088 -0.181659
vt -4.181863 1.736651
vt -4.161088 1.701307
vt -4.189682 1.701307
vt -3.067657 -0.217002
vt -3.058464 -0.181658
vt -3.092078 -0.181659
vt -3.067657 1.736651
vt -3.092078 1.701307
vt -3.058465 1.701307
vt -4.972160 -0.217002
vt -4.962496 -0.181658
vt -4.997839 -0.181659
vt -4.972160 1.736651
vt -4.997839 1.701307
vt -4.962496 1.701307
vt -2.508565 -0.217002
vt -2.517757 -0.181658
vt -2.484143 -0.181659
vt -5.153821 1.460390
vt -5.166776 1.494664
vt -5.184448 1.440276
vt -0.662550 -0.217002
vt -0.683772 -0.181658
vt -0.640881 -0.181658
vt -0.648700 1.378219
vt -0.640881 1.342875
vt -0.679006 1.342875
vt -0.173109 -0.217002
vt -0.180928 -0.181658
vt -0.152334 -0.181659
vt -0.173109 1.378219
vt -0.152334 1.342875
vt -0.180928 1.342875
vt -4.385602 -0.217002
vt -4.376409 -0.181658
vt -4.410023 -0.181659
vt -4.385602 1.378219
vt -4.410023 1.342875
vt -4.376409 1.342875
vt -0.963407 -0.217002
vt -0.953742 -0.181658
vt -0.989085 -0.181659
vt -0.963407 1.378219
vt -0.989085 1.342875
vt -0.953742 1.342875
vt -3.826510 -0.217002
vt -3.835701 -0.181658
vt -3.802088 -0.181659
vt -1.145066 0.142446
vt -1.158022 0.176720
vt -1.175694 0.122332
vt -0.983864 -0.217002
vt -1.005086 -0.181658
vt -0.962195 -0.181658
vt -0.970014 1.791555
vt -0.962195 1.756211
vt -1.000320 1.756211
vt -0.494424 -0.217002
vt -0.502243 -0.181658
vt -0.473649 -0.181658
vt -0.494424 1.791555
vt -0.473649 1.756211
vt -0.502243 1.756211
vt -1.556622 -0.217002
vt -1.547430 -0.181658
vt -1.581044 -0.181658
vt -1.556622 1.791555
vt -1.581044 1.756211
vt -1.547430 1.756211
vt -1.284721 -0.217002
vt -1.275056 -0.181658
vt -1.310400 -0.181658
vt -1.284721 1.791555
vt -1.310400 1.756211
vt -1.275056 1.756211
vt -0.997530 -0.217002
vt -1.006722 -0.181658
vt -0.973108 -0.181658
vt -1.466380 2.971425
vt -1.479336 3.005699
vt -1.497008 2.951311
vt -5.322248 -0.217002
vt -5.343471 -0.181659
vt -5.300579 -0.181659
vt -5.308398 1.921429
vt -5.300579 1.886085
vt -5.338705 1.886085
vt -4.832808 -0.217002
vt -4.840627 -0.181659
vt -4.812033 -0.181658
vt -4.832808 1.921429
vt -4.812033 1.886085
vt -4.840627 1.886085
vt -7.802615 -0.217002
vt -7.793422 -0.181659
vt -7.827036 -0.181658
vt -7.802615 1.921429
vt -7.827036 1.886085
vt -7.793423 1.886085
vt -5.623105 -0.217002
vt -5.613440 -0.181659
vt -5.648784 -0.181658
vt -5.623105 1.921429
vt -5.648784 1.886085
vt -5.613440 1.886085
vt -7.243524 -0.217002
vt -7.252717 -0.181659
vt -7.219102 -0.181658
vt -5.804764 -3.274570
vt -5.817719 -3.240295
vt -5.835392 -3.294683
vt -3.701400 -0.217002
vt -3.722622 -0.181659
vt -3.679731 -0.181659
vt -3.687551 1.263431
vt -3.679731 1.228087
vt -3.717856 1.228087
vt -3.211959 -0.217002
vt -3.219779 -0.181659
vt -3.191185 -0.181659
vt -3.211959 1.263431
vt -3.191185 1.228087
vt -3.219779 1.228087
vt -5.601487 -0.217002
vt -5.592295 -0.181658
vt -5.625909 -0.181659
vt -5.601487 1.263431
vt -5.625909 1.228087
vt -5.592295 1.228087
vt -4.002257 -0.217002
vt -3.992592 -0.181658
vt -4.027936 -0.181659
vt -4.002257 1.263431
vt -4.027936 1.228087
vt -3.992592 1.228087
vt -5.042397 -0.217002
vt -5.051588 -0.181658
vt -5.017974 -0.181659
vt -4.183917 -1.073441
vt -4.196872 -1.039166
vt -4.214544 -1.093555
vt 0.608670 -0.217002
vt 0.587448 -0.181658
vt 0.630338 -0.181658
vt 0.622519 0.355298
vt 0.630338 0.319954
vt 0.592213 0.319954
vt 1.098110 -0.217002
vt 1.090291 -0.181658
vt 1.118885 -0.181658
vt 1.098110 0.355298
vt 1.118885 0.319954
vt 1.090291 0.319954
vt -6.337527 -0.217002
vt -6.328335 -0.181658
vt -6.361949 -0.181658
vt -6.337527 0.355298
vt -6.361949 0.319954
vt -6.328335 0.319954
vt 0.307813 -0.217002
vt 0.317478 -0.181658
vt 0.282134 -0.181658
vt 0.307813 0.355298
vt 0.282134 0.319954
vt 0.317478 0.319954
vt -5.778437 -0.217002
vt -5.787628 -0.181658
vt -5.754014 -0.181658
vt 0.126153 -1.809481
vt 0.113198 -1.775206
vt 0.095526 -1.829595
vt -2.564668 -0.217002
vt -2.585890 -0.181659
vt -2.542999 -0.181658
vt -2.550819 1.304927
vt -2.542999 1.269583
vt -2.581125 1.269583
vt -2.075228 -0.217002
vt -2.083047 -0.181659
vt -2.054453 -0.181658
vt -2.075228 1.304927
vt -2.054453 1.269583
vt -2.083047 1.269584
vt -3.327632 -0.217002
vt -3.318440 -0.181659
vt -3.352054 -0.181658
vt -3.327632 1.304927
vt -3.352054 1.269583
vt -3.318440 1.269584
vt -2.865525 -0.217002
vt -2.855860 -0.181659
vt -2.891204 -0.181658
vt -2.865525 1.304927
vt -2.891204 1.269583
vt -2.855860 1.269584
vt -2.768541 -0.217002
vt -2.777732 -0.181659
vt -2.744119 -0.181658
vt -3.047185 1.200415
vt -3.060140 1.234689
vt -3.077812 1.180300
vt -6.365539 -0.217002
vt -6.386760 -0.181658
vt -6.343868 -0.181658
vt -6.351688 1.432062
vt -6.343869 1.396718
vt -6.381994 1.396718
vt -5.876098 -0.217002
vt -5.883917 -0.181658
vt -5.855323 -0.181659
vt -5.876098 1.432062
vt -5.855323 1.396718
vt -5.883917 1.396718
vt -5.257462 -0.217002
vt -5.248269 -0.181658
vt -5.281883 -0.181659
vt -5.257461 1.432062
vt -5.281883 1.396718
vt -5.248269 1.396718
vt -6.666396 -0.217002
vt -6.656731 -0.181658
vt -6.692075 -0.181659
vt -6.666396 1.432062
vt -6.692075 1.396718
vt -6.656731 1.396718
vt -4.698370 -0.217002
vt -4.707561 -0.181658
vt -4.673948 -0.181659
vt -6.848055 -0.729415
vt -6.861010 -0.695140
vt -6.878682 -0.749529
vt -3.859138 -0.217002
vt -3.880360 -0.181658
vt -3.837470 -0.181658
vt -3.866064 4.694010
vt -3.837470 4.716922
vt -3.894658 4.716922
vt -3.369698 -0.217002
vt -3.377517 -0.181658
vt -3.348923 -0.181658
vt -3.390473 4.348472
vt -3.359845 4.328358
vt -3.377517 4.382747
vt -0.179574 -0.217002
vt -0.170382 -0.181658
vt -0.203996 -0.181658
vt -3.572132 3.789380
vt -3.581797 3.754036
vt -3.535532 3.787651
vt -4.159996 -0.217002
vt -4.150330 -0.181658
vt -4.185674 -0.181658
vt -4.159996 3.789380
vt -4.196596 3.787650
vt -4.150331 3.754036
vt 0.379517 -0.217002
vt 0.370325 -0.181658
vt 0.403939 -0.181658
vt -4.341655 4.348472
vt -4.354610 4.382747
vt -4.372282 4.328357
vt -7.325164 -0.217002
vt -7.346385 -0.181658
vt -7.303494 -0.181658
vt -7.311313 1.791555
vt -7.303493 1.756211
vt -7.341620 1.756211
vt -6.835722 -0.217002
vt -6.843542 -0.181658
vt -6.814947 -0.181658
vt -6.835722 1.791555
vt -6.814947 1.756211
vt -6.843541 1.756211
vt -2.080570 -0.217002
vt -2.071378 -0.181658
vt -2.104992 -0.181658
vt -2.080570 1.791555
vt -2.104992 1.756211
vt -2.071378 1.756211
vt -7.626020 -0.217002
vt -7.616356 -0.181658
vt -7.651699 -0.181658
vt -7.626020 1.791555
vt -7.651699 1.756211
vt -7.616355 1.756211
vt -1.521479 -0.217002
vt -1.530670 -0.181658
vt -1.497056 -0.181658
vt -7.807681 2.447477
vt -7.820636 2.481752
vt -7.838308 2.427363
vt -1.654792 -0.217002
vt -1.676013 -0.181658
vt -1.633122 -0.181658
vt -1.640942 1.304927
vt -1.633122 1.269583
vt -1.671247 1.269583
vt -1.165350 -0.217002
vt -1.173169 -0.181658
vt -1.144575 -0.181658
vt -1.165350 1.304927
vt -1.144575 1.269583
vt -1.173169 1.269583
vt 1.179882 -0.217002
vt 1.189074 -0.181658
vt 1.155459 -0.181658
vt 1.179882 1.304927
vt 1.155459 1.269583
vt 1.189073 1.269583
vt -1.955648 -0.217002
vt -1.945983 -0.181658
vt -1.981326 -0.181658
vt -1.955648 1.304927
vt -1.981326 1.269583
vt -1.945983 1.269584
vt 1.738971 -0.217002
vt 1.729779 -0.181658
vt 1.763393 -0.181658
vt -2.137307 5.707927
vt -2.150263 5.742202
vt -2.167934 5.687813
vt -6.125058 5.947621
vt -6.153652 5.970533
vt -6.096464 5.970534
vt -6.104284 1.378219
vt -6.096465 1.342875
vt -6.134590 1.342875
vt -5.649468 5.602084
vt -5.636513 5.636358
vt -5.618841 5.581969
vt -5.628693 1.378219
vt -5.607918 1.342875
vt -5.636513 1.342875
vt -5.831127 5.042992
vt -5.794526 5.041263
vt -5.840792 5.007648
vt 1.074038 1.378219
vt 1.049615 1.342875
vt 1.083229 1.342875
vt -6.418990 5.042992
vt -6.409325 5.007648
vt -6.455590 5.041263
vt -6.418990 1.378219
vt -6.444669 1.342875
vt -6.409324 1.342875
vt -6.600650 5.602084
vt -6.631277 5.581969
vt -6.613605 5.636358
vt -6.600649 5.602083
vt -2.622250 0.835161
vt -2.076516 -0.181658
vt -2.105110 0.835161
vt -2.076516 0.835161
vt -2.263124 -4.857667
vt -2.299725 -4.855937
vt -8.824890 -0.217002
vt -8.815697 -0.181658
vt -2.924189 -4.857667
vt -8.274991 0.835161
vt -8.241377 0.835161
vt -3.090023 -0.217002
vt -3.082203 -0.181658
vt -6.135831 -0.181658
vt -6.135831 0.858049
vt -1.445841 -0.217002
vt -1.455506 -0.181658
vt -1.445841 0.893393
vt -6.676537 -0.181658
vt -2.070305 -2.718505
vt -6.135830 0.858049
vt -6.102217 0.858049
vt -2.236139 -0.217002
vt -2.228319 -0.181658
vt -1.739773 -1.812147
vt -1.768366 -1.789234
vt -2.508565 -0.217002
vt -2.517758 -0.181658
vt -2.517758 1.701307
vt -4.393962 -0.181658
vt -4.384298 -0.217002
vt -4.393962 1.701307
vt -3.067656 -0.217002
vt -3.058464 -0.181658
vt -4.972160 0.901299
vt -2.517757 1.701307
vt -2.484143 1.701307
vt -5.166776 -0.181658
vt -5.174594 -0.217002
vt -4.678229 1.805927
vt -4.706823 1.828840
vt -3.835702 -0.181658
vt -3.826510 1.378219
vt -0.375544 -0.217002
vt -0.385209 -0.181658
vt -0.385209 1.342875
vt -4.376408 -0.181658
vt -4.385602 -0.217002
vt -1.000007 -0.418376
vt -3.835701 1.342875
vt -3.802088 1.342875
vt -1.165841 -0.217002
vt -1.158022 -0.181658
vt -0.698068 0.510895
vt -0.669475 0.487982
vt -0.997530 -0.217002
vt -1.006722 -0.181658
vt -0.997530 1.791555
vt -0.696858 -0.217002
vt -0.706523 -0.181658
vt -0.706523 1.756211
vt -1.556622 -0.217002
vt -1.547430 -0.181658
vt -1.284721 2.412333
vt -1.006722 1.756211
vt -0.973108 1.756211
vt -1.487155 -0.217002
vt -1.479335 -0.181658
vt -0.990789 3.316961
vt -1.019383 3.339874
vt -7.252717 -0.181658
vt -7.243525 1.921429
vt -5.035242 -0.217002
vt -5.044906 -0.181658
vt -5.035242 1.921429
vt -7.802615 -0.217002
vt -7.793423 -0.181659
vt -5.623105 -3.833661
vt -7.219102 1.886085
vt -7.252717 1.886085
vt -5.825539 -0.217002
vt -5.817719 -0.181659
vt -5.329173 -2.929032
vt -5.357767 -2.906119
vt -5.042396 -0.217002
vt -5.051588 -0.181658
vt -5.051588 1.228087
vt -3.414394 -0.217002
vt -3.424058 -0.181659
vt -3.424059 1.228087
vt -5.592295 -0.181658
vt -4.002257 -1.632532
vt -5.051588 1.228087
vt -5.017974 1.228087
vt -4.204691 -0.217002
vt -4.196872 -0.181659
vt -3.736919 -0.704991
vt -3.708325 -0.727904
vt -5.787628 -0.181658
vt -5.778436 -0.217002
vt -5.787628 0.319954
vt 0.895676 -0.217002
vt 0.886011 -0.181658
vt 0.886011 0.319954
vt -6.328335 -0.181658
vt 0.271212 -2.370302
vt -5.754014 0.319954
vt 0.113198 -0.181658
vt 0.105379 -0.217002
vt 0.601745 -1.463944
vt 0.573151 -1.441031
vt -2.768540 -0.217002
vt -2.777732 1.269583
vt -2.277662 -0.217002
vt -2.287327 -0.181659
vt -2.287327 1.269583
vt -3.318441 -0.181659
vt -2.865525 0.641323
vt -2.744119 1.269583
vt -3.067959 -0.217002
vt -3.060140 -0.181659
vt -2.600188 1.568864
vt -2.571594 1.545951
vt -4.707562 -0.181658
vt -4.707562 1.396718
vt -6.078531 -0.217002
vt -6.088196 -0.181658
vt -6.088196 1.396718
vt -5.248269 -0.181658
vt -5.257461 -0.217002
vt -6.702997 -1.290236
vt -4.707562 1.396718
vt -4.673948 1.396718
vt -6.861010 -0.181658
vt -6.868829 -0.217002
vt -6.372462 -0.383878
vt -6.401057 -0.360965
vt -3.880361 2.332124
vt -3.377517 2.332124
vt -3.348923 2.332124
vt 0.370324 -0.181658
vt -0.170382 2.332124
vt -0.203996 2.332124
vt -3.581797 -0.181658
vt -3.572132 -0.217002
vt -4.150330 2.332124
vt -4.185674 2.332124
vt -0.170382 -0.181658
vt -0.179574 -0.217002
vt 0.370325 2.332124
vt 0.403939 2.332124
vt -4.354610 -0.181658
vt -4.362429 -0.217002
vt -1.530670 -0.181658
vt -1.521478 -0.217002
vt -1.521478 1.791555
vt -7.038157 -0.217002
vt -7.047822 -0.181658
vt -7.047822 1.756211
vt -2.080570 -0.217002
vt -2.071377 -0.181658
vt -7.626020 1.888385
vt -1.530670 1.756211
vt -1.497056 1.756211
vt -7.820635 -0.181658
vt -7.828455 -0.217002
vt -7.332088 2.793014
vt -7.360682 2.815927
vt 1.729779 -0.181658
vt 1.729779 1.269583
vt -1.367784 -0.217002
vt -1.377450 -0.181658
vt -1.377450 1.269583
vt 1.179882 -0.217002
vt -1.992248 5.147107
vt 1.763393 1.269583
vt -2.158081 -0.217002
vt -2.150262 -0.181658
vt -1.661716 6.053465
vt -1.690310 6.076377
vt -6.096465 -0.181659
vt -6.139355 -0.181659
vt -5.607919 -0.181659
vt 1.623937 1.342875
vt 1.049615 -0.181659
vt -5.840792 1.342875
vt -6.444669 -0.181659
vt 1.657551 -0.181659
vt 1.623937 1.342875
vt 1.657551 1.342875
vt -6.153652 5.970534
vt -2.887589 -4.855937
vt -3.069248 -4.296845
vt -2.579360 0.835161
vt -2.105110 -0.181658
vt -3.082203 0.835161
vt -8.274991 0.835161
vt -8.815698 -0.181658
vt -8.815697 0.835161
vt -1.264181 -2.157684
vt -2.033704 -2.716775
vt -2.215364 -2.157684
vt -2.228319 0.858049
vt -1.445841 -2.716775
vt -1.455506 0.858049
vt -6.676537 0.858049
vt -4.202638 1.460390
vt -4.972160 0.901298
vt -5.153821 1.460390
vt -5.166776 1.701307
vt -4.384298 0.901299
vt -3.058464 1.701307
vt -0.193883 0.142446
vt -0.963407 -0.416646
vt -1.145066 0.142446
vt -1.158022 1.342875
vt -0.375544 -0.416646
vt -3.835702 1.342875
vt -4.376408 1.342875
vt -0.515198 2.971425
vt -1.466380 2.971425
vt -1.479335 1.756211
vt -0.696858 2.412333
vt -1.006722 1.756211
vt -4.853582 -3.274570
vt -5.623105 -3.833661
vt -5.817719 1.886085
vt -5.035242 -3.833661
vt -7.252717 1.886085
vt -5.044906 1.886085
vt -3.232734 -1.073441
vt -4.196872 1.228087
vt -3.414394 -1.632532
vt -5.592295 1.228087
vt 1.077335 -1.809481
vt 0.307813 -2.368572
vt 0.126153 -1.809481
vt 0.113198 0.319954
vt 0.307813 -2.368572
vt 0.895676 -2.368572
vt -6.328335 0.319954
vt -2.096002 1.200415
vt -2.865525 0.641323
vt -3.047185 1.200415
vt -3.060140 1.269583
vt -2.277662 0.641323
vt -3.318440 1.269583
vt -5.896873 -0.729415
vt -6.666396 -1.288506
vt -6.848055 -0.729415
vt -6.861010 1.396718
vt -6.666396 -1.288506
vt -6.078532 -1.288506
vt -5.248269 1.396718
vt -3.390473 4.348472
vt -4.159995 3.789380
vt -3.837469 2.332124
vt -4.354610 2.332124
vt 0.370324 2.332124
vt -3.581798 2.332124
vt -0.170382 2.332124
vt -6.856496 2.447478
vt -7.820635 1.756211
vt -7.038158 1.888385
vt -1.530669 1.756211
vt -2.071377 1.756211
vt -1.186125 5.707928
vt -1.955648 5.148837
vt -2.137307 5.707928
vt -2.150262 1.269583
vt -1.955648 5.148837
vt -1.367785 5.148838
vt 1.189074 1.269584
vt -5.636513 -0.181659
vt -6.613605 1.342875
vt -6.613605 -0.181659
vt -5.831128 5.042993
vt 1.083229 -0.181659
vt 1.623937 -0.181659
vt -6.409324 -0.181659
vt -5.840792 -0.181659
vt 1.083229 1.342875
vt 1.623937 -0.181659
vt 1.083229 -0.181659
vt -6.126638 0.893393
vt -2.508565 1.736651
vt -4.384298 1.736651
vt -5.008761 0.899569
vt -0.375544 1.378219
vt -0.696858 1.791555
vt -1.321321 2.410603
vt -5.659706 -3.835391
vt -5.042396 1.263431
vt -3.414394 1.263431
vt -4.038858 -1.634262
vt -5.778436 0.355298
vt 0.895676 0.355298
vt -2.768540 1.304927
vt -2.277662 1.304927
vt -2.902126 0.639593
vt -4.698370 1.432062
vt -6.078532 1.432062
vt -7.038157 1.791555
vt -7.662621 1.886655
vt 1.738971 1.304927
vt -1.367785 1.304927
vt 1.633129 1.378219
vt -5.831127 1.378219
vt -6.455591 5.041263
vt -8.815698 0.835161
vt -1.445841 -2.716775
vt -1.264182 -2.157684
vt -4.384297 0.901298
vt -0.375544 -0.416646
vt -0.193883 0.142446
vt -0.515198 2.971425
vt -5.035242 -3.833661
vt -4.853582 -3.274570
vt 0.895676 -2.368572
vt -2.277662 0.641323
vt -6.078532 -1.288506
vt -3.572132 3.789380
vt -7.038157 1.888385
vt -6.856496 2.447477
vt -1.367784 5.148837
s 0
usemtl Light_iron
f 1/1/1 2/2/1 3/3/1
f 4/4/2 5/5/2 6/6/2
f 7/7/3 8/8/3 9/9/3
f 10/7/4 11/9/4 12/8/4
f 13/10/5 14/11/5 15/12/5
f 16/13/6 17/14/6 18/15/6
f 19/16/7 20/17/7 21/18/7
f 22/19/8 23/20/8 24/21/8
f 25/22/9 26/23/9 27/24/9
f 28/25/10 29/26/10 30/27/10
f 31/28/1 32/29/1 33/30/1
f 34/31/2 35/32/2 36/33/2
f 37/34/3 38/35/3 39/36/3
f 40/37/4 41/38/4 42/39/4
f 43/40/5 44/41/5 45/42/5
f 46/43/6 47/44/6 48/45/6
f 49/46/7 50/47/7 51/48/7
f 52/49/8 53/50/8 54/51/8
f 55/52/9 56/53/9 57/54/9
f 58/55/10 59/56/10 60/57/10
f 61/58/1 62/59/1 63/60/1
f 64/61/2 65/62/2 66/63/2
f 67/64/3 68/65/3 69/66/3
f 70/67/4 71/68/4 72/69/4
f 73/70/5 74/71/5 75/72/5
f 76/73/6 77/74/6 78/75/6
f 79/76/7 80/77/7 81/78/7
f 82/79/8 83/80/8 84/81/8
f 85/82/9 86/83/9 87/84/9
f 88/85/10 89/86/10 90/87/10
f 91/88/1 92/89/1 93/90/1
f 94/91/2 95/92/2 96/93/2
f 97/94/3 98/95/3 99/96/3
f 100/97/4 101/98/4 102/99/4
f 103/100/11 104/101/11 105/102/11
f 106/103/12 107/104/12 108/105/12
f 109/106/13 110/107/13 111/108/13
f 112/109/14 113/110/14 114/111/14
f 115/112/9 116/113/9 117/114/9
f 118/115/10 119/116/10 120/117/10
f 121/118/1 122/119/1 123/120/1
f 124/121/2 125/122/2 126/123/2
f 127/124/3 128/125/3 129/126/3
f 130/127/4 131/128/4 132/129/4
f 133/130/5 134/131/5 135/132/5
f 136/133/6 137/134/6 138/135/6
f 139/136/7 140/137/7 141/138/7
f 142/139/8 143/140/8 144/141/8
f 145/142/9 146/143/9 147/144/9
f 148/145/10 149/146/10 150/147/10
f 151/148/1 152/149/1 153/150/1
f 154/151/2 155/152/2 156/153/2
f 157/154/3 158/155/3 159/156/3
f 160/157/4 161/158/4 162/159/4
f 163/160/5 164/161/5 165/162/5
f 166/163/6 167/164/6 168/165/6
f 169/166/7 170/167/7 171/168/7
f 172/169/14 173/170/14 174/171/14
f 175/172/9 176/173/9 177/174/9
f 178/175/10 179/176/10 180/177/10
f 181/178/1 182/179/1 183/180/1
f 184/181/2 185/182/2 186/183/2
f 187/184/3 188/185/3 189/186/3
f 190/187/4 191/188/4 192/189/4
f 193/190/5 194/191/5 195/192/5
f 196/193/6 197/194/6 198/195/6
f 199/196/7 200/197/7 201/198/7
f 202/199/8 203/200/8 204/201/8
f 205/202/9 206/203/9 207/204/9
f 208/205/10 209/206/10 210/207/10
f 211/208/1 212/209/1 213/210/1
f 214/211/2 215/212/2 216/213/2
f 217/214/3 218/215/3 219/216/3
f 220/217/4 221/218/4 222/219/4
f 223/220/5 224/221/5 225/222/5
f 226/223/12 227/224/12 228/225/12
f 229/226/13 230/227/13 231/228/13
f 232/229/8 233/230/8 234/231/8
f 235/232/9 236/233/9 237/234/9
f 238/235/10 239/236/10 240/237/10
f 241/238/1 242/239/1 243/240/1
f 244/241/2 245/242/2 246/243/2
f 247/244/3 248/245/3 249/246/3
f 250/247/4 251/248/4 252/249/4
f 253/250/5 254/251/5 255/252/5
f 256/253/6 257/254/6 258/255/6
f 259/256/7 260/257/7 261/258/7
f 262/259/8 263/260/8 264/261/8
f 265/262/9 266/263/9 267/264/9
f 268/265/10 269/266/10 270/267/10
f 271/268/1 272/269/1 273/270/1
f 274/271/2 275/272/2 276/273/2
f 277/274/3 278/275/3 279/276/3
f 280/277/4 281/278/4 282/279/4
f 283/280/5 284/281/5 285/282/5
f 286/283/6 287/284/6 288/285/6
f 289/286/7 290/287/7 291/288/7
f 292/289/8 293/290/8 294/291/8
f 295/292/9 296/293/9 297/294/9
f 298/295/10 299/296/10 300/297/10
f 301/298/1 302/299/1 303/300/1
f 304/301/2 305/302/2 306/303/2
f 307/304/3 308/305/3 309/306/3
f 310/307/4 311/308/4 312/309/4
f 313/310/11 314/311/11 315/312/11
f 316/313/6 317/314/6 318/315/6
f 319/316/7 320/317/7 321/318/7
f 322/319/8 323/320/8 324/321/8
f 325/322/9 326/323/9 327/324/9
f 328/325/10 329/326/10 330/327/10
f 331/328/1 332/329/1 333/330/1
f 334/331/2 335/332/2 336/333/2
f 337/334/3 338/335/3 339/336/3
f 340/337/4 341/338/4 342/339/4
f 343/340/5 344/341/5 345/342/5
f 346/343/6 347/344/6 348/345/6
f 349/346/7 350/347/7 351/348/7
f 352/349/8 353/350/8 354/351/8
f 355/352/9 356/353/9 357/354/9
f 358/355/10 359/356/10 360/357/10
f 361/358/1 362/359/1 363/360/1
f 364/361/2 365/362/2 366/363/2
f 367/364/3 368/365/3 369/366/3
f 370/367/4 371/368/4 372/369/4
f 373/370/15 374/371/15 375/372/15
f 376/373/6 377/374/6 378/375/6
f 379/376/7 380/377/7 381/378/7
f 382/379/8 383/380/8 384/381/8
f 385/382/9 386/383/9 387/384/9
f 388/385/10 389/386/10 390/387/10
f 391/388/1 392/389/1 393/390/1
f 394/391/2 395/392/2 396/393/2
f 397/394/3 398/395/3 399/396/3
f 400/397/4 401/398/4 402/399/4
f 403/400/5 404/401/5 405/402/5
f 406/403/6 407/404/6 408/405/6
f 409/406/7 410/407/7 411/408/7
f 412/409/8 413/410/8 414/411/8
f 415/412/9 416/413/9 417/414/9
f 418/415/10 419/414/10 420/413/10
f 8/8/16 1/4/16 3/5/16
f 12/8/17 4/4/17 10/7/17
f 6/416/18 3/3/18 2/2/18
f 9/417/19 12/418/19 11/419/19
f 14/420/20 7/7/20 9/9/20
f 11/9/21 16/421/21 18/420/21
f 15/12/22 18/15/22 17/14/22
f 20/17/23 13/10/23 15/12/23
f 17/14/24 22/19/24 24/21/24
f 21/18/25 24/21/25 23/20/25
f 26/23/26 19/422/26 21/423/26
f 23/424/27 28/25/27 30/27/27
f 27/24/28 30/425/28 29/426/28
f 2/2/29 25/427/29 27/428/29
f 29/26/30 4/4/30 6/6/30
f 38/35/16 31/28/16 33/30/16
f 35/32/17 40/37/17 42/39/17
f 32/29/18 35/32/18 33/30/18
f 39/36/19 42/39/19 41/38/19
f 39/429/20 43/40/20 37/52/20
f 41/430/21 46/43/21 48/45/21
f 45/42/22 48/45/22 47/44/22
f 50/47/23 43/431/23 45/432/23
f 54/51/24 46/433/24 52/49/24
f 51/48/25 54/51/25 53/50/25
f 56/53/26 49/40/26 51/434/26
f 53/435/27 58/55/27 60/57/27
f 57/54/28 60/436/28 59/437/28
f 32/29/29 55/438/29 57/439/29
f 59/56/30 34/440/30 36/441/30
f 63/60/16 67/64/16 61/58/16
f 65/62/17 70/67/17 72/69/17
f 66/63/18 63/60/18 62/59/18
f 69/66/19 72/69/19 71/68/19
f 74/71/20 67/442/20 69/443/20
f 71/444/21 76/73/21 78/75/21
f 75/72/22 78/75/22 77/74/22
f 75/445/23 79/76/23 73/446/23
f 77/447/24 82/79/24 84/81/24
f 81/78/25 84/81/25 83/80/25
f 86/83/26 79/448/26 81/449/26
f 90/87/27 82/450/27 88/85/27
f 87/84/28 90/451/28 89/452/28
f 87/453/29 61/58/29 85/454/29
f 89/86/30 64/455/30 66/456/30
f 93/90/16 97/94/16 91/88/16
f 95/92/17 100/97/17 102/99/17
f 96/93/18 93/90/18 92/89/18
f 99/96/19 102/99/19 101/98/19
f 104/101/20 97/112/20 99/457/20
f 108/105/21 100/458/21 106/103/21
f 105/102/22 108/105/22 107/104/22
f 110/107/23 103/459/23 105/460/23
f 107/461/24 112/109/24 114/111/24
f 111/108/25 114/111/25 113/110/25
f 111/462/26 115/112/26 109/463/26
f 113/464/27 118/115/27 120/117/27
f 117/114/28 120/465/28 119/466/28
f 92/89/29 115/467/29 117/468/29
f 96/469/30 118/115/30 94/470/30
f 123/120/16 127/124/16 121/118/16
f 125/122/17 130/127/17 132/129/17
f 126/123/18 123/120/18 122/119/18
f 129/126/19 132/129/19 131/128/19
f 134/131/20 127/471/20 129/472/20
f 138/135/21 130/473/21 136/133/21
f 135/132/22 138/135/22 137/134/22
f 140/137/23 133/474/23 135/475/23
f 137/476/24 142/139/24 144/141/24
f 141/138/25 144/141/25 143/140/25
f 146/143/26 139/477/26 141/478/26
f 150/147/27 142/479/27 148/145/27
f 147/144/28 150/480/28 149/481/28
f 122/119/29 145/482/29 147/483/29
f 149/146/30 124/484/30 126/485/30
f 158/155/16 151/148/16 153/150/16
f 162/159/17 154/151/17 160/157/17
f 156/153/18 153/150/18 152/149/18
f 159/156/19 162/159/19 161/158/19
f 164/161/20 157/172/20 159/486/20
f 168/165/21 160/487/21 166/163/21
f 165/162/22 168/165/22 167/164/22
f 170/167/23 163/488/23 165/489/23
f 174/171/24 166/490/24 172/169/24
f 171/168/25 174/171/25 173/170/25
f 176/173/26 169/491/26 171/492/26
f 180/177/27 172/493/27 178/175/27
f 179/494/28 176/173/28 180/495/28
f 152/149/29 175/496/29 177/497/29
f 179/176/30 154/498/30 156/499/30
f 183/180/16 187/184/16 181/178/16
f 185/182/17 190/187/17 192/189/17
f 186/183/18 183/180/18 182/179/18
f 189/186/19 192/189/19 191/188/19
f 194/191/20 187/500/20 189/501/20
f 191/502/21 196/193/21 198/195/21
f 195/192/22 198/195/22 197/194/22
f 200/197/23 193/503/23 195/504/23
f 197/505/24 202/199/24 204/201/24
f 201/198/25 204/201/25 203/200/25
f 206/203/26 199/190/26 201/506/26
f 210/207/27 202/507/27 208/205/27
f 207/204/28 210/508/28 209/509/28
f 182/179/29 205/510/29 207/511/29
f 186/512/30 208/205/30 184/513/30
f 218/215/16 211/208/16 213/210/16
f 215/212/17 220/217/17 222/219/17
f 216/213/18 213/210/18 212/209/18
f 221/218/19 218/215/19 222/219/19
f 219/514/20 223/220/20 217/515/20
f 221/516/21 226/223/21 228/225/21
f 225/222/22 228/225/22 227/224/22
f 230/227/23 223/517/23 225/518/23
f 227/519/24 232/229/24 234/231/24
f 231/228/25 234/231/25 233/230/25
f 236/233/26 229/220/26 231/520/26
f 233/521/27 238/235/27 240/237/27
f 237/234/28 240/516/28 239/522/28
f 237/523/29 211/208/29 235/524/29
f 239/236/30 214/525/30 216/526/30
f 243/240/16 247/244/16 241/238/16
f 245/242/17 250/247/17 252/249/17
f 246/243/18 243/240/18 242/239/18
f 249/246/19 252/249/19 251/248/19
f 249/263/20 253/250/20 247/527/20
f 251/528/21 256/253/21 258/255/21
f 255/252/22 258/255/22 257/254/22
f 260/257/23 253/529/23 255/530/23
f 257/531/24 262/259/24 264/261/24
f 261/258/25 264/261/25 263/260/25
f 266/263/26 259/250/26 261/532/26
f 270/267/27 262/533/27 268/265/27
f 267/264/28 270/528/28 269/534/28
f 242/239/29 265/535/29 267/536/29
f 246/537/30 268/265/30 244/538/30
f 278/275/16 271/268/16 273/270/16
f 282/279/17 274/271/17 280/277/17
f 276/273/18 273/270/18 272/269/18
f 279/276/19 282/279/19 281/278/19
f 284/281/20 277/292/20 279/539/20
f 281/540/21 286/283/21 288/285/21
f 285/282/22 288/285/22 287/284/22
f 290/287/23 283/541/23 285/542/23
f 287/543/24 292/289/24 294/291/24
f 291/288/25 294/291/25 293/290/25
f 291/544/26 295/292/26 289/545/26
f 293/546/27 298/295/27 300/297/27
f 297/294/28 300/547/28 299/548/28
f 297/549/29 271/268/29 295/550/29
f 299/296/30 274/551/30 276/552/30
f 308/305/16 301/298/16 303/300/16
f 305/302/17 310/307/17 312/309/17
f 306/553/18 303/300/18 302/299/18
f 309/306/19 312/554/19 311/555/19
f 309/556/20 313/310/20 307/322/20
f 311/308/21 316/313/21 318/315/21
f 315/312/22 318/557/22 317/558/22
f 315/559/23 319/316/23 313/560/23
f 317/314/24 322/319/24 324/321/24
f 321/318/25 324/561/25 323/562/25
f 321/563/26 325/322/26 319/564/26
f 323/320/27 328/325/27 330/327/27
f 327/324/28 330/565/28 329/566/28
f 327/567/29 301/298/29 325/568/29
f 329/326/30 304/301/30 306/303/30
f 338/335/16 331/328/16 333/330/16
f 335/332/17 340/337/17 342/339/17
f 336/333/18 333/330/18 332/329/18
f 339/336/19 342/339/19 341/338/19
f 339/569/20 343/340/20 337/570/20
f 348/345/21 340/571/21 346/343/21
f 345/342/22 348/345/22 347/344/22
f 350/347/23 343/572/23 345/573/23
f 347/574/24 352/349/24 354/351/24
f 351/348/25 354/351/25 353/350/25
f 356/353/26 349/575/26 351/576/26
f 360/357/27 352/577/27 358/355/27
f 357/354/28 360/578/28 359/579/28
f 357/580/29 331/328/29 355/581/29
f 359/356/30 334/582/30 336/583/30
f 363/360/16 367/364/16 361/358/16
f 365/362/17 370/367/17 372/369/17
f 366/363/18 363/360/18 362/359/18
f 369/366/19 372/369/19 371/368/19
f 374/371/20 367/382/20 369/584/20
f 371/585/21 376/373/21 378/375/21
f 375/372/22 378/375/22 377/374/22
f 380/377/23 373/586/23 375/587/23
f 377/588/24 382/379/24 384/381/24
f 381/378/25 384/381/25 383/380/25
f 386/383/26 379/589/26 381/371/26
f 383/590/27 388/385/27 390/387/27
f 387/384/28 390/585/28 389/591/28
f 362/359/29 385/592/29 387/593/29
f 389/386/30 364/594/30 366/595/30
f 398/395/16 391/388/16 393/390/16
f 402/399/17 394/391/17 400/397/17
f 396/393/18 393/596/18 392/597/18
f 399/598/19 402/399/19 401/398/19
f 399/396/20 403/400/20 397/394/20
f 401/599/21 406/403/21 408/405/21
f 405/600/22 408/405/22 407/404/22
f 410/407/23 403/400/23 405/402/23
f 407/601/24 412/409/24 414/411/24
f 411/602/25 414/411/25 413/410/25
f 416/413/26 409/406/26 411/408/26
f 420/413/27 412/406/27 418/415/27
f 417/603/28 420/604/28 419/605/28
f 392/389/29 415/412/29 417/414/29
f 396/606/30 418/415/30 394/388/30
f 7/7/31 19/607/31 25/608/31
f 5/609/32 8/610/32 3/3/32
f 29/611/33 2/2/33 27/428/33
f 4/4/34 22/607/34 16/421/34
f 11/612/35 14/613/35 9/23/35
f 17/14/36 20/17/36 15/12/36
f 23/614/37 26/23/37 21/423/37
f 37/615/31 49/616/31 55/617/31
f 35/32/32 38/35/32 33/30/32
f 59/618/33 32/29/33 57/439/33
f 34/440/34 52/616/34 46/619/34
f 41/430/35 44/41/35 39/429/35
f 47/620/36 50/47/36 45/432/36
f 53/621/37 56/53/37 51/434/37
f 67/622/31 79/623/31 85/624/31
f 65/62/32 68/65/32 63/60/32
f 89/625/33 62/59/33 87/453/33
f 64/455/34 82/450/34 76/626/34
f 71/444/35 74/71/35 69/443/35
f 77/447/36 80/77/36 75/445/36
f 83/627/37 86/83/37 81/449/37
f 97/628/31 109/629/31 115/630/31
f 95/92/32 98/95/32 93/90/32
f 119/631/33 92/89/33 117/468/33
f 94/470/34 112/629/34 106/632/34
f 101/633/35 104/101/35 99/457/35
f 107/461/36 110/107/36 105/460/36
f 113/634/37 116/113/37 111/462/37
f 127/635/31 139/479/31 145/636/31
f 125/122/32 128/125/32 123/120/32
f 149/637/33 122/119/33 147/483/33
f 124/484/34 142/479/34 136/638/34
f 131/639/35 134/131/35 129/472/35
f 137/476/36 140/137/36 135/475/36
f 143/135/37 146/143/37 141/478/37
f 157/640/31 169/641/31 175/175/31
f 155/152/32 158/155/32 153/150/32
f 179/642/33 152/149/33 177/497/33
f 154/498/34 172/493/34 166/643/34
f 161/644/35 164/161/35 159/486/35
f 167/645/36 170/167/36 165/489/36
f 173/165/37 176/173/37 171/492/37
f 187/646/31 199/507/31 205/205/31
f 185/182/32 188/185/32 183/180/32
f 209/647/33 182/179/33 207/511/33
f 184/513/34 202/507/34 196/648/34
f 191/502/35 194/191/35 189/501/35
f 197/505/36 200/197/36 195/504/36
f 203/649/37 206/203/37 201/506/37
f 217/650/31 229/651/31 235/652/31
f 215/212/32 218/215/32 213/210/32
f 239/653/33 212/209/33 237/523/33
f 214/525/34 232/654/34 226/655/34
f 221/516/35 224/221/35 219/514/35
f 227/519/36 230/227/36 225/518/36
f 233/656/37 236/233/37 231/520/37
f 247/657/31 259/658/31 265/659/31
f 245/242/32 248/245/32 243/240/32
f 269/660/33 242/239/33 267/536/33
f 244/538/34 262/533/34 256/661/34
f 251/528/35 254/251/35 249/263/35
f 257/531/36 260/257/36 255/530/36
f 263/662/37 266/263/37 261/532/37
f 277/663/31 289/664/31 295/665/31
f 275/272/32 278/275/32 273/270/32
f 299/666/33 272/269/33 297/549/33
f 274/551/34 292/667/34 286/668/34
f 281/540/35 284/281/35 279/539/35
f 287/543/36 290/287/36 285/542/36
f 293/669/37 296/293/37 291/544/37
f 307/670/31 319/671/31 325/325/31
f 305/672/32 308/305/32 303/300/32
f 329/673/33 302/299/33 327/567/33
f 304/301/34 322/319/34 316/313/34
f 311/674/35 314/311/35 309/556/35
f 317/675/36 320/317/36 315/559/36
f 323/676/37 326/323/37 321/563/37
f 337/677/31 349/577/31 355/355/31
f 335/332/32 338/335/32 333/330/32
f 359/678/33 332/329/33 357/580/33
f 334/582/34 352/577/34 346/679/34
f 341/680/35 344/341/35 339/569/35
f 347/574/36 350/347/36 345/573/36
f 353/681/37 356/353/37 351/576/37
f 367/682/31 379/683/31 385/684/31
f 365/362/32 368/365/32 363/360/32
f 389/685/33 362/359/33 387/593/33
f 364/594/34 382/686/34 376/687/34
f 371/585/35 374/371/35 369/584/35
f 377/588/36 380/377/36 375/587/36
f 383/688/37 386/383/37 381/371/37
f 397/394/31 409/406/31 415/412/31
f 395/392/32 398/689/32 393/596/32
f 419/690/33 392/597/33 417/691/33
f 394/388/34 412/406/34 406/692/34
f 401/599/35 404/693/35 399/694/35
f 407/601/36 410/695/36 405/696/36
f 413/697/37 416/698/37 411/699/37
f 8/8/16 7/7/16 1/4/16
f 12/8/17 5/5/17 4/4/17
f 6/416/18 5/609/18 3/3/18
f 9/417/19 8/610/19 12/418/19
f 14/420/20 13/421/20 7/7/20
f 11/9/21 10/7/21 16/421/21
f 15/12/22 14/11/22 18/15/22
f 20/17/23 19/16/23 13/10/23
f 17/14/24 16/13/24 22/19/24
f 21/18/25 20/17/25 24/21/25
f 26/23/26 25/22/26 19/422/26
f 23/424/27 22/607/27 28/25/27
f 27/24/28 26/23/28 30/425/28
f 2/2/29 1/1/29 25/427/29
f 29/26/30 28/25/30 4/4/30
f 38/35/16 37/34/16 31/28/16
f 35/32/17 34/31/17 40/37/17
f 32/29/18 36/33/18 35/32/18
f 39/36/19 38/35/19 42/39/19
f 39/429/20 44/41/20 43/40/20
f 41/430/21 40/700/21 46/43/21
f 45/42/22 44/41/22 48/45/22
f 50/47/23 49/46/23 43/431/23
f 54/51/24 47/620/24 46/433/24
f 51/48/25 50/47/25 54/51/25
f 56/53/26 55/52/26 49/40/26
f 53/435/27 52/616/27 58/55/27
f 57/54/28 56/53/28 60/436/28
f 32/29/29 31/28/29 55/438/29
f 59/56/30 58/55/30 34/440/30
f 63/60/16 68/65/16 67/64/16
f 65/62/17 64/61/17 70/67/17
f 66/63/18 65/62/18 63/60/18
f 69/66/19 68/65/19 72/69/19
f 74/71/20 73/70/20 67/442/20
f 71/444/21 70/701/21 76/73/21
f 75/72/22 74/71/22 78/75/22
f 75/445/23 80/77/23 79/76/23
f 77/447/24 76/702/24 82/79/24
f 81/78/25 80/77/25 84/81/25
f 86/83/26 85/82/26 79/448/26
f 90/87/27 83/703/27 82/450/27
f 87/84/28 86/83/28 90/451/28
f 87/453/29 62/59/29 61/58/29
f 89/86/30 88/85/30 64/455/30
f 93/90/16 98/95/16 97/94/16
f 95/92/17 94/91/17 100/97/17
f 96/93/18 95/92/18 93/90/18
f 99/96/19 98/95/19 102/99/19
f 104/101/20 103/100/20 97/112/20
f 108/105/21 101/633/21 100/458/21
f 105/102/22 104/101/22 108/105/22
f 110/107/23 109/106/23 103/459/23
f 107/461/24 106/704/24 112/109/24
f 111/108/25 110/107/25 114/111/25
f 111/462/26 116/113/26 115/112/26
f 113/464/27 112/629/27 118/115/27
f 117/114/28 116/113/28 120/465/28
f 92/89/29 91/88/29 115/467/29
f 96/469/30 119/116/30 118/115/30
f 123/120/16 128/125/16 127/124/16
f 125/122/17 124/121/17 130/127/17
f 126/123/18 125/122/18 123/120/18
f 129/126/19 128/125/19 132/129/19
f 134/131/20 133/130/20 127/471/20
f 138/135/21 131/639/21 130/473/21
f 135/132/22 134/131/22 138/135/22
f 140/137/23 139/136/23 133/474/23
f 137/476/24 136/705/24 142/139/24
f 141/138/25 140/137/25 144/141/25
f 146/143/26 145/142/26 139/477/26
f 150/147/27 143/706/27 142/479/27
f 147/144/28 146/143/28 150/480/28
f 122/119/29 121/118/29 145/482/29
f 149/146/30 148/145/30 124/484/30
f 158/155/16 157/154/16 151/148/16
f 162/159/17 155/152/17 154/151/17
f 156/153/18 155/152/18 153/150/18
f 159/156/19 158/155/19 162/159/19
f 164/161/20 163/160/20 157/172/20
f 168/165/21 161/644/21 160/487/21
f 165/162/22 164/161/22 168/165/22
f 170/167/23 169/166/23 163/488/23
f 174/171/24 167/645/24 166/490/24
f 171/168/25 170/167/25 174/171/25
f 176/173/26 175/172/26 169/491/26
f 180/177/27 173/707/27 172/493/27
f 179/494/28 177/174/28 176/173/28
f 152/149/29 151/148/29 175/496/29
f 179/176/30 178/175/30 154/498/30
f 183/180/16 188/185/16 187/184/16
f 185/182/17 184/181/17 190/187/17
f 186/183/18 185/182/18 183/180/18
f 189/186/19 188/185/19 192/189/19
f 194/191/20 193/190/20 187/500/20
f 191/502/21 190/708/21 196/193/21
f 195/192/22 194/191/22 198/195/22
f 200/197/23 199/196/23 193/503/23
f 197/505/24 196/709/24 202/199/24
f 201/198/25 200/197/25 204/201/25
f 206/203/26 205/202/26 199/190/26
f 210/207/27 203/710/27 202/507/27
f 207/204/28 206/203/28 210/508/28
f 182/179/29 181/178/29 205/510/29
f 186/512/30 209/206/30 208/205/30
f 218/215/16 217/214/16 211/208/16
f 215/212/17 214/211/17 220/217/17
f 216/213/18 215/212/18 213/210/18
f 221/218/19 219/216/19 218/215/19
f 219/514/20 224/221/20 223/220/20
f 221/516/21 220/711/21 226/223/21
f 225/222/22 224/221/22 228/225/22
f 230/227/23 229/226/23 223/517/23
f 227/519/24 226/712/24 232/229/24
f 231/228/25 230/227/25 234/231/25
f 236/233/26 235/232/26 229/220/26
f 233/521/27 232/654/27 238/235/27
f 237/234/28 236/233/28 240/516/28
f 237/523/29 212/209/29 211/208/29
f 239/236/30 238/235/30 214/525/30
f 243/240/16 248/245/16 247/244/16
f 245/242/17 244/241/17 250/247/17
f 246/243/18 245/242/18 243/240/18
f 249/246/19 248/245/19 252/249/19
f 249/263/20 254/251/20 253/250/20
f 251/528/21 250/713/21 256/253/21
f 255/252/22 254/251/22 258/255/22
f 260/257/23 259/256/23 253/529/23
f 257/531/24 256/714/24 262/259/24
f 261/258/25 260/257/25 264/261/25
f 266/263/26 265/262/26 259/250/26
f 270/267/27 263/715/27 262/533/27
f 267/264/28 266/263/28 270/528/28
f 242/239/29 241/238/29 265/535/29
f 246/537/30 269/266/30 268/265/30
f 278/275/16 277/274/16 271/268/16
f 282/279/17 275/272/17 274/271/17
f 276/273/18 275/272/18 273/270/18
f 279/276/19 278/275/19 282/279/19
f 284/281/20 283/280/20 277/292/20
f 281/540/21 280/716/21 286/283/21
f 285/282/22 284/281/22 288/285/22
f 290/287/23 289/286/23 283/541/23
f 287/543/24 286/717/24 292/289/24
f 291/288/25 290/287/25 294/291/25
f 291/544/26 296/293/26 295/292/26
f 293/546/27 292/667/27 298/295/27
f 297/294/28 296/293/28 300/547/28
f 297/549/29 272/269/29 271/268/29
f 299/296/30 298/295/30 274/551/30
f 308/305/16 307/304/16 301/298/16
f 305/302/17 304/301/17 310/307/17
f 306/553/18 305/672/18 303/300/18
f 309/306/19 308/305/19 312/554/19
f 309/556/20 314/311/20 313/310/20
f 311/308/21 310/307/21 316/313/21
f 315/312/22 314/311/22 318/557/22
f 315/559/23 320/317/23 319/316/23
f 317/314/24 316/313/24 322/319/24
f 321/318/25 320/317/25 324/561/25
f 321/563/26 326/323/26 325/322/26
f 323/320/27 322/319/27 328/325/27
f 327/324/28 326/323/28 330/565/28
f 327/567/29 302/299/29 301/298/29
f 329/326/30 328/325/30 304/301/30
f 338/335/16 337/334/16 331/328/16
f 335/332/17 334/331/17 340/337/17
f 336/333/18 335/332/18 333/330/18
f 339/336/19 338/335/19 342/339/19
f 339/569/20 344/341/20 343/340/20
f 348/345/21 341/680/21 340/571/21
f 345/342/22 344/341/22 348/345/22
f 350/347/23 349/346/23 343/572/23
f 347/574/24 346/718/24 352/349/24
f 351/348/25 350/347/25 354/351/25
f 356/353/26 355/352/26 349/575/26
f 360/357/27 353/719/27 352/577/27
f 357/354/28 356/353/28 360/578/28
f 357/580/29 332/329/29 331/328/29
f 359/356/30 358/355/30 334/582/30
f 363/360/16 368/365/16 367/364/16
f 365/362/17 364/361/17 370/367/17
f 366/363/18 365/362/18 363/360/18
f 369/366/19 368/365/19 372/369/19
f 374/371/20 373/370/20 367/382/20
f 371/585/21 370/720/21 376/373/21
f 375/372/22 374/371/22 378/375/22
f 380/377/23 379/376/23 373/586/23
f 377/588/24 376/721/24 382/379/24
f 381/378/25 380/377/25 384/381/25
f 386/383/26 385/382/26 379/589/26
f 383/590/27 382/686/27 388/385/27
f 387/384/28 386/383/28 390/585/28
f 362/359/29 361/358/29 385/592/29
f 389/386/30 388/385/30 364/594/30
f 398/395/16 397/394/16 391/388/16
f 402/399/17 395/392/17 394/391/17
f 396/393/18 395/392/18 393/596/18
f 399/598/19 398/689/19 402/399/19
f 399/396/20 404/401/20 403/400/20
f 401/599/21 400/722/21 406/403/21
f 405/600/22 404/693/22 408/405/22
f 410/407/23 409/406/23 403/400/23
f 407/601/24 406/723/24 412/409/24
f 411/602/25 410/695/25 414/411/25
f 416/413/26 415/412/26 409/406/26
f 420/413/27 413/724/27 412/406/27
f 417/603/28 416/698/28 420/604/28
f 392/389/29 391/388/29 415/412/29
f 396/606/30 419/414/30 418/415/30
f 25/608/31 1/4/31 7/7/31
f 7/7/31 13/421/31 19/607/31
f 5/609/32 12/418/32 8/610/32
f 29/611/33 6/416/33 2/2/33
f 16/421/34 10/7/34 4/4/34
f 4/4/34 28/25/34 22/607/34
f 11/612/35 18/725/35 14/613/35
f 17/14/36 24/21/36 20/17/36
f 23/614/37 30/425/37 26/23/37
f 55/617/31 31/440/31 37/615/31
f 37/615/31 43/726/31 49/616/31
f 35/32/32 42/39/32 38/35/32
f 59/618/33 36/33/33 32/29/33
f 46/619/34 40/727/34 34/440/34
f 34/440/34 58/55/34 52/616/34
f 41/430/35 48/45/35 44/41/35
f 47/620/36 54/51/36 50/47/36
f 53/621/37 60/436/37 56/53/37
f 85/624/31 61/455/31 67/622/31
f 67/622/31 73/728/31 79/623/31
f 65/62/32 72/69/32 68/65/32
f 89/625/33 66/63/33 62/59/33
f 76/626/34 70/622/34 64/455/34
f 64/455/34 88/85/34 82/450/34
f 71/444/35 78/75/35 74/71/35
f 77/447/36 84/81/36 80/77/36
f 83/627/37 90/451/37 86/83/37
f 115/630/31 91/470/31 97/628/31
f 97/628/31 103/729/31 109/629/31
f 95/92/32 102/99/32 98/95/32
f 119/631/33 96/93/33 92/89/33
f 106/632/34 100/730/34 94/470/34
f 94/470/34 118/115/34 112/629/34
f 101/633/35 108/105/35 104/101/35
f 107/461/36 114/111/36 110/107/36
f 113/634/37 120/465/37 116/113/37
f 145/636/31 121/484/31 127/635/31
f 127/635/31 133/638/31 139/479/31
f 125/122/32 132/129/32 128/125/32
f 149/637/33 126/123/33 122/119/33
f 136/638/34 130/731/34 124/484/34
f 124/484/34 148/145/34 142/479/34
f 131/639/35 138/135/35 134/131/35
f 137/476/36 144/141/36 140/137/36
f 143/135/37 150/480/37 146/143/37
f 175/175/31 151/498/31 157/640/31
f 157/640/31 163/732/31 169/641/31
f 155/152/32 162/159/32 158/155/32
f 179/642/33 156/153/33 152/149/33
f 166/643/34 160/733/34 154/498/34
f 154/498/34 178/175/34 172/493/34
f 161/644/35 168/165/35 164/161/35
f 167/645/36 174/171/36 170/167/36
f 173/165/37 180/495/37 176/173/37
f 205/205/31 181/513/31 187/646/31
f 187/646/31 193/648/31 199/507/31
f 185/182/32 192/189/32 188/185/32
f 209/647/33 186/183/33 182/179/33
f 196/648/34 190/646/34 184/513/34
f 184/513/34 208/205/34 202/507/34
f 191/502/35 198/195/35 194/191/35
f 197/505/36 204/201/36 200/197/36
f 203/649/37 210/508/37 206/203/37
f 235/652/31 211/525/31 217/650/31
f 217/650/31 223/734/31 229/651/31
f 215/212/32 222/219/32 218/215/32
f 239/653/33 216/213/33 212/209/33
f 226/655/34 220/650/34 214/525/34
f 214/525/34 238/235/34 232/654/34
f 221/516/35 228/225/35 224/221/35
f 227/519/36 234/231/36 230/227/36
f 233/656/37 240/516/37 236/233/37
f 265/659/31 241/538/31 247/657/31
f 247/657/31 253/735/31 259/658/31
f 245/242/32 252/249/32 248/245/32
f 269/660/33 246/243/33 242/239/33
f 256/661/34 250/657/34 244/538/34
f 244/538/34 268/265/34 262/533/34
f 251/528/35 258/255/35 254/251/35
f 257/531/36 264/261/36 260/257/36
f 263/662/37 270/528/37 266/263/37
f 295/665/31 271/551/31 277/663/31
f 277/663/31 283/736/31 289/664/31
f 275/272/32 282/279/32 278/275/32
f 299/666/33 276/273/33 272/269/33
f 286/668/34 280/663/34 274/551/34
f 274/551/34 298/295/34 292/667/34
f 281/540/35 288/285/35 284/281/35
f 287/543/36 294/291/36 290/287/36
f 293/669/37 300/547/37 296/293/37
f 325/325/31 301/301/31 307/670/31
f 307/670/31 313/737/31 319/671/31
f 305/672/32 312/554/32 308/305/32
f 329/673/33 306/553/33 302/299/33
f 316/313/34 310/307/34 304/301/34
f 304/301/34 328/325/34 322/319/34
f 311/674/35 318/557/35 314/311/35
f 317/675/36 324/561/36 320/317/36
f 323/676/37 330/565/37 326/323/37
f 355/355/31 331/582/31 337/677/31
f 337/677/31 343/738/31 349/577/31
f 335/332/32 342/339/32 338/335/32
f 359/678/33 336/333/33 332/329/33
f 346/679/34 340/739/34 334/582/34
f 334/582/34 358/355/34 352/577/34
f 341/680/35 348/345/35 344/341/35
f 347/574/36 354/351/36 350/347/36
f 353/681/37 360/578/37 356/353/37
f 385/684/31 361/594/31 367/682/31
f 367/682/31 373/740/31 379/683/31
f 365/362/32 372/369/32 368/365/32
f 389/685/33 366/363/33 362/359/33
f 376/687/34 370/682/34 364/594/34
f 364/594/34 388/385/34 382/686/34
f 371/585/35 378/375/35 374/371/35
f 377/588/36 384/381/36 380/377/36
f 383/688/37 390/585/37 386/383/37
f 415/412/31 391/388/31 397/394/31
f 397/394/31 403/400/31 409/406/31
f 395/392/32 402/399/32 398/689/32
f 419/690/33 396/393/33 392/597/33
f 406/692/34 400/394/34 394/388/34
f 394/388/34 418/415/34 412/406/34
f 401/599/35 408/405/35 404/693/35
f 407/601/36 414/411/36 410/695/36
f 413/697/37 420/604/37 416/698/37
o Torus
v -2.706870 -0.122465 -0.050219
v -0.993078 -0.395366 0.758993
v -1.030749 0.478646 -0.739551
v -2.467290 1.763604 1.064144
v -0.671073 1.139122 1.551505
v -0.877593 2.024696 0.086426
v -1.724980 3.400853 1.897108
v 0.062643 2.425427 1.913862
v -0.387813 3.214364 0.520327
v -0.449811 4.748513 2.132864
v 0.938519 3.214887 1.763437
v 0.246008 3.879963 0.478274
v 1.284924 5.485590 1.454721
v 1.815830 3.515498 1.297938
v 0.925346 4.114448 0.071338
v 2.817737 5.290585 0.197133
v 2.635130 3.346824 0.559762
v 1.633315 3.934829 -0.621591
v 3.879613 4.357814 -1.042046
v 3.117006 2.745737 -0.161041
v 2.158581 3.322094 -1.345792
v 4.419669 2.733752 -1.830672
v 3.128807 1.973473 -0.537205
v 2.333254 2.403791 -1.851316
v 4.084772 0.711105 -1.826961
v 2.778816 1.150043 -0.515442
v 2.103397 1.240952 -2.025819
v 2.991853 -1.020589 -1.123600
v 2.031878 0.199629 -0.054913
v 1.333810 -0.071119 -1.600562
v 1.459491 -2.282985 -0.050218
v 0.838936 -0.662349 0.758992
v 0.100855 -1.131979 -0.739551
v -0.293679 -3.018537 1.064143
v -0.650973 -1.150729 1.551503
v -1.314642 -1.772366 0.086426
v -2.082736 -3.194303 1.897110
v -2.131802 -1.158462 1.913862
v -2.589812 -1.943038 0.520327
v -3.887434 -2.763804 2.132865
v -3.253434 -0.794662 1.763438
v -3.483152 -1.726931 0.478274
v -5.393122 -1.630018 1.454719
v -3.952425 -0.185192 1.297941
v -4.025889 -1.255849 0.071339
v -5.990649 -0.205061 0.197132
v -4.216000 0.608679 0.559764
v -4.224319 -0.552922 -0.621589
v -5.713788 1.180934 -1.042040
v -3.936378 1.326541 -0.161041
v -3.956309 0.208341 -1.345793
v -4.577338 2.460668 -1.830666
v -3.273479 1.722890 -0.537206
v -3.248371 0.818761 -1.851319
v -2.658221 3.181968 -1.826961
v -2.385375 1.831504 -0.515442
v -2.126395 1.201119 -2.025820
v -0.612070 3.101311 -1.123595
v -1.188826 1.659839 -0.054905
v -0.605317 1.190673 -1.600562
v 1.247378 2.405453 -0.050216
v 0.154141 1.057713 0.758993
v 0.929896 0.653329 -0.739554
v 2.760971 1.254937 1.064143
v 1.322046 0.011603 1.551505
v 2.192235 -0.252332 0.086426
v 3.807716 -0.206550 1.897110
v 2.069159 -1.266967 1.913863
v 2.977626 -1.271325 0.520327
v 4.337243 -1.984714 2.132867
v 2.314912 -2.420226 1.763439
v 3.237142 -2.153032 0.478273
v 4.108198 -3.855572 1.454718
v 2.136593 -3.330307 1.297939
v 3.100542 -2.858599 0.071338
v 3.172912 -5.085524 0.197131
v 1.580866 -3.955504 0.559762
v 2.591002 -3.381909 -0.621589
v 1.834176 -5.538751 -1.042048
v 0.819375 -4.072277 -0.161051
v 1.797730 -3.530438 -1.345792
v 0.157660 -5.194427 -1.830667
v 0.144676 -3.696362 -0.537205
v 0.915117 -3.222555 -1.851319
v -1.426554 -3.893066 -1.826962
v -0.393441 -2.981547 -0.515442
v 0.022993 -2.442069 -2.025820
v -2.379782 -2.080725 -1.123600
v -0.843055 -1.859474 -0.054915
v -0.728495 -1.119552 -1.600562
vn -0.4417 -0.4141 0.7959
vn 0.9826 -0.1487 -0.1114
vn -0.4761 0.4914 -0.7293
vn -0.3448 -0.2967 0.8905
vn 0.8519 -0.3863 -0.3536
vn -0.4984 0.5619 -0.6603
vn -0.0686 -0.1086 0.9917
vn 0.5090 -0.6681 -0.5428
vn -0.5289 0.6046 -0.5956
vn 0.3346 0.0767 0.9392
vn 0.0464 -0.8767 -0.4787
vn -0.4996 0.6626 -0.5579
vn 0.6388 0.1116 0.7613
vn -0.3573 -0.9150 -0.1874
vn -0.3966 0.7015 -0.5922
vn 0.7750 0.0448 0.6304
vn -0.6487 -0.7388 0.1824
vn -0.2564 0.6539 -0.7119
vn 0.7878 -0.0366 0.6149
vn -0.8086 -0.2676 0.5240
vn -0.0875 0.4114 -0.9072
vn 0.7372 -0.1208 0.6647
vn -0.7533 0.3352 0.5658
vn 0.0105 -0.0036 -0.9999
vn 0.6790 -0.1355 0.7215
vn -0.7456 0.5563 0.3669
vn -0.0066 -0.3728 -0.9279
vn 0.6461 -0.1475 0.7489
vn -0.5935 0.7944 0.1289
vn -0.0955 -0.5750 -0.8126
vn 0.5795 -0.1755 0.7959
vn -0.3626 0.9253 -0.1114
vn -0.1875 -0.6580 -0.7293
vn 0.4294 -0.1502 0.8905
vn -0.0914 0.9309 -0.3536
vn -0.2374 -0.7125 -0.6603
vn 0.1283 -0.0051 0.9917
vn 0.3241 0.7748 -0.5428
vn -0.2592 -0.7603 -0.5956
vn -0.2337 0.2514 0.9392
vn 0.7361 0.4786 -0.4787
vn -0.3240 -0.7640 -0.5579
vn -0.4160 0.4974 0.7613
vn 0.9710 0.1481 -0.1874
vn -0.4092 -0.6942 -0.5922
vn -0.4263 0.6488 0.6304
vn 0.9642 -0.1924 0.1824
vn -0.4381 -0.5489 -0.7119
vn -0.3622 0.7005 0.6149
vn 0.6360 -0.5665 0.5240
vn -0.3126 -0.2815 -0.9072
vn -0.2640 0.6989 0.6647
vn 0.0864 -0.8200 0.5658
vn -0.0021 0.0108 -0.9999
vn -0.2222 0.6558 0.7215
vn -0.1089 -0.9239 0.3669
vn 0.3261 0.1807 -0.9279
vn -0.1953 0.6333 0.7488
vn -0.3912 -0.9112 0.1289
vn 0.5457 0.2048 -0.8126
vn -0.1378 0.5896 0.7959
vn -0.6200 -0.7766 -0.1114
vn 0.6636 0.1667 -0.7293
vn -0.0846 0.4470 0.8905
vn -0.7605 -0.5446 -0.3536
vn 0.7358 0.1507 -0.6603
vn -0.0598 0.1137 0.9917
vn -0.8331 -0.1067 -0.5428
vn 0.7881 0.1557 -0.5956
vn -0.1009 -0.3281 0.9392
vn -0.7825 0.3982 -0.4787
vn 0.8237 0.1014 -0.5579
vn -0.2228 -0.6090 0.7613
vn -0.6138 0.7669 -0.1874
vn 0.8058 -0.0073 -0.5922
vn -0.3487 -0.6936 0.6304
vn -0.3155 0.9312 0.1824
vn 0.6944 -0.1049 -0.7119
vn -0.4256 -0.6639 0.6149
vn 0.1726 0.8341 0.5240
vn 0.4001 -0.1300 -0.9072
vn -0.4733 -0.5780 0.6647
vn 0.6669 0.4848 0.5658
vn -0.0083 -0.0073 -0.9999
vn -0.4569 -0.5203 0.7215
vn 0.8545 0.3676 0.3669
vn -0.3195 0.1921 -0.9279
vn -0.4508 -0.4858 0.7489
vn 0.9848 0.1168 0.1289
vn -0.4502 0.3702 -0.8126
vn -0.3603 -0.3672 0.8575
vn 0.9885 -0.0177 -0.1501
vn -0.5215 0.4417 -0.7300
vn -0.1208 -0.2047 0.9713
vn 0.8867 -0.2159 -0.4089
vn -0.5959 0.4801 -0.6438
vn 0.2092 -0.0459 0.9768
vn 0.5610 -0.5720 -0.5983
vn -0.6206 0.5560 -0.5529
vn 0.4542 0.0516 0.8894
vn 0.0326 -0.8886 -0.4576
vn -0.5394 0.6640 -0.5179
vn 0.6759 0.0733 0.7334
vn -0.3715 -0.9176 -0.1417
vn -0.3980 0.7034 -0.5890
vn 0.8062 -0.0596 0.5887
vn -0.6472 -0.7451 0.1610
vn -0.2561 0.6384 -0.7259
vn 0.7566 -0.2769 0.5923
vn -0.8426 -0.3737 0.3877
vn -0.0659 0.4716 -0.8794
vn 0.6417 -0.2536 0.7238
vn -0.9040 0.1170 0.4113
vn 0.1313 0.1217 -0.9838
vn 0.6472 -0.1461 0.7482
vn -0.7177 0.6647 0.2077
vn 0.0715 -0.3452 -0.9358
vn 0.6262 -0.1429 0.7665
vn -0.5737 0.8186 0.0260
vn -0.0740 -0.5752 -0.8147
vn 0.4982 -0.1284 0.8575
vn -0.4789 0.8650 -0.1501
vn -0.1217 -0.6725 -0.7300
vn 0.2377 -0.0023 0.9713
vn -0.2563 0.8759 -0.4089
vn -0.1179 -0.7561 -0.6438
vn -0.0648 0.2041 0.9768
vn 0.2149 0.7719 -0.5983
vn -0.1712 -0.8155 -0.5529
vn -0.2718 0.3676 0.8894
vn 0.7532 0.4725 -0.4576
vn -0.3053 -0.7991 -0.5179
vn -0.4014 0.5486 0.7334
vn 0.9804 0.1371 -0.1417
vn -0.4101 -0.6964 -0.5890
vn -0.3514 0.7280 0.5887
vn 0.9689 -0.1879 0.1610
vn -0.4248 -0.5410 -0.7259
vn -0.1385 0.7937 0.5923
vn 0.7450 -0.5429 0.3877
vn -0.3755 -0.2928 -0.8794
vn -0.1012 0.6825 0.7238
vn 0.3507 -0.8413 0.4113
vn -0.1710 0.0529 -0.9838
vn -0.1971 0.6335 0.7482
vn -0.2168 -0.9539 0.2077
vn 0.2632 0.2345 -0.9358
vn -0.1893 0.6138 0.7665
vn -0.4221 -0.9062 0.0260
vn 0.5351 0.2235 -0.8147
vn -0.1379 0.4957 0.8575
vn -0.5096 -0.8472 -0.1501
vn 0.6433 0.2308 -0.7300
vn -0.1169 0.2070 0.9713
vn -0.6303 -0.6599 -0.4089
vn 0.7137 0.2760 -0.6438
vn -0.1444 -0.1582 0.9768
vn -0.7759 -0.1998 -0.5983
vn 0.7918 0.2594 -0.5529
vn -0.1824 -0.4192 0.8894
vn -0.7858 0.4160 -0.4576
vn 0.8447 0.1352 -0.5179
vn -0.2744 -0.6220 0.7334
vn -0.6089 0.7805 -0.1417
vn 0.8081 -0.0070 -0.5890
vn -0.4547 -0.6683 0.5887
vn -0.3217 0.9330 0.1610
vn 0.6809 -0.0974 -0.7259
vn -0.6181 -0.5168 0.5923
vn 0.0977 0.9166 0.3877
vn 0.4413 -0.1787 -0.8794
vn -0.5405 -0.4289 0.7238
vn 0.5533 0.7244 0.4113
vn 0.0397 -0.1745 -0.9838
vn -0.4501 -0.4874 0.7482
vn 0.9345 0.2892 0.2077
vn -0.3347 0.1107 -0.9358
vn -0.4369 -0.4708 0.7665
vn 0.9958 0.0876 0.0260
vn -0.4612 0.3517 -0.8147
vt 0.411049 0.403980
vt 0.239716 0.654896
vt 0.211872 0.435696
vt 0.614047 0.505558
vt 0.347780 0.582319
vt 0.439886 0.403980
vt 0.406671 0.505558
vt 0.448473 0.582319
vt 0.325987 0.845178
vt 0.518052 0.685240
vt 0.305667 0.731813
vt 0.424471 0.685240
vt 0.533745 0.731813
vt 0.474188 1.001803
vt 0.481393 0.391088
vt 0.635540 0.246614
vt 0.533745 0.229131
vt 0.474188 0.203679
vt 0.325987 0.231078
vt 0.635540 0.823565
vt 0.675799 1.087466
vt 0.555056 0.395976
vt 0.737501 0.300714
vt 0.675799 0.282493
vt 0.737501 0.858502
vt 0.853943 1.064803
vt 0.634009 0.443270
vt 0.832721 0.386505
vt 0.853943 0.428650
vt 0.463041 0.838898
vt 0.649203 0.956396
vt 0.505185 1.064803
vt 0.716289 0.523802
vt 0.888724 0.470277
vt 0.977355 0.956396
vt 0.716289 0.907237
vt 0.546813 0.769040
vt 0.740858 0.767647
vt 0.684505 0.836024
vt 0.590530 0.679287
vt 1.040120 0.767647
vt 0.777336 0.836024
vt 0.740426 0.532574
vt 0.743257 0.729299
vt 0.588001 0.583588
vt 1.001199 0.532574
vt 0.797636 0.729299
vt 0.849420 0.583588
vt 0.874179 0.331316
vt 0.714114 0.441664
vt 0.763538 0.594153
vt 0.770922 0.594153
vt 0.762610 0.473130
vt 0.696087 0.184600
vt 0.538186 0.537512
vt 0.762610 0.457943
vt 0.681481 0.637579
vt 0.681481 0.441664
vt 0.623966 0.372951
vt 0.492334 0.099114
vt 0.450809 0.271245
vt 0.623966 0.363350
vt 0.538186 0.318370
vt 0.450809 0.316191
vt 0.284409 0.078687
vt 0.373677 0.441516
vt 0.278706 0.229131
vt 0.284409 0.231078
vt 0.492334 0.327886
vt 0.278706 0.315293
vt 0.074666 0.128719
vt 0.225476 0.391088
vt 0.148350 0.246613
vt 0.074666 0.203679
vt 0.148350 0.357574
vt -0.100325 0.260488
vt 0.472511 0.249225
vt 0.377249 0.428406
vt 0.323149 0.357574
vt -0.100325 0.282493
vt 0.121652 0.395976
vt 0.067113 0.428406
vt -0.169770 0.426097
vt 0.519805 0.303974
vt 0.463040 0.520670
vt -0.169770 0.428650
vt 0.058575 0.443270
vt 0.036480 0.386505
vt -0.137593 0.572667
vt 0.600338 0.385669
vt 0.546812 0.604100
vt -0.137593 0.587178
vt 0.035513 0.385669
vt 0.068978 0.470277
vt -0.005515 0.664321
vt 0.684505 0.474143
vt 0.590530 0.650164
vt -0.005515 0.735909
vt 0.066661 0.474143
vt 0.146020 0.513995
vt 0.217526 0.663891
vt 0.148938 0.666722
vt 0.249236 0.511466
vt 0.217526 0.819739
vt 0.148938 0.545086
vt 0.249236 0.662787
vt 0.455330 0.810365
vt 0.456115 0.637579
vt 0.279335 0.687002
vt 0.279335 0.589524
vt 0.388299 0.642837
vt 0.671436 0.729492
vt 0.634538 0.537512
vt 0.388299 0.457942
vt 0.456115 0.588310
vt 0.544379 0.572857
vt 0.847346 0.595779
vt 0.680114 0.271244
vt 0.544379 0.363350
vt 0.634538 0.525859
vt 0.680114 0.451278
vt 0.968999 0.425924
vt 0.518052 0.420603
vt 0.305666 0.302682
vt 0.347780 0.451278
vt 0.307614 0.425924
vt 0.404421 0.595779
vt 0.766943 0.302682
vt 1.030541 0.219265
vt 0.467624 0.302176
vt 0.323149 0.168650
vt 0.280214 0.219265
vt 0.795505 0.168650
vt 1.003921 0.001834
vt 0.472511 0.199703
vt 0.377249 0.062880
vt 0.359028 0.001834
vt 0.774781 0.062880
vt 0.895222 -0.141112
vt 0.886811 0.443270
vt 0.710194 0.386505
vt 0.774781 0.300714
vt 0.505186 -0.141112
vt 0.519805 0.117702
vt 0.739634 0.572668
vt 0.895222 0.428650
vt 0.827592 0.523802
vt 0.621693 0.470278
vt 0.739634 -0.193786
vt 0.827592 0.056883
vt 0.544788 0.664321
vt 0.735398 0.607969
vt 0.543279 0.513995
vt 0.544788 -0.153769
vt 0.735398 0.039621
vt 0.543279 0.020337
vt 0.360670 -0.002524
vt 0.632820 0.666722
vt 0.480739 0.511466
vt 0.632820 0.075403
vt 0.480739 0.103413
vt 0.249886 0.208107
vt 0.714114 0.319815
vt 0.588001 0.103413
vt 0.763538 0.166111
vt 0.529137 0.166111
vt 0.428485 0.233821
vt 0.534479 0.233821
vt 0.441799 0.319815
vt 0.467624 0.823504
vt 0.481393 0.823504
vt 0.832721 0.838898
vt 0.777336 0.607969
vt 0.534478 0.473130
vt 0.373677 0.243944
vt 0.036480 0.520670
vt 0.035513 0.523802
vt 0.743257 0.545086
vt 0.781247 0.441516
vt 0.781247 0.420603
vt 0.710194 -0.009780
vt 0.600338 0.056883
vt 0.529137 0.687002
s 0
usemtl Midnight_Swirl
f 422/741/38 424/742/38 421/743/38
f 423/744/39 425/745/39 422/746/39
f 424/742/40 423/747/40 421/743/40
f 425/748/41 427/749/41 424/742/41
f 426/750/42 428/751/42 425/745/42
f 427/749/43 426/752/43 424/742/43
f 428/753/44 430/754/44 427/749/44
f 429/755/45 431/756/45 428/757/45
f 430/758/46 429/755/46 427/759/46
f 431/760/47 433/761/47 430/754/47
f 432/762/48 434/763/48 431/756/48
f 433/764/49 432/762/49 430/758/49
f 434/765/50 436/766/50 433/761/50
f 435/767/51 437/768/51 434/763/51
f 436/769/52 435/767/52 433/764/52
f 437/770/53 439/771/53 436/772/53
f 438/773/54 440/774/54 437/768/54
f 439/775/55 438/776/55 436/766/55
f 440/777/56 442/778/56 439/771/56
f 441/779/57 443/780/57 440/777/57
f 442/781/58 441/782/58 439/775/58
f 443/780/59 445/783/59 442/778/59
f 444/784/60 446/785/60 443/780/60
f 445/786/61 444/787/61 442/781/61
f 446/788/62 448/789/62 445/786/62
f 450/790/63 446/785/63 447/791/63
f 448/789/64 447/792/64 445/786/64
f 449/793/65 451/794/65 448/789/65
f 453/795/66 449/796/66 450/797/66
f 451/794/67 450/798/67 448/789/67
f 452/799/68 454/800/68 451/794/68
f 453/795/69 455/801/69 452/802/69
f 454/800/70 453/803/70 451/794/70
f 455/804/71 457/805/71 454/800/71
f 456/806/72 458/807/72 455/801/72
f 457/808/73 456/806/73 454/809/73
f 458/810/74 460/811/74 457/805/74
f 459/812/75 461/813/75 458/807/75
f 460/814/76 459/812/76 457/808/76
f 461/815/77 463/816/77 460/811/77
f 462/817/78 464/818/78 461/819/78
f 463/820/79 462/821/79 460/814/79
f 464/822/80 466/823/80 463/816/80
f 465/824/81 467/825/81 464/818/81
f 466/826/82 465/827/82 463/820/82
f 467/828/83 469/829/83 466/826/83
f 468/830/84 470/831/84 467/825/84
f 469/832/85 468/833/85 466/823/85
f 470/834/86 472/835/86 469/829/86
f 471/836/87 473/837/87 470/831/87
f 472/838/88 471/839/88 469/832/88
f 473/840/89 475/841/89 472/835/89
f 474/842/90 476/843/90 473/840/90
f 475/844/91 474/845/91 472/838/91
f 476/846/92 478/847/92 475/844/92
f 480/848/93 476/843/93 477/849/93
f 478/847/94 477/850/94 475/844/94
f 479/851/95 481/852/95 478/847/95
f 483/853/96 479/854/96 480/848/96
f 481/852/97 480/855/97 478/847/97
f 482/856/98 484/857/98 481/852/98
f 483/853/99 485/858/99 482/859/99
f 484/857/100 483/860/100 481/852/100
f 485/861/101 487/862/101 484/857/101
f 486/863/102 488/864/102 485/865/102
f 487/866/103 486/863/103 484/867/103
f 488/868/104 490/869/104 487/862/104
f 489/870/105 491/871/105 488/864/105
f 490/872/106 489/870/106 487/866/106
f 491/873/107 493/874/107 490/869/107
f 492/875/108 494/876/108 491/871/108
f 493/877/109 492/875/109 490/872/109
f 494/878/110 496/879/110 493/874/110
f 495/880/111 497/881/111 494/882/111
f 496/883/112 495/884/112 493/877/112
f 497/881/113 499/885/113 496/886/113
f 498/887/114 500/888/114 497/881/114
f 499/889/115 498/890/115 496/879/115
f 500/888/116 502/891/116 499/885/116
f 501/892/117 503/893/117 500/888/117
f 502/894/118 501/895/118 499/889/118
f 503/896/119 505/897/119 502/894/119
f 504/898/120 506/899/120 503/893/120
f 505/897/121 504/900/121 502/894/121
f 506/901/122 508/902/122 505/897/122
f 510/903/123 506/904/123 507/905/123
f 508/902/124 507/906/124 505/897/124
f 509/907/125 421/743/125 508/902/125
f 423/744/126 509/908/126 510/903/126
f 421/743/127 510/909/127 508/902/127
f 422/741/128 425/748/128 424/742/128
f 423/744/129 426/750/129 425/745/129
f 424/742/130 426/752/130 423/747/130
f 425/748/131 428/753/131 427/749/131
f 426/750/132 429/910/132 428/751/132
f 427/749/133 429/911/133 426/752/133
f 428/753/134 431/760/134 430/754/134
f 429/755/135 432/762/135 431/756/135
f 430/758/136 432/762/136 429/755/136
f 431/760/137 434/765/137 433/761/137
f 432/762/138 435/767/138 434/763/138
f 433/764/139 435/767/139 432/762/139
f 434/765/140 437/912/140 436/766/140
f 435/767/141 438/773/141 437/768/141
f 436/769/142 438/773/142 435/767/142
f 437/770/143 440/777/143 439/771/143
f 438/773/144 441/913/144 440/774/144
f 439/775/145 441/782/145 438/776/145
f 440/777/146 443/780/146 442/778/146
f 441/779/147 444/784/147 443/780/147
f 442/781/148 444/787/148 441/782/148
f 443/780/149 446/785/149 445/783/149
f 444/784/150 447/791/150 446/785/150
f 445/786/151 447/792/151 444/787/151
f 446/788/152 449/793/152 448/789/152
f 450/790/153 449/914/153 446/785/153
f 448/789/154 450/798/154 447/792/154
f 449/793/155 452/799/155 451/794/155
f 453/795/156 452/802/156 449/796/156
f 451/794/157 453/803/157 450/798/157
f 452/799/158 455/804/158 454/800/158
f 453/795/159 456/806/159 455/801/159
f 454/800/160 456/915/160 453/803/160
f 455/804/161 458/810/161 457/805/161
f 456/806/162 459/812/162 458/807/162
f 457/808/163 459/812/163 456/806/163
f 458/810/164 461/815/164 460/811/164
f 459/812/165 462/821/165 461/813/165
f 460/814/166 462/821/166 459/812/166
f 461/815/167 464/822/167 463/816/167
f 462/817/168 465/824/168 464/818/168
f 463/820/169 465/827/169 462/821/169
f 464/822/170 467/916/170 466/823/170
f 465/824/171 468/830/171 467/825/171
f 466/826/172 468/917/172 465/827/172
f 467/828/173 470/834/173 469/829/173
f 468/830/174 471/836/174 470/831/174
f 469/832/175 471/839/175 468/833/175
f 470/834/176 473/840/176 472/835/176
f 471/836/177 474/918/177 473/837/177
f 472/838/178 474/845/178 471/839/178
f 473/840/179 476/843/179 475/841/179
f 474/842/180 477/849/180 476/843/180
f 475/844/181 477/850/181 474/845/181
f 476/846/182 479/851/182 478/847/182
f 480/848/183 479/854/183 476/843/183
f 478/847/184 480/855/184 477/850/184
f 479/851/185 482/856/185 481/852/185
f 483/853/186 482/859/186 479/854/186
f 481/852/187 483/860/187 480/855/187
f 482/856/188 485/861/188 484/857/188
f 483/853/189 486/919/189 485/858/189
f 484/857/190 486/920/190 483/860/190
f 485/861/191 488/868/191 487/862/191
f 486/863/192 489/870/192 488/864/192
f 487/866/193 489/870/193 486/863/193
f 488/868/194 491/873/194 490/869/194
f 489/870/195 492/875/195 491/871/195
f 490/872/196 492/875/196 489/870/196
f 491/873/197 494/878/197 493/874/197
f 492/875/198 495/884/198 494/876/198
f 493/877/199 495/884/199 492/875/199
f 494/878/200 497/921/200 496/879/200
f 495/880/201 498/887/201 497/881/201
f 496/883/202 498/922/202 495/884/202
f 497/881/203 500/888/203 499/885/203
f 498/887/204 501/892/204 500/888/204
f 499/889/205 501/895/205 498/890/205
f 500/888/206 503/893/206 502/891/206
f 501/892/207 504/898/207 503/893/207
f 502/894/208 504/900/208 501/895/208
f 503/896/209 506/901/209 505/897/209
f 504/898/210 507/923/210 506/899/210
f 505/897/211 507/906/211 504/900/211
f 506/901/212 509/907/212 508/902/212
f 510/903/213 509/908/213 506/904/213
f 508/902/214 510/909/214 507/906/214
f 509/907/215 422/741/215 421/743/215
f 423/744/216 422/746/216 509/908/216
f 421/743/217 423/747/217 510/909/217
