# Blender 5.1.2
# www.blender.org
o Cylinder
v -34.127377 78.896759 -219.133163
v -36.921406 80.018372 -220.364120
v -36.921406 78.395996 -217.544937
v -33.721786 82.320190 -217.305878
v -36.449036 83.943878 -218.016922
v -36.097328 82.555573 -215.096512
v -32.696095 85.044601 -216.377808
v -34.960087 87.380013 -216.384216
v -33.831963 86.216309 -213.564117
v -31.365265 86.778465 -216.273636
v -32.454990 89.843124 -216.291077
v -30.730459 88.744598 -213.761429
v -29.588356 87.629219 -217.100571
v -29.590595 90.799873 -217.826370
v -27.628643 89.667130 -215.492386
v -27.777767 87.428535 -218.719940
v -26.992737 90.144661 -220.328140
v -25.030783 89.011917 -217.994141
v -26.524565 86.383865 -220.390121
v -25.139252 87.916695 -222.902313
v -23.325647 86.972458 -220.372681
v -26.073112 84.797691 -221.650345
v -24.490463 84.399864 -224.464035
v -22.918596 84.004730 -221.643936
v -26.666378 82.440414 -222.086670
v -25.274757 80.500839 -224.296005
v -23.896599 80.890404 -221.375626
v -28.428295 79.770126 -221.102615
v -27.464960 77.100044 -222.690857
v -26.059944 77.911224 -219.871674
v -31.108410 77.567650 -219.133163
v -30.682728 74.587143 -220.364120
v -29.277710 75.398331 -217.544937
v -34.275970 76.207184 -217.305878
v -34.318508 73.033470 -218.016922
v -33.292057 74.032219 -215.096512
v -37.148235 75.733261 -216.377808
v -38.038757 72.604881 -216.384216
v -37.595020 74.163719 -213.564117
v -39.315231 76.018852 -216.273636
v -41.424423 73.542793 -216.291077
v -41.335350 75.585548 -213.761429
v -40.940445 77.132324 -217.100571
v -43.685188 75.545067 -217.826370
v -43.685188 77.810532 -215.492386
v -41.671944 78.800690 -218.719940
v -44.416687 78.122482 -220.328140
v -44.416687 80.387955 -217.994141
v -41.393841 80.408318 -220.390121
v -43.413956 80.841637 -222.902313
v -43.503033 82.884377 -220.372681
v -40.245899 81.592377 -221.650345
v -40.692684 83.161926 -224.464035
v -41.136421 84.720757 -221.643936
v -37.907799 82.257248 -222.086670
v -36.923882 84.432205 -224.296005
v -37.950333 85.430939 -221.375626
v -34.714302 82.066505 -221.102615
v -32.883610 84.235832 -222.690842
v -34.288628 85.047020 -219.871674
v -31.466843 80.846718 -219.133163
v -29.098494 82.705612 -220.364120
v -30.503510 83.516785 -217.544937
v -28.704866 78.783752 -217.305878
v -25.935089 80.333763 -218.016922
v -27.313246 80.723328 -215.096512
v -26.858301 76.533264 -216.377808
v -23.703783 77.326225 -216.384216
v -25.275650 76.931099 -213.564117
v -26.022133 74.513794 -216.273636
v -22.823215 73.925201 -216.291077
v -24.636824 72.980980 -213.761429
v -26.173828 72.549583 -217.100571
v -23.426842 70.966187 -217.826370
v -25.388796 69.833458 -215.492386
v -27.252920 71.081902 -218.719940
v -25.293207 69.043991 -220.328140
v -27.255159 67.911247 -217.994141
v -28.784225 70.518929 -220.390121
v -28.149420 68.552795 -222.902344
v -29.873953 67.454285 -220.372681
v -30.383619 70.921051 -221.650375
v -31.519485 69.749344 -224.464035
v -32.647614 68.585640 -221.643936
v -32.128456 72.613472 -222.086670
v -34.503990 72.378082 -224.296005
v -34.855698 70.989784 -221.375626
v -33.560028 75.474480 -221.102615
v -36.354061 75.975250 -222.690857
v -36.354061 74.352882 -219.871674
v 0.000000 0.000000 -12.668308
v -0.724374 0.895376 -13.248765
v 0.724374 0.895376 -13.248765
v 0.000000 27.550108 -12.668308
v 0.724374 26.654732 -13.248765
v -0.724374 26.654732 -13.248765
v 12.048278 0.000000 -3.914723
v 12.376481 0.895376 -4.783014
v 12.824169 0.895376 -3.405173
v 12.048278 27.550108 -3.914723
v 12.824169 26.654732 -3.405173
v 12.376481 26.654732 -4.783014
v 7.446245 0.000000 10.248877
v 8.373460 0.895376 10.292700
v 7.201397 0.895376 11.144253
v 7.446245 27.550108 10.248877
v 7.201397 26.654732 11.144253
v 8.373460 26.654732 10.292700
v -7.446245 0.000000 10.248877
v -7.201397 0.895376 11.144253
v -8.373460 0.895376 10.292700
v -7.446245 27.550108 10.248877
v -8.373460 26.654732 10.292700
v -7.201397 26.654732 11.144253
v -12.048278 0.000000 -3.914723
v -12.824169 0.895376 -3.405173
v -12.376481 0.895376 -4.783014
v -12.048278 27.550108 -3.914723
v -12.376481 26.654732 -4.783014
v -12.824169 26.654732 -3.405173
v 21.631668 0.000002 -66.860229
v 20.907291 0.895378 -67.440689
v 22.356043 0.895378 -67.440689
v 21.631668 28.129936 -66.860229
v 22.356045 27.234560 -67.440689
v 20.907293 27.234560 -67.440689
v 33.679943 0.000002 -58.106644
v 34.008148 0.895378 -58.974937
v 34.455837 0.895378 -57.597092
v 33.679943 28.129936 -58.106644
v 34.455837 27.234560 -57.597092
v 34.008148 27.234560 -58.974937
v 29.077911 0.000002 -43.943043
v 30.005129 0.895378 -43.899223
v 28.833065 0.895378 -43.047668
v 29.077911 28.129936 -43.943043
v 28.833065 27.234560 -43.047668
v 30.005129 27.234560 -43.899223
v 14.185423 0.000002 -43.943043
v 14.430271 0.895378 -43.047668
v 13.258208 0.895378 -43.899223
v 14.185423 28.129936 -43.943043
v 13.258208 27.234560 -43.899223
v 14.430271 27.234560 -43.047668
v 9.583393 0.000002 -58.106640
v 8.807500 0.895378 -57.597092
v 9.255188 0.895378 -58.974937
v 9.583393 28.129936 -58.106640
v 9.255189 27.234560 -58.974937
v 8.807500 27.234560 -57.597092
v -52.809010 0.000003 -158.517838
v -53.533382 0.895379 -159.098297
v -52.084637 0.895379 -159.098297
v -52.809010 49.492405 -158.517838
v -52.084637 48.597031 -159.098297
v -53.533382 48.597031 -159.098297
v -40.760735 0.000003 -149.764252
v -40.432529 0.895379 -150.632538
v -39.984840 0.895379 -149.254700
v -40.760735 49.492405 -149.764252
v -39.984840 48.597031 -149.254700
v -40.432529 48.597031 -150.632538
v -45.362770 0.000003 -135.600647
v -44.435551 0.895379 -135.556824
v -45.607613 0.895379 -134.705276
v -45.362770 49.492405 -135.600647
v -45.607613 48.597031 -134.705276
v -44.435551 48.597031 -135.556824
v -60.255253 0.000003 -135.600647
v -60.010414 0.895379 -134.705276
v -61.182468 0.895379 -135.556824
v -60.255253 49.492405 -135.600647
v -61.182468 48.597031 -135.556824
v -60.010414 48.597031 -134.705276
v -64.857285 0.000003 -149.764252
v -65.633179 0.895379 -149.254700
v -65.185486 0.895379 -150.632538
v -64.857285 49.492405 -149.764252
v -65.185486 48.597031 -150.632538
v -65.633179 48.597031 -149.254700
v 48.745796 0.000000 -125.129997
v 48.021423 0.895376 -125.710449
v 49.470173 0.895376 -125.710449
v 48.745796 40.412159 -125.129997
v 49.470173 39.516785 -125.710449
v 48.021423 39.516785 -125.710449
v 60.794075 0.000000 -116.376427
v 61.122276 0.895376 -117.244705
v 61.569969 0.895376 -115.866867
v 60.794075 40.412159 -116.376427
v 61.569969 39.516785 -115.866867
v 61.122276 39.516785 -117.244705
v 56.192039 0.000000 -102.212807
v 57.119255 0.895376 -102.168991
v 55.947193 0.895376 -101.317436
v 56.192039 40.412159 -102.212807
v 55.947193 39.516785 -101.317436
v 57.119255 39.516785 -102.168991
v 41.299553 0.000000 -102.212807
v 41.544399 0.895376 -101.317436
v 40.372337 0.895376 -102.168991
v 41.299553 40.412159 -102.212807
v 40.372337 39.516785 -102.168991
v 41.544399 39.516785 -101.317436
v 36.697521 0.000000 -116.376427
v 35.921627 0.895376 -115.866867
v 36.369320 0.895376 -117.244705
v 36.697521 40.412159 -116.376427
v 36.369320 39.516785 -117.244705
v 35.921631 39.516785 -115.866867
v 40.605862 0.000003 -196.797256
v 39.881485 0.895379 -197.377716
v 41.330235 0.895379 -197.377716
v 40.605862 50.883301 -196.797256
v 41.330235 49.987926 -197.377716
v 39.881485 49.987926 -197.377716
v 52.654137 0.000003 -188.043686
v 52.982338 0.895379 -188.911972
v 53.430027 0.895379 -187.534134
v 52.654137 50.883301 -188.043686
v 53.430031 49.987926 -187.534134
v 52.982338 49.987926 -188.911972
v 48.052101 0.000003 -173.880066
v 48.979317 0.895379 -173.836243
v 47.807259 0.895379 -172.984695
v 48.052101 50.883301 -173.880066
v 47.807259 49.987926 -172.984695
v 48.979321 49.987926 -173.836243
v 33.159618 0.000003 -173.880066
v 33.404461 0.895379 -172.984695
v 32.232399 0.895379 -173.836243
v 33.159618 50.883301 -173.880066
v 32.232403 49.987926 -173.836243
v 33.404461 49.987926 -172.984695
v 28.557585 0.000003 -188.043686
v 27.781689 0.895379 -187.534134
v 28.229382 0.895379 -188.911972
v 28.557585 50.883301 -188.043686
v 28.229382 49.987926 -188.911972
v 27.781693 49.987926 -187.534134
v -69.299553 -0.000002 -38.565891
v -70.023926 0.895374 -39.146347
v -68.575180 0.895374 -39.146347
v -69.299553 54.173424 -38.565891
v -68.575180 53.278046 -39.146347
v -70.023926 53.278046 -39.146347
v -57.251274 -0.000002 -29.812302
v -56.923073 0.895374 -30.680592
v -56.475380 0.895374 -29.302750
v -57.251274 54.173424 -29.812302
v -56.475380 53.278046 -29.302750
v -56.923073 53.278046 -30.680592
v -61.853306 -0.000002 -15.648704
v -60.926090 0.895374 -15.604880
v -62.098145 0.895374 -14.753327
v -61.853306 54.173424 -15.648704
v -62.098145 53.278046 -14.753327
v -60.926090 53.278046 -15.604880
v -76.745796 -0.000002 -15.648704
v -76.500946 0.895374 -14.753327
v -77.673012 0.895374 -15.604880
v -76.745796 54.173424 -15.648704
v -77.673012 53.278046 -15.604878
v -76.500946 53.278046 -14.753327
v -81.347816 -0.000002 -29.812302
v -82.123711 0.895374 -29.302750
v -81.676018 0.895374 -30.680592
v -81.347816 54.173424 -29.812302
v -81.676018 53.278046 -30.680595
v -82.123711 53.278046 -29.302750
v -28.238186 -0.000002 -94.327637
v -28.962563 0.895374 -94.908089
v -27.513813 0.895374 -94.908089
v -28.238186 37.504196 -94.327637
v -27.513811 36.608818 -94.908089
v -28.962563 36.608818 -94.908089
v -16.189911 -0.000002 -85.574051
v -15.861709 0.895374 -86.442345
v -15.414019 0.895374 -85.064499
v -16.189911 37.504196 -85.574051
v -15.414019 36.608818 -85.064499
v -15.861707 36.608818 -86.442345
v -20.791941 -0.000002 -71.410461
v -19.864727 0.895374 -71.366631
v -21.036789 0.895374 -70.515076
v -20.791941 37.504196 -71.410461
v -21.036789 36.608818 -70.515076
v -19.864727 36.608818 -71.366631
v -35.684437 -0.000002 -71.410461
v -35.439587 0.895374 -70.515076
v -36.611649 0.895374 -71.366631
v -35.684437 37.504196 -71.410461
v -36.611649 36.608818 -71.366631
v -35.439587 36.608818 -70.515076
v -40.286457 -0.000002 -85.574051
v -41.062351 0.895374 -85.064499
v -40.614662 0.895374 -86.442345
v -40.286457 37.504196 -85.574051
v -40.614662 36.608818 -86.442345
v -41.062351 36.608818 -85.064499
v 80.949921 -0.000000 -75.681351
v 80.225548 0.895376 -76.261803
v 81.674294 0.895376 -76.261803
v 80.949921 14.498241 -75.681351
v 81.674294 13.602865 -76.261803
v 80.225548 13.602865 -76.261803
v 92.998199 -0.000000 -66.927765
v 93.326401 0.895376 -67.796059
v 93.774094 0.895376 -66.418213
v 92.998199 14.498241 -66.927765
v 93.774086 13.602865 -66.418213
v 93.326401 13.602865 -67.796059
v 88.396164 -0.000000 -52.764164
v 89.323387 0.895376 -52.720341
v 88.151314 0.895376 -51.868786
v 88.396164 14.498241 -52.764164
v 88.151314 13.602865 -51.868786
v 89.323380 13.602865 -52.720341
v 73.503677 -0.000000 -52.764164
v 73.748528 0.895376 -51.868786
v 72.576462 0.895376 -52.720341
v 73.503677 14.498241 -52.764164
v 72.576454 13.602865 -52.720341
v 73.748528 13.602865 -51.868786
v 68.901642 -0.000000 -66.927765
v 68.125755 0.895376 -66.418213
v 68.573441 0.895376 -67.796059
v 68.901642 14.498241 -66.927765
v 68.573441 13.602865 -67.796059
v 68.125748 13.602865 -66.418213
v 0.558933 -0.000002 -151.931793
v -0.165443 0.895374 -152.512253
v 1.283307 0.895374 -152.512253
v 0.558933 38.555439 -151.931793
v 1.283309 37.660061 -152.512253
v -0.165441 37.660061 -152.512253
v 12.607210 -0.000002 -143.178223
v 12.935412 0.895374 -144.046509
v 13.383101 0.895374 -142.668671
v 12.607210 38.555439 -143.178223
v 13.383102 37.660061 -142.668671
v 12.935413 37.660061 -144.046509
v 8.005176 -0.000002 -129.014603
v 8.932391 0.895374 -128.970779
v 7.760331 0.895374 -128.119232
v 8.005176 38.555439 -129.014603
v 7.760331 37.660061 -128.119232
v 8.932393 37.660061 -128.970779
v -6.887310 -0.000002 -129.014603
v -6.642465 0.895374 -128.119232
v -7.814527 0.895374 -128.970779
v -6.887310 38.555439 -129.014603
v -7.814525 37.660061 -128.970779
v -6.642465 37.660061 -128.119232
v -11.489344 -0.000002 -143.178223
v -12.265237 0.895374 -142.668671
v -11.817547 0.895374 -144.046509
v -11.489344 38.555439 -143.178223
v -11.817546 37.660061 -144.046509
v -12.265235 37.660061 -142.668671
v -95.729492 0.000001 -103.042938
v -96.453865 0.895377 -103.623390
v -95.005112 0.895377 -103.623390
v -95.729492 41.776180 -103.042938
v -95.005112 40.880802 -103.623390
v -96.453865 40.880802 -103.623390
v -83.681213 0.000001 -94.289345
v -83.353012 0.895377 -95.157646
v -82.905327 0.895377 -93.779800
v -83.681213 41.776180 -94.289345
v -82.905327 40.880802 -93.779800
v -83.353012 40.880802 -95.157646
v -88.283249 0.000001 -80.125748
v -87.356033 0.895377 -80.081924
v -88.528091 0.895377 -79.230370
v -88.283249 41.776180 -80.125748
v -88.528091 40.880802 -79.230370
v -87.356033 40.880802 -80.081924
v -103.175743 0.000001 -80.125748
v -102.930893 0.895377 -79.230370
v -104.102951 0.895377 -80.081924
v -103.175743 41.776180 -80.125748
v -104.102951 40.880802 -80.081924
v -102.930893 40.880802 -79.230370
v -107.777771 0.000001 -94.289345
v -108.553658 0.895377 -93.779800
v -108.105965 0.895377 -95.157646
v -107.777771 41.776180 -94.289345
v -108.105965 40.880802 -95.157646
v -108.553658 40.880802 -93.779800
v -32.234215 0.000003 -231.682373
v -32.958591 0.895379 -232.262817
v -31.509840 0.895379 -232.262817
v -32.234215 65.473045 -231.682373
v -31.509840 64.577675 -232.262817
v -32.958591 64.577675 -232.262817
v -20.185940 0.000003 -222.928772
v -19.857738 0.895379 -223.797073
v -19.410048 0.895379 -222.419220
v -20.185940 65.473045 -222.928772
v -19.410049 64.577675 -222.419220
v -19.857737 64.577675 -223.797073
v -24.787973 0.000003 -208.765167
v -23.860758 0.895379 -208.721344
v -25.032820 0.895379 -207.869797
v -24.787973 65.473045 -208.765167
v -25.032820 64.577675 -207.869797
v -23.860756 64.577675 -208.721344
v -39.680458 0.000003 -208.765167
v -39.435616 0.895379 -207.869797
v -40.607677 0.895379 -208.721344
v -39.680458 65.473045 -208.765167
v -40.607677 64.577675 -208.721344
v -39.435616 64.577675 -207.869797
v -44.282494 0.000003 -222.928772
v -45.058380 0.895379 -222.419220
v -44.610695 0.895379 -223.797073
v -44.282494 65.473045 -222.928772
v -44.610695 64.577675 -223.797073
v -45.058384 64.577675 -222.419220
v -120.039917 0.000003 -183.523956
v -120.764282 0.895379 -184.104401
v -119.315544 0.895379 -184.104401
v -120.039917 50.883301 -183.523956
v -119.315544 49.987926 -184.104401
v -120.764282 49.987926 -184.104401
v -107.991638 0.000003 -174.770386
v -107.663437 0.895379 -175.638672
v -107.215752 0.895379 -174.260818
v -107.991646 50.883301 -174.770386
v -107.215744 49.987926 -174.260818
v -107.663437 49.987926 -175.638672
v -112.593674 0.000003 -160.606766
v -111.666458 0.895379 -160.562943
v -112.838524 0.895379 -159.711395
v -112.593674 50.883301 -160.606766
v -112.838524 49.987926 -159.711395
v -111.666458 49.987926 -160.562943
v -127.486168 0.000003 -160.606766
v -127.241325 0.895379 -159.711395
v -128.413391 0.895379 -160.562943
v -127.486168 50.883301 -160.606766
v -128.413391 49.987926 -160.562943
v -127.241325 49.987926 -159.711395
v -132.088196 0.000003 -174.770370
v -132.864075 0.895379 -174.260818
v -132.416397 0.895379 -175.638672
v -132.088196 50.883301 -174.770370
v -132.416397 49.987926 -175.638672
v -132.864075 49.987926 -174.260818
v 23.609097 0.000001 -266.121826
v 22.884720 0.895377 -266.702271
v 24.333469 0.895377 -266.702271
v 23.609097 38.555439 -266.121826
v 24.333471 37.660065 -266.702271
v 22.884722 37.660065 -266.702271
v 35.657372 0.000001 -257.368225
v 35.985573 0.895377 -258.236511
v 36.433262 0.895377 -256.858673
v 35.657372 38.555439 -257.368225
v 36.433262 37.660065 -256.858673
v 35.985573 37.660065 -258.236511
v 31.055342 0.000001 -243.204636
v 31.982559 0.895377 -243.160812
v 30.810493 0.895377 -242.309250
v 31.055342 38.555439 -243.204636
v 30.810493 37.660065 -242.309250
v 31.982555 37.660065 -243.160812
v 16.162849 0.000001 -243.204636
v 16.407698 0.895377 -242.309250
v 15.235636 0.895377 -243.160812
v 16.162849 38.555439 -243.204636
v 15.235634 37.660065 -243.160812
v 16.407698 37.660065 -242.309250
v 11.560819 0.000001 -257.368225
v 10.784930 0.895377 -256.858673
v 11.232615 0.895377 -258.236511
v 11.560819 38.555439 -257.368225
v 11.232616 37.660065 -258.236511
v 10.784928 37.660065 -256.858673
v -89.461922 -0.000003 -263.440460
v -90.186295 0.895373 -264.020874
v -88.737541 0.895373 -264.020874
v -89.461922 40.412155 -263.440460
v -88.737541 39.516781 -264.020874
v -90.186295 39.516781 -264.020874
v -77.413643 -0.000003 -254.686844
v -77.085442 0.895373 -255.555145
v -76.637749 0.895373 -254.177292
v -77.413643 40.412155 -254.686844
v -76.637756 39.516781 -254.177292
v -77.085442 39.516781 -255.555145
v -82.015671 -0.000003 -240.523254
v -81.088455 0.895373 -240.479431
v -82.260529 0.895373 -239.627869
v -82.015671 40.412155 -240.523254
v -82.260529 39.516781 -239.627869
v -81.088463 39.516781 -240.479431
v -96.908165 -0.000003 -240.523254
v -96.663315 0.895373 -239.627869
v -97.835373 0.895373 -240.479431
v -96.908165 40.412155 -240.523254
v -97.835381 39.516781 -240.479431
v -96.663315 39.516781 -239.627869
v -101.510201 -0.000003 -254.686844
v -102.286087 0.895373 -254.177292
v -101.838394 0.895373 -255.555145
v -101.510201 40.412155 -254.686844
v -101.838394 39.516781 -255.555145
v -102.286087 39.516781 -254.177292
vn 0.4939 0.3632 -0.7901
vn -0.9947 0.0891 0.0512
vn 0.5005 -0.4531 0.7377
vn 0.3482 0.1822 -0.9196
vn -0.9265 0.2842 0.2467
vn 0.5839 -0.4500 0.6757
vn 0.0361 0.0323 -0.9988
vn -0.6172 0.6089 0.4982
vn 0.6727 -0.5463 0.4991
vn -0.3643 -0.1348 -0.9215
vn -0.0666 0.8978 0.4353
vn 0.5444 -0.7218 0.4273
vn -0.6675 -0.1666 -0.7257
vn 0.3659 0.9202 0.1390
vn 0.3764 -0.7693 0.5162
vn -0.8235 -0.0933 -0.5596
vn 0.6425 0.7452 -0.1784
vn 0.2491 -0.7260 0.6410
vn -0.8947 0.0925 -0.4369
vn 0.8231 0.3153 -0.4724
vn 0.1061 -0.5999 0.7930
vn -0.8136 0.2972 -0.4997
vn 0.8152 -0.2987 -0.4962
vn -0.0450 -0.1709 0.9843
vn -0.7181 0.2321 -0.6561
vn 0.7180 -0.6487 -0.2523
vn -0.0343 0.3654 0.9302
vn -0.6749 0.1819 -0.7151
vn 0.5870 -0.8074 -0.0602
vn 0.0732 0.6138 0.7861
vn -0.5615 0.2461 -0.7901
vn 0.4202 -0.9060 0.0512
vn 0.1421 0.6600 0.7377
vn -0.3318 0.2105 -0.9196
vn 0.2171 -0.9445 0.2467
vn 0.0978 0.7306 0.6757
vn -0.0460 0.0151 -0.9988
vn -0.2187 -0.8390 0.4982
vn 0.1368 0.8557 0.4991
vn 0.2989 -0.2481 -0.9215
vn -0.7443 -0.5066 0.4353
vn 0.3529 0.8324 0.4273
vn 0.4780 -0.4948 -0.7257
vn -0.9799 -0.1432 0.1390
vn 0.4780 0.7106 0.5162
vn 0.4926 -0.6665 -0.5596
vn -0.9666 0.1838 -0.1784
vn 0.5042 0.5787 0.6410
vn 0.3673 -0.8211 -0.4369
vn -0.6845 0.5552 -0.4724
vn 0.4665 0.3918 0.7930
vn 0.1494 -0.8532 -0.4997
vn -0.1489 0.8553 -0.4962
vn 0.1705 0.0465 0.9843
vn 0.1581 -0.7380 -0.6561
vn 0.2028 0.9462 -0.2523
vn -0.2993 -0.2124 0.9302
vn 0.1800 -0.6754 -0.7151
vn 0.4057 0.9120 -0.0602
vn -0.5682 -0.2435 0.7861
vn 0.0676 -0.6093 -0.7901
vn 0.5745 0.8169 0.0513
vn -0.6426 -0.2069 0.7377
vn -0.0163 -0.3926 -0.9196
vn 0.7094 0.6602 0.2467
vn -0.6816 -0.2806 0.6757
vn 0.0099 -0.0474 -0.9988
vn 0.8360 0.2301 0.4982
vn -0.8095 -0.3094 0.4991
vn 0.0654 0.3829 -0.9215
vn 0.8108 -0.3913 0.4353
vn -0.8973 -0.1106 0.4273
vn 0.1895 0.6614 -0.7257
vn 0.6139 -0.7770 0.1390
vn -0.8545 0.0587 0.5162
vn 0.3310 0.7598 -0.5596
vn 0.3241 -0.9290 -0.1784
vn -0.7533 0.1473 0.6410
vn 0.5275 0.7286 -0.4369
vn -0.1385 -0.8704 -0.4724
vn -0.5725 0.2081 0.7930
vn 0.6642 0.5560 -0.4997
vn -0.6663 -0.5566 -0.4962
vn -0.1255 0.1244 0.9843
vn 0.5600 0.5059 -0.6561
vn -0.9208 -0.2974 -0.2523
vn 0.3336 -0.1530 0.9302
vn 0.4950 0.4936 -0.7151
vn -0.9927 -0.1046 -0.0602
vn 0.4950 -0.3703 0.7861
vn -0.0000 -0.5440 -0.8391
vn -0.0000 0.5440 -0.8391
vn 0.7980 -0.5440 -0.2593
vn 0.7980 0.5440 -0.2593
vn 0.4932 -0.5440 0.6788
vn 0.4932 0.5440 0.6788
vn -0.4932 -0.5440 0.6788
vn -0.4932 0.5440 0.6788
vn -0.7980 -0.5440 -0.2593
vn -0.7980 0.5440 -0.2593
vn 0.4932 -0.5440 0.6789
vn 0.4932 0.5440 0.6789
vn -0.4932 -0.5440 0.6789
vn -0.4932 0.5440 0.6789
vn 0.4932 -0.5439 0.6789
vn 0.4156 -0.7071 -0.5721
vn 0.4156 0.7071 -0.5721
vn -0.0000 -0.0000 -1.0000
vn 0.9511 -0.0000 -0.3090
vn 0.6725 -0.7071 0.2185
vn 0.6725 0.7071 0.2185
vn 0.5878 -0.0000 0.8090
vn -0.0000 -0.7071 0.7071
vn -0.0000 0.7071 0.7071
vn -0.5878 -0.0000 0.8090
vn -0.6725 -0.7071 0.2185
vn -0.6725 0.7071 0.2185
vn -0.9511 -0.0000 -0.3090
vn -0.4156 -0.7071 -0.5721
vn -0.4156 0.7071 -0.5721
vn -0.0000 -1.0000 -0.0000
vn 0.5878 -0.0000 -0.8090
vn -0.5878 -0.0000 -0.8090
vn -0.0000 1.0000 -0.0000
vn 0.9511 -0.0000 0.3090
vn -0.0000 -0.0000 1.0000
vn -0.9511 -0.0000 0.3090
vn 0.4534 0.4166 -0.7879
vn -0.9815 0.0976 0.1646
vn 0.5631 -0.4992 0.6586
vn 0.3080 0.2961 -0.9041
vn -0.8275 0.3185 0.4624
vn 0.6260 -0.5973 0.5014
vn 0.0317 0.0056 -0.9995
vn -0.4803 0.6363 0.6037
vn 0.5950 -0.6990 0.3967
vn -0.4087 -0.2039 -0.8896
vn -0.0162 0.8941 0.4475
vn 0.4658 -0.7791 0.4196
vn -0.7054 -0.1990 -0.6803
vn 0.3133 -0.7871 0.5314
vn -0.8455 -0.0966 -0.5252
vn 0.6420 0.7447 -0.1823
vn 0.1262 -0.7066 0.6963
vn -0.8663 0.0604 -0.4958
vn 0.8404 0.3418 -0.4205
vn -0.1033 -0.4036 0.9091
vn -0.7828 0.1313 -0.6083
vn 0.8965 -0.1974 -0.3967
vn -0.1729 0.1383 0.9752
vn -0.7204 0.1437 -0.6785
vn 0.7726 -0.5981 -0.2130
vn -0.0684 0.4887 0.8697
vn -0.6715 0.1989 -0.7138
vn 0.0707 0.6274 0.7755
vn -0.5875 0.1844 -0.7879
vn 0.4063 -0.8988 0.1646
vn 0.1508 0.7372 0.6586
vn -0.4105 0.1187 -0.9041
vn 0.1379 -0.8759 0.4624
vn 0.2043 0.8407 0.5014
vn -0.0207 0.0246 -0.9995
vn -0.3109 -0.7341 0.6037
vn 0.3078 0.8648 0.3967
vn 0.3810 -0.2520 -0.8896
vn -0.7662 -0.4611 0.4475
vn 0.4418 0.7930 0.4196
vn 0.5250 -0.5114 -0.6803
vn 0.5250 0.6648 0.5314
vn 0.5064 -0.6839 -0.5252
vn -0.9659 0.1836 -0.1823
vn 0.5488 0.4626 0.6963
vn 0.3809 -0.7804 -0.4958
vn -0.7162 0.5569 -0.4205
vn 0.4012 0.1123 0.9091
vn 0.2777 -0.7435 -0.6083
vn -0.2773 0.8751 -0.3967
vn -0.0333 -0.2189 0.9752
vn 0.2358 -0.6957 -0.6785
vn 0.1317 0.9681 -0.2130
vn -0.3891 -0.3036 0.8697
vn 0.1635 -0.6810 -0.7138
vn -0.5787 -0.2525 0.7755
vn 0.1340 -0.6010 -0.7879
vn 0.5753 0.8012 0.1646
vn -0.7139 -0.2380 0.6586
vn 0.1024 -0.4148 -0.9041
vn 0.6896 0.5574 0.4624
vn -0.8302 -0.2435 0.5014
vn -0.0110 -0.0302 -0.9995
vn 0.7912 0.0978 0.6037
vn -0.9029 -0.1658 0.3967
vn 0.0277 0.4559 -0.8896
vn 0.7824 -0.4330 0.4475
vn -0.9076 -0.0139 0.4196
vn 0.1804 0.7103 -0.6804
vn 0.6140 -0.7770 0.1390
vn -0.8382 0.1222 0.5314
vn 0.3391 0.7805 -0.5252
vn 0.3239 -0.9283 -0.1823
vn -0.6750 0.2440 0.6963
vn 0.4854 0.7201 -0.4958
vn -0.1242 -0.8987 -0.4205
vn -0.2979 0.2913 0.9091
vn 0.5051 0.6123 -0.6083
vn -0.6192 -0.6776 -0.3967
vn 0.2063 0.0806 0.9752
vn 0.4846 0.5520 -0.6785
vn -0.9043 -0.3701 -0.2130
vn 0.4575 -0.1851 0.8697
vn 0.5080 0.4821 -0.7138
vn 0.5080 -0.3750 0.7755
vt 0.000000 0.000000
vt 0.750000 0.470717
vt 0.737379 0.480831
vt 0.762621 0.480831
vt 0.250000 0.470717
vt 0.262621 0.480831
vt 0.237379 0.480831
vt 0.959915 0.318205
vt 0.965633 0.333334
vt 0.973433 0.309328
vt 0.459915 0.318205
vt 0.473433 0.309328
vt 0.465633 0.333334
vt 0.879735 0.071436
vt 0.895889 0.070672
vt 0.875468 0.055836
vt 0.379734 0.071436
vt 0.375468 0.055836
vt 0.395889 0.070672
vt 0.620266 0.071436
vt 0.624532 0.055836
vt 0.604111 0.070672
vt 0.120266 0.071436
vt 0.104111 0.070672
vt 0.124532 0.055836
vt 0.540085 0.318205
vt 0.526567 0.309328
vt 0.534367 0.333334
vt 0.040085 0.318205
vt 0.034367 0.333334
vt 0.026567 0.309328
vt 0.008034 0.500000
vt 0.011058 0.515915
vt 0.000000 0.515915
vt 0.008034 1.000000
vt 0.000000 0.984085
vt 0.011058 0.984085
vt 0.802678 0.500000
vt 0.811058 0.515915
vt 0.791706 0.515915
vt 0.802678 1.000000
vt 0.791706 0.984085
vt 0.811058 0.984085
vt 0.597322 0.500000
vt 0.608294 0.515915
vt 0.588942 0.515915
vt 0.597322 1.000000
vt 0.588942 0.984085
vt 0.608294 0.984085
vt 0.397322 0.500000
vt 0.408294 0.515915
vt 0.388942 0.515915
vt 0.397322 1.000000
vt 0.388942 0.984085
vt 0.408294 0.984085
vt 0.202678 0.500000
vt 0.211058 0.515915
vt 0.191706 0.515915
vt 0.202678 1.000000
vt 0.191706 0.984085
vt 0.211058 0.984085
vt 0.008035 0.500000
vt 0.011058 0.509046
vt 0.000000 0.509046
vt 0.008035 1.000000
vt 0.000000 0.990954
vt 0.011058 0.990954
vt 0.802678 0.500000
vt 0.811058 0.509046
vt 0.791706 0.509046
vt 0.802678 1.000000
vt 0.791706 0.990954
vt 0.811058 0.990954
vt 0.597322 0.500000
vt 0.608294 0.509046
vt 0.588942 0.509046
vt 0.597322 1.000000
vt 0.588942 0.990954
vt 0.608294 0.990954
vt 0.397322 0.500000
vt 0.408294 0.509046
vt 0.388942 0.509046
vt 0.397322 1.000000
vt 0.388941 0.990954
vt 0.408294 0.990954
vt 0.202678 0.500000
vt 0.211058 0.509046
vt 0.191706 0.509046
vt 0.202678 1.000000
vt 0.191706 0.990954
vt 0.211058 0.990954
vt 0.008035 0.500000
vt 0.011059 0.511078
vt 0.000000 0.511078
vt 0.008035 1.000000
vt 0.000000 0.988922
vt 0.011059 0.988922
vt 0.811058 0.511078
vt 0.791706 0.511078
vt 0.791706 0.988922
vt 0.811058 0.988922
vt 0.608294 0.511078
vt 0.588942 0.511078
vt 0.597322 1.000000
vt 0.588942 0.988922
vt 0.608294 0.988922
vt 0.397322 0.500000
vt 0.408294 0.511078
vt 0.388942 0.511078
vt 0.397322 1.000000
vt 0.388942 0.988922
vt 0.408294 0.988922
vt 0.202678 0.500000
vt 0.211058 0.511078
vt 0.191706 0.511078
vt 0.202678 1.000000
vt 0.191706 0.988922
vt 0.211058 0.988922
vt 0.008035 0.500000
vt 0.011059 0.508798
vt 0.000000 0.508798
vt 0.000000 0.991202
vt 0.011059 0.991202
vt 0.802678 0.500000
vt 0.811059 0.508798
vt 0.791706 0.508798
vt 0.802678 1.000000
vt 0.791706 0.991202
vt 0.811059 0.991202
vt 0.608294 0.508798
vt 0.588942 0.508798
vt 0.588942 0.991202
vt 0.608294 0.991202
vt 0.397322 0.500000
vt 0.408294 0.508798
vt 0.388942 0.508798
vt 0.397322 1.000000
vt 0.388942 0.991202
vt 0.408294 0.991202
vt 0.202678 0.500000
vt 0.211058 0.508798
vt 0.191706 0.508798
vt 0.202678 1.000000
vt 0.191706 0.991202
vt 0.211058 0.991202
vt 0.008035 0.500000
vt 0.011059 0.508264
vt 0.000000 0.508264
vt 0.000000 0.991736
vt 0.011059 0.991736
vt 0.811059 0.508264
vt 0.791706 0.508264
vt 0.791706 0.991736
vt 0.811058 0.991736
vt 0.608294 0.508264
vt 0.588942 0.508264
vt 0.597322 1.000000
vt 0.588942 0.991736
vt 0.608294 0.991736
vt 0.408294 0.508264
vt 0.388942 0.508264
vt 0.397322 1.000000
vt 0.388942 0.991736
vt 0.408294 0.991736
vt 0.211058 0.508264
vt 0.191706 0.508264
vt 0.202678 1.000000
vt 0.191706 0.991736
vt 0.211058 0.991736
vt 0.008034 0.500000
vt 0.011059 0.511937
vt 0.000000 0.511937
vt 0.008034 1.000000
vt 0.000000 0.988063
vt 0.011059 0.988063
vt 0.811058 0.511937
vt 0.791706 0.511937
vt 0.791706 0.988063
vt 0.811058 0.988063
vt 0.597322 0.500000
vt 0.608294 0.511937
vt 0.588942 0.511937
vt 0.597322 1.000000
vt 0.588942 0.988063
vt 0.608294 0.988063
vt 0.397322 0.500000
vt 0.408294 0.511937
vt 0.388942 0.511937
vt 0.388942 0.988063
vt 0.408294 0.988063
vt 0.211058 0.511937
vt 0.191706 0.511937
vt 0.202678 1.000000
vt 0.191706 0.988063
vt 0.211058 0.988063
vt 0.008034 0.500000
vt 0.011058 0.530879
vt 0.000000 0.530879
vt 0.008034 1.000000
vt 0.000000 0.969121
vt 0.011058 0.969121
vt 0.811058 0.530879
vt 0.791706 0.530879
vt 0.802678 1.000000
vt 0.791706 0.969121
vt 0.811059 0.969121
vt 0.608294 0.530879
vt 0.588941 0.530879
vt 0.588941 0.969121
vt 0.608294 0.969121
vt 0.408294 0.530879
vt 0.388942 0.530879
vt 0.388942 0.969121
vt 0.408294 0.969121
vt 0.202678 0.500000
vt 0.211058 0.530879
vt 0.191706 0.530879
vt 0.191706 0.969121
vt 0.211058 0.969121
vt 0.008035 0.500000
vt 0.011059 0.511612
vt 0.000000 0.511612
vt 0.008034 1.000000
vt 0.000000 0.988388
vt 0.011059 0.988388
vt 0.811058 0.511612
vt 0.791706 0.511612
vt 0.791706 0.988388
vt 0.811058 0.988388
vt 0.608294 0.511612
vt 0.588942 0.511612
vt 0.588942 0.988388
vt 0.608294 0.988388
vt 0.408294 0.511612
vt 0.388942 0.511612
vt 0.388942 0.988388
vt 0.408294 0.988388
vt 0.211058 0.511612
vt 0.191706 0.511612
vt 0.191706 0.988388
vt 0.211058 0.988388
vt 0.011059 0.510716
vt 0.000000 0.510716
vt 0.000000 0.989284
vt 0.011059 0.989284
vt 0.811059 0.510716
vt 0.791706 0.510716
vt 0.791706 0.989284
vt 0.811059 0.989284
vt 0.608294 0.510716
vt 0.588942 0.510716
vt 0.588942 0.989284
vt 0.608294 0.989284
vt 0.408294 0.510716
vt 0.388942 0.510716
vt 0.388942 0.989284
vt 0.408294 0.989284
vt 0.202678 0.500000
vt 0.211058 0.510716
vt 0.191706 0.510716
vt 0.191706 0.989284
vt 0.211058 0.989284
vt 0.008034 0.500000
vt 0.011058 0.506838
vt 0.000000 0.506838
vt 0.008034 1.000000
vt 0.000000 0.993162
vt 0.011058 0.993162
vt 0.811059 0.506838
vt 0.791706 0.506838
vt 0.791706 0.993162
vt 0.811059 0.993162
vt 0.608294 0.506838
vt 0.588942 0.506838
vt 0.588942 0.993162
vt 0.608294 0.993162
vt 0.408294 0.506838
vt 0.388942 0.506838
vt 0.388941 0.993162
vt 0.408294 0.993162
vt 0.202678 0.500000
vt 0.211059 0.506838
vt 0.191706 0.506838
vt 0.202678 1.000000
vt 0.191706 0.993162
vt 0.211059 0.993162
vt 0.008034 0.500000
vt 0.011058 0.508798
vt 0.011058 0.991202
vt 0.811059 0.508798
vt 0.791706 0.991202
vt 0.811059 0.991202
vt 0.608294 0.508798
vt 0.588942 0.508798
vt 0.588942 0.991202
vt 0.388942 0.508798
vt 0.388941 0.991202
vt 0.408294 0.991202
vt 0.202678 0.500000
vt 0.211059 0.508798
vt 0.191706 0.508798
vt 0.202678 1.000000
vt 0.191706 0.991202
vt 0.211059 0.991202
vt 0.008034 0.500000
vt 0.011059 0.511612
vt 0.008035 1.000000
vt 0.011059 0.988388
vt 0.811059 0.511612
vt 0.791706 0.511612
vt 0.791706 0.988389
vt 0.811059 0.988388
vt 0.597322 0.500000
vt 0.608294 0.511612
vt 0.597322 1.000000
vt 0.608294 0.988388
vt 0.397322 0.500000
vt 0.388941 0.511612
vt 0.397322 1.000000
vt 0.388941 0.988388
vt 0.408294 0.988388
vt 0.202678 0.500000
vt 0.211059 0.511612
vt 0.191706 0.511612
vt 0.191706 0.988389
vt 0.211059 0.988388
vt 0.750000 0.470718
vt 0.737379 0.480831
vt 0.762621 0.480831
vt 0.008034 1.000000
vt 0.011058 0.988922
vt 0.959915 0.318205
vt 0.973433 0.309328
vt 0.791706 0.988922
vt 0.811059 0.988922
vt 0.879734 0.071436
vt 0.895889 0.070673
vt 0.875468 0.055836
vt 0.608294 0.988922
vt 0.620266 0.071436
vt 0.604111 0.070672
vt 0.397322 1.000000
vt 0.388942 0.988922
vt 0.540085 0.318205
vt 0.526567 0.309327
vt 0.534367 0.333334
vt 0.202678 1.000000
vt 0.191706 0.988922
vt 0.211058 0.988922
vt 0.011058 0.983750
vt 0.000000 0.516250
vt 0.011058 0.516250
vt 0.788942 0.516250
vt 0.811058 0.983750
vt 0.788942 0.983750
vt 0.588942 0.516250
vt 0.611058 0.983750
vt 0.588942 0.983750
vt 0.388942 0.516250
vt 0.411058 0.983750
vt 0.388942 0.983750
vt 0.188942 0.516250
vt 0.211058 0.983750
vt 0.188942 0.983750
vt 0.991966 0.500000
vt 0.988941 0.515915
vt 0.988942 0.984085
vt 0.988942 0.509046
vt 0.988942 0.990954
vt 0.988941 0.511078
vt 0.991966 0.500000
vt 0.988941 0.988922
vt 0.988942 0.508798
vt 0.988942 0.991202
vt 0.988942 0.508264
vt 0.991966 1.000000
vt 0.988941 0.511937
vt 0.988941 0.988063
vt 0.991966 0.500000
vt 0.988941 0.530879
vt 0.988941 0.969121
vt 0.988941 0.511612
vt 0.991965 0.500000
vt 0.988941 0.988388
vt 0.988941 0.510716
vt 0.991966 1.000000
vt 0.988941 0.506838
vt 0.988941 0.993162
vt 0.988942 0.508798
vt 0.988941 0.991202
vt 0.988942 0.511612
vt 0.991966 0.500000
vt 0.988942 0.988388
vt 0.991966 1.000000
vt 0.011058 0.511078
vt 0.788942 0.511078
vt 0.388942 0.511078
vt 0.188941 0.511078
vt 0.988941 0.983750
vt 0.811058 0.516250
vt 0.988941 0.516250
vt 0.611058 0.516250
vt 0.411058 0.516250
vt 0.211058 0.516250
vt 0.959915 0.318206
vt 0.540085 0.318205
vt 0.379734 0.071436
vt 0.959915 0.318206
vt 0.620266 0.071436
vt 0.540085 0.318206
vt 0.250000 0.470717
vt 0.120266 0.071436
vt 0.379734 0.071436
vt 0.959915 0.318206
vt 0.540085 0.318206
vt 0.250000 0.470717
vt 0.120266 0.071436
vt 0.379734 0.071436
vt 0.959915 0.318206
vt 0.620266 0.071436
vt 0.120266 0.071436
vt 0.959915 0.318205
vt 0.988942 0.991736
vt 0.120266 0.071436
vt 0.379734 0.071436
vt 0.959915 0.318205
vt 0.620266 0.071436
vt 0.540085 0.318205
vt 0.120266 0.071436
vt 0.379734 0.071436
vt 0.620266 0.071436
vt 0.120266 0.071436
vt 0.379734 0.071436
vt 0.959915 0.318206
vt 0.620266 0.071436
vt 0.120266 0.071436
vt 0.379734 0.071436
vt 0.959915 0.318205
vt 0.620266 0.071436
vt 0.988942 0.989284
vt 0.120266 0.071436
vt 0.379734 0.071436
vt 0.959915 0.318205
vt 0.250000 0.470718
vt 0.379734 0.071436
vt 0.959915 0.318206
vt 0.620265 0.071436
vt 0.540085 0.318205
vt 0.120266 0.071436
vt 0.379734 0.071436
vt 0.120266 0.071436
vt 0.379734 0.071436
vt 0.988942 0.988922
vt 0.811059 0.511078
vt 0.988942 0.511078
vt 0.611058 0.511078
vt 0.411058 0.511078
vt 0.211058 0.511078
vt 0.000000 0.983750
vt 0.991966 1.000000
vt 0.991965 1.000000
vt 0.879734 0.071436
vt 0.459915 0.318206
vt 0.040085 0.318205
vt 0.750000 0.470717
vt 0.879734 0.071436
vt 0.459915 0.318206
vt 0.040085 0.318206
vt 0.750000 0.470717
vt 0.879734 0.071436
vt 0.459915 0.318206
vt 0.040085 0.318206
vt 0.459915 0.318206
vt 0.879734 0.071436
vt 0.459915 0.318205
vt 0.040085 0.318205
vt 0.879735 0.071436
vt 0.459915 0.318205
vt 0.040085 0.318205
vt 0.459915 0.318205
vt 0.040085 0.318205
vt 0.879734 0.071436
vt 0.040085 0.318206
vt 0.750000 0.470717
vt 0.879734 0.071436
vt 0.459915 0.318205
vt 0.040085 0.318205
vt 0.459915 0.318205
vt 0.040085 0.318205
vt 0.879734 0.071436
vt 0.459915 0.318206
vt 0.040085 0.318205
vt 0.040085 0.318205
vt 0.459915 0.318205
vt 0.040085 0.318205
s 0
f 2/1/1 4/1/1 1/1/1
f 3/1/2 5/1/2 2/1/2
f 4/1/3 3/1/3 1/1/3
f 5/1/4 7/1/4 4/1/4
f 6/1/5 8/1/5 5/1/5
f 7/1/6 6/1/6 4/1/6
f 8/1/7 10/1/7 7/1/7
f 9/1/8 11/1/8 8/1/8
f 10/1/9 9/1/9 7/1/9
f 11/1/10 13/1/10 10/1/10
f 12/1/11 14/1/11 11/1/11
f 13/1/12 12/1/12 10/1/12
f 14/1/13 16/1/13 13/1/13
f 15/1/14 17/1/14 14/1/14
f 16/1/15 15/1/15 13/1/15
f 17/1/16 19/1/16 16/1/16
f 21/1/17 17/1/17 18/1/17
f 19/1/18 18/1/18 16/1/18
f 20/1/19 22/1/19 19/1/19
f 24/1/20 20/1/20 21/1/20
f 22/1/21 21/1/21 19/1/21
f 23/1/22 25/1/22 22/1/22
f 27/1/23 23/1/23 24/1/23
f 25/1/24 24/1/24 22/1/24
f 26/1/25 28/1/25 25/1/25
f 30/1/26 26/1/26 27/1/26
f 28/1/27 27/1/27 25/1/27
f 29/1/28 31/1/28 28/1/28
f 33/1/29 29/1/29 30/1/29
f 31/1/30 30/1/30 28/1/30
f 32/1/31 34/1/31 31/1/31
f 33/1/32 35/1/32 32/1/32
f 34/1/33 33/1/33 31/1/33
f 35/1/34 37/1/34 34/1/34
f 36/1/35 38/1/35 35/1/35
f 37/1/36 36/1/36 34/1/36
f 38/1/37 40/1/37 37/1/37
f 39/1/38 41/1/38 38/1/38
f 40/1/39 39/1/39 37/1/39
f 41/1/40 43/1/40 40/1/40
f 42/1/41 44/1/41 41/1/41
f 43/1/42 42/1/42 40/1/42
f 44/1/43 46/1/43 43/1/43
f 48/1/44 44/1/44 45/1/44
f 46/1/45 45/1/45 43/1/45
f 47/1/46 49/1/46 46/1/46
f 51/1/47 47/1/47 48/1/47
f 49/1/48 48/1/48 46/1/48
f 50/1/49 52/1/49 49/1/49
f 54/1/50 50/1/50 51/1/50
f 52/1/51 51/1/51 49/1/51
f 53/1/52 55/1/52 52/1/52
f 57/1/53 53/1/53 54/1/53
f 55/1/54 54/1/54 52/1/54
f 56/1/55 58/1/55 55/1/55
f 60/1/56 56/1/56 57/1/56
f 58/1/57 57/1/57 55/1/57
f 59/1/58 61/1/58 58/1/58
f 60/1/59 62/1/59 59/1/59
f 61/1/60 60/1/60 58/1/60
f 62/1/61 64/1/61 61/1/61
f 63/1/62 65/1/62 62/1/62
f 64/1/63 63/1/63 61/1/63
f 65/1/64 67/1/64 64/1/64
f 66/1/65 68/1/65 65/1/65
f 67/1/66 66/1/66 64/1/66
f 68/1/67 70/1/67 67/1/67
f 69/1/68 71/1/68 68/1/68
f 70/1/69 69/1/69 67/1/69
f 71/1/70 73/1/70 70/1/70
f 72/1/71 74/1/71 71/1/71
f 73/1/72 72/1/72 70/1/72
f 74/1/73 76/1/73 73/1/73
f 78/1/74 74/1/74 75/1/74
f 76/1/75 75/1/75 73/1/75
f 77/1/76 79/1/76 76/1/76
f 81/1/77 77/1/77 78/1/77
f 79/1/78 78/1/78 76/1/78
f 80/1/79 82/1/79 79/1/79
f 84/1/80 80/1/80 81/1/80
f 82/1/81 81/1/81 79/1/81
f 83/1/82 85/1/82 82/1/82
f 87/1/83 83/1/83 84/1/83
f 85/1/84 84/1/84 82/1/84
f 86/1/85 88/1/85 85/1/85
f 90/1/86 86/1/86 87/1/86
f 88/1/87 87/1/87 85/1/87
f 89/1/88 1/1/88 88/1/88
f 90/1/89 2/1/89 89/1/89
f 1/1/90 90/1/90 88/1/90
f 91/2/91 92/3/91 93/4/91
f 94/5/92 95/6/92 96/7/92
f 97/8/93 98/9/93 99/10/93
f 100/11/94 101/12/94 102/13/94
f 103/14/95 104/15/95 105/16/95
f 106/17/96 107/18/96 108/19/96
f 109/20/97 110/21/97 111/22/97
f 112/23/98 113/24/98 114/25/98
f 115/26/99 116/27/99 117/28/99
f 118/29/100 119/30/100 120/31/100
f 121/32/91 122/33/91 123/34/91
f 124/35/92 125/36/92 126/37/92
f 127/38/93 128/39/93 129/40/93
f 130/41/94 131/42/94 132/43/94
f 133/44/95 134/45/95 135/46/95
f 136/47/96 137/48/96 138/49/96
f 139/50/97 140/51/97 141/52/97
f 142/53/98 143/54/98 144/55/98
f 145/56/99 146/57/99 147/58/99
f 148/59/100 149/60/100 150/61/100
f 151/62/91 152/63/91 153/64/91
f 154/65/92 155/66/92 156/67/92
f 157/68/93 158/69/93 159/70/93
f 160/71/94 161/72/94 162/73/94
f 163/74/95 164/75/95 165/76/95
f 166/77/96 167/78/96 168/79/96
f 169/80/97 170/81/97 171/82/97
f 172/83/98 173/84/98 174/85/98
f 175/86/99 176/87/99 177/88/99
f 178/89/100 179/90/100 180/91/100
f 181/92/91 182/93/91 183/94/91
f 184/95/92 185/96/92 186/97/92
f 187/38/93 188/98/93 189/99/93
f 190/41/94 191/100/94 192/101/94
f 193/74/101 194/102/101 195/103/101
f 196/104/102 197/105/102 198/106/102
f 199/107/103 200/108/103 201/109/103
f 202/110/104 203/111/104 204/112/104
f 205/113/99 206/114/99 207/115/99
f 208/116/100 209/117/100 210/118/100
f 211/119/91 212/120/91 213/121/91
f 214/95/92 215/122/92 216/123/92
f 217/124/93 218/125/93 219/126/93
f 220/127/94 221/128/94 222/129/94
f 223/74/95 224/130/95 225/131/95
f 226/104/96 227/132/96 228/133/96
f 229/134/97 230/135/97 231/136/97
f 232/137/98 233/138/98 234/139/98
f 235/140/99 236/141/99 237/142/99
f 238/143/100 239/144/100 240/145/100
f 241/146/91 242/147/91 243/148/91
f 244/65/92 245/149/92 246/150/92
f 247/38/93 248/151/93 249/152/93
f 250/41/94 251/153/94 252/154/94
f 253/44/95 254/155/95 255/156/95
f 256/157/96 257/158/96 258/159/96
f 259/80/97 260/160/97 261/161/97
f 262/162/104 263/163/104 264/164/104
f 265/56/99 266/165/99 267/166/99
f 268/167/100 269/168/100 270/169/100
f 271/170/91 272/171/91 273/172/91
f 274/173/92 275/174/92 276/175/92
f 277/68/93 278/176/93 279/177/93
f 280/71/94 281/178/94 282/179/94
f 283/180/95 284/181/95 285/182/95
f 286/183/96 287/184/96 288/185/96
f 289/186/97 290/187/97 291/188/97
f 292/83/98 293/189/98 294/190/98
f 295/56/99 296/191/99 297/192/99
f 298/193/100 299/194/100 300/195/100
f 301/196/91 302/197/91 303/198/91
f 304/199/92 305/200/92 306/201/92
f 307/68/93 308/202/93 309/203/93
f 310/204/94 311/205/94 312/206/94
f 313/44/95 314/207/95 315/208/95
f 316/47/102 317/209/102 318/210/102
f 319/50/103 320/211/103 321/212/103
f 322/53/98 323/213/98 324/214/98
f 325/215/99 326/216/99 327/217/99
f 328/59/100 329/218/100 330/219/100
f 331/220/91 332/221/91 333/222/91
f 334/223/92 335/224/92 336/225/92
f 337/124/93 338/226/93 339/227/93
f 340/127/94 341/228/94 342/229/94
f 343/44/95 344/230/95 345/231/95
f 346/47/96 347/232/96 348/233/96
f 349/50/97 350/234/97 351/235/97
f 352/162/98 353/236/98 354/237/98
f 355/140/99 356/238/99 357/239/99
f 358/143/100 359/240/100 360/241/100
f 361/196/91 362/242/91 363/243/91
f 364/199/92 365/244/92 366/245/92
f 367/124/93 368/246/93 369/247/93
f 370/127/94 371/248/94 372/249/94
f 373/180/95 374/250/95 375/251/95
f 376/183/96 377/252/96 378/253/96
f 379/186/97 380/254/97 381/255/97
f 382/83/98 383/256/98 384/257/98
f 385/258/99 386/259/99 387/260/99
f 388/167/100 389/261/100 390/262/100
f 391/263/91 392/264/91 393/265/91
f 394/266/92 395/267/92 396/268/92
f 397/68/93 398/269/93 399/270/93
f 400/71/94 401/271/94 402/272/94
f 403/44/101 404/273/101 405/274/101
f 406/47/96 407/275/96 408/276/96
f 409/80/97 410/277/97 411/278/97
f 412/162/98 413/279/98 414/280/98
f 415/281/99 416/282/99 417/283/99
f 418/284/100 419/285/100 420/286/100
f 421/287/91 422/288/91 423/121/91
f 424/35/92 425/122/92 426/289/92
f 427/124/93 428/290/93 429/126/93
f 430/127/94 431/291/94 432/292/94
f 433/44/95 434/293/95 435/294/95
f 436/157/96 437/295/96 438/133/96
f 439/134/97 440/135/97 441/296/97
f 442/162/98 443/297/98 444/298/98
f 445/299/99 446/300/99 447/301/99
f 448/302/100 449/303/100 450/304/100
f 451/305/91 452/306/91 453/222/91
f 454/307/92 455/224/92 456/308/92
f 457/124/93 458/309/93 459/310/93
f 460/41/94 461/311/94 462/312/94
f 463/313/105 464/314/105 465/231/105
f 466/315/96 467/232/96 468/316/96
f 469/317/97 470/234/97 471/318/97
f 472/319/98 473/320/98 474/321/98
f 475/322/99 476/323/99 477/324/99
f 478/116/100 479/325/100 480/326/100
f 481/327/91 482/328/91 483/329/91
f 484/330/92 485/96/92 486/331/92
f 487/332/93 488/9/93 489/333/93
f 490/204/94 491/334/94 492/335/94
f 493/336/95 494/337/95 495/338/95
f 496/47/96 497/105/96 498/339/96
f 499/340/97 500/21/97 501/341/97
f 502/342/98 503/343/98 504/112/98
f 505/344/99 506/345/99 507/346/99
f 508/347/100 509/348/100 510/349/100
f 98/9/106 91/2/106 93/4/106
f 102/13/107 94/5/107 100/11/107
f 96/350/108 93/351/108 92/352/108
f 99/353/109 102/354/109 101/355/109
f 104/15/110 97/8/110 99/10/110
f 101/12/111 106/17/111 108/19/111
f 105/356/112 108/357/112 107/358/112
f 110/21/113 103/14/113 105/16/113
f 107/18/114 112/23/114 114/25/114
f 111/359/115 114/360/115 113/361/115
f 116/27/116 109/20/116 111/22/116
f 113/24/117 118/29/117 120/31/117
f 117/362/118 120/363/118 119/364/118
f 92/3/119 115/26/119 117/28/119
f 119/30/120 94/5/120 96/7/120
f 128/39/106 121/365/106 123/366/106
f 125/367/107 130/41/107 132/43/107
f 122/33/108 125/36/108 123/34/108
f 129/40/109 132/43/109 131/42/109
f 129/40/110 133/44/110 127/38/110
f 131/42/111 136/47/111 138/49/111
f 135/46/112 138/49/112 137/48/112
f 140/51/113 133/44/113 135/46/113
f 144/55/114 136/47/114 142/53/114
f 141/52/115 144/55/115 143/54/115
f 146/57/116 139/50/116 141/52/116
f 143/54/117 148/59/117 150/61/117
f 147/58/118 150/61/118 149/60/118
f 122/33/119 145/56/119 147/58/119
f 149/60/120 124/35/120 126/37/120
f 153/368/106 157/68/106 151/365/106
f 155/369/107 160/71/107 162/73/107
f 156/67/108 153/64/108 152/63/108
f 159/70/109 162/73/109 161/72/109
f 164/75/110 157/68/110 159/70/110
f 161/72/111 166/77/111 168/79/111
f 165/76/112 168/79/112 167/78/112
f 165/76/113 169/80/113 163/74/113
f 167/78/114 172/83/114 174/85/114
f 171/82/115 174/85/115 173/84/115
f 176/87/116 169/80/116 171/82/116
f 180/91/117 172/83/117 178/89/117
f 177/88/118 180/91/118 179/90/118
f 177/88/119 151/62/119 175/86/119
f 179/90/120 154/65/120 156/67/120
f 183/370/106 187/38/106 181/371/106
f 185/372/107 190/41/107 192/101/107
f 186/97/108 183/94/108 182/93/108
f 189/99/109 192/101/109 191/100/109
f 194/102/110 187/38/110 189/99/110
f 198/106/111 190/41/111 196/104/111
f 195/103/112 198/106/112 197/105/112
f 200/108/113 193/74/113 195/103/113
f 197/105/114 202/110/114 204/112/114
f 201/109/115 204/112/115 203/111/115
f 201/109/116 205/113/116 199/107/116
f 203/111/117 208/116/117 210/118/117
f 207/115/118 210/118/118 209/117/118
f 182/93/119 205/113/119 207/115/119
f 186/97/120 208/116/120 184/95/120
f 213/373/106 217/124/106 211/365/106
f 215/374/107 220/127/107 222/129/107
f 216/123/108 213/121/108 212/120/108
f 219/126/109 222/129/109 221/128/109
f 224/130/110 217/124/110 219/126/110
f 228/133/111 220/127/111 226/104/111
f 225/131/112 228/133/112 227/132/112
f 230/135/113 223/74/113 225/131/113
f 227/132/114 232/137/114 234/139/114
f 231/136/115 234/139/115 233/138/115
f 236/141/116 229/134/116 231/136/116
f 240/145/117 232/137/117 238/143/117
f 237/142/118 240/145/118 239/144/118
f 212/120/119 235/140/119 237/142/119
f 239/144/120 214/95/120 216/123/120
f 248/151/106 241/371/106 243/375/106
f 252/154/107 244/376/107 250/41/107
f 246/150/108 243/148/108 242/147/108
f 249/152/109 252/154/109 251/153/109
f 254/155/110 247/38/110 249/152/110
f 258/159/111 250/41/111 256/157/111
f 255/156/112 258/159/112 257/158/112
f 260/160/113 253/44/113 255/156/113
f 264/164/114 256/157/114 262/162/114
f 261/161/115 264/164/115 263/163/115
f 266/165/116 259/80/116 261/161/116
f 270/169/117 262/162/117 268/167/117
f 269/168/118 266/165/118 270/169/118
f 242/147/119 265/56/119 267/166/119
f 269/168/120 244/65/120 246/150/120
f 273/377/106 277/68/106 271/365/106
f 275/378/107 280/71/107 282/179/107
f 276/175/108 273/172/108 272/171/108
f 279/177/109 282/179/109 281/178/109
f 284/181/110 277/68/110 279/177/110
f 281/178/111 286/183/111 288/185/111
f 285/182/112 288/185/112 287/184/112
f 290/187/113 283/180/113 285/182/113
f 287/184/114 292/83/114 294/190/114
f 291/188/115 294/190/115 293/189/115
f 296/191/116 289/186/116 291/188/116
f 300/195/117 292/83/117 298/193/117
f 297/192/118 300/195/118 299/194/118
f 272/171/119 295/56/119 297/192/119
f 276/175/120 298/193/120 274/173/120
f 308/202/106 301/379/106 303/380/106
f 305/381/107 310/204/107 312/206/107
f 306/201/108 303/198/108 302/197/108
f 311/205/109 308/202/109 312/206/109
f 309/203/110 313/44/110 307/68/110
f 311/205/111 316/47/111 318/210/111
f 315/208/112 318/210/112 317/209/112
f 320/211/113 313/44/113 315/208/113
f 317/209/114 322/53/114 324/214/114
f 321/212/115 324/214/115 323/213/115
f 326/216/116 319/50/116 321/212/116
f 323/213/117 328/59/117 330/219/117
f 327/217/118 330/219/118 329/218/118
f 327/217/119 301/196/119 325/215/119
f 329/218/120 304/199/120 306/201/120
f 333/382/106 337/124/106 331/383/106
f 335/384/107 340/127/107 342/229/107
f 336/225/108 333/222/108 332/221/108
f 339/227/109 342/229/109 341/228/109
f 339/227/110 343/44/110 337/124/110
f 341/228/111 346/47/111 348/233/111
f 345/231/112 348/233/112 347/232/112
f 350/234/113 343/44/113 345/231/113
f 347/232/114 352/162/114 354/237/114
f 351/235/115 354/237/115 353/236/115
f 356/238/116 349/50/116 351/235/116
f 360/241/117 352/162/117 358/143/117
f 357/239/118 360/241/118 359/240/118
f 332/221/119 355/140/119 357/239/119
f 336/225/120 358/143/120 334/223/120
f 368/246/106 361/365/106 363/385/106
f 372/249/107 364/386/107 370/127/107
f 366/245/108 363/243/108 362/242/108
f 369/247/109 372/249/109 371/248/109
f 374/250/110 367/124/110 369/247/110
f 371/248/111 376/183/111 378/253/111
f 375/251/112 378/253/112 377/252/112
f 380/254/113 373/180/113 375/251/113
f 377/252/114 382/83/114 384/257/114
f 381/255/115 384/257/115 383/256/115
f 381/255/116 385/258/116 379/186/116
f 383/256/117 388/167/117 390/262/117
f 387/260/118 390/262/118 389/261/118
f 387/260/119 361/196/119 385/258/119
f 389/261/120 364/199/120 366/245/120
f 398/269/106 391/365/106 393/387/106
f 395/388/107 400/71/107 402/272/107
f 396/268/108 393/265/108 392/264/108
f 399/270/109 402/272/109 401/271/109
f 399/270/110 403/44/110 397/68/110
f 401/271/111 406/47/111 408/276/111
f 405/274/112 408/276/112 407/275/112
f 405/274/113 409/80/113 403/44/113
f 407/275/114 412/162/114 414/280/114
f 411/278/115 414/280/115 413/279/115
f 411/278/116 415/281/116 409/80/116
f 413/279/117 418/284/117 420/286/117
f 417/283/118 420/286/118 419/285/118
f 417/283/119 391/263/119 415/281/119
f 419/285/120 394/266/120 396/268/120
f 428/290/106 421/383/106 423/389/106
f 425/390/107 430/127/107 432/292/107
f 426/289/108 423/121/108 422/288/108
f 429/126/109 432/292/109 431/291/109
f 429/126/110 433/44/110 427/124/110
f 438/133/111 430/127/111 436/157/111
f 435/294/112 438/133/112 437/295/112
f 440/135/113 433/44/113 435/294/113
f 437/295/114 442/162/114 444/298/114
f 441/296/115 444/298/115 443/297/115
f 446/300/116 439/134/116 441/296/116
f 450/304/117 442/162/117 448/302/117
f 447/301/118 450/304/118 449/303/118
f 447/301/119 421/287/119 445/299/119
f 449/303/120 424/35/120 426/289/120
f 453/391/106 457/124/106 451/392/106
f 455/393/107 460/41/107 462/312/107
f 456/308/108 453/222/108 452/306/108
f 459/310/109 462/312/109 461/311/109
f 464/314/110 457/124/110 459/310/110
f 461/311/111 466/315/111 468/316/111
f 465/231/112 468/316/112 467/232/112
f 470/234/113 463/313/113 465/231/113
f 467/232/114 472/319/114 474/321/114
f 471/318/115 474/321/115 473/320/115
f 476/323/116 469/317/116 471/318/116
f 473/320/117 478/116/117 480/326/117
f 477/324/118 480/326/118 479/325/118
f 452/306/119 475/322/119 477/324/119
f 479/325/120 454/307/120 456/308/120
f 488/9/106 481/327/106 483/329/106
f 492/335/107 484/394/107 490/204/107
f 486/331/108 483/94/108 482/395/108
f 489/396/109 492/335/109 491/334/109
f 489/333/110 493/336/110 487/332/110
f 491/334/111 496/47/111 498/339/111
f 495/103/112 498/339/112 497/105/112
f 500/21/113 493/336/113 495/338/113
f 497/105/114 502/342/114 504/112/114
f 501/397/115 504/112/115 503/343/115
f 506/345/116 499/340/116 501/341/116
f 510/349/117 502/342/117 508/347/117
f 507/398/118 510/349/118 509/348/118
f 482/328/119 505/344/119 507/346/119
f 486/331/120 508/347/120 484/330/120
f 97/8/121 109/20/121 115/26/121
f 95/399/122 98/400/122 93/401/122
f 119/364/123 92/352/123 117/362/123
f 94/5/124 112/23/124 106/17/124
f 101/355/125 104/402/125 99/353/125
f 107/358/126 110/403/126 105/356/126
f 113/361/127 116/404/127 111/359/127
f 127/405/121 139/20/121 145/406/121
f 125/367/122 128/39/122 123/366/122
f 149/60/123 122/33/123 147/58/123
f 124/5/124 142/23/124 136/407/124
f 131/42/125 134/45/125 129/40/125
f 137/48/126 140/51/126 135/46/126
f 143/54/127 146/57/127 141/52/127
f 157/408/121 169/409/121 175/410/121
f 155/369/122 158/69/122 153/368/122
f 179/90/123 152/63/123 177/88/123
f 154/411/124 172/412/124 166/413/124
f 161/72/125 164/75/125 159/70/125
f 167/78/126 170/81/126 165/76/126
f 173/84/127 176/87/127 171/82/127
f 187/414/121 199/409/121 205/415/121
f 185/372/122 188/98/122 183/370/122
f 209/117/123 182/93/123 207/115/123
f 184/416/124 202/417/124 196/418/124
f 191/100/125 194/102/125 189/99/125
f 197/105/126 200/108/126 195/103/126
f 203/111/127 206/114/127 201/109/127
f 217/419/121 229/420/121 235/415/121
f 215/374/122 218/125/122 213/373/122
f 239/144/123 212/120/123 237/142/123
f 214/416/124 232/421/124 226/418/124
f 221/128/125 224/130/125 219/126/125
f 227/132/126 230/135/126 225/131/126
f 233/138/127 236/141/127 231/136/127
f 247/422/121 259/20/121 265/26/121
f 245/423/122 248/151/122 243/375/122
f 269/168/123 242/147/123 267/166/123
f 244/411/124 262/424/124 256/425/124
f 251/153/125 254/155/125 249/152/125
f 257/158/126 260/160/126 255/156/126
f 263/163/127 266/165/127 261/161/127
f 277/426/121 289/427/121 295/428/121
f 275/378/122 278/176/122 273/377/122
f 299/194/123 272/171/123 297/192/123
f 274/416/124 292/429/124 286/430/124
f 281/178/125 284/181/125 279/177/125
f 287/184/126 290/187/126 285/182/126
f 293/189/127 296/191/127 291/188/127
f 307/426/121 319/431/121 325/428/121
f 305/381/122 308/202/122 303/380/122
f 329/218/123 302/197/123 327/217/123
f 304/416/124 322/432/124 316/433/124
f 311/205/125 314/207/125 309/203/125
f 317/209/126 320/211/126 315/208/126
f 323/213/127 326/216/127 321/212/127
f 337/434/121 349/435/121 355/410/121
f 335/384/122 338/226/122 333/382/122
f 359/240/123 332/221/123 357/239/123
f 334/416/124 352/436/124 346/437/124
f 341/228/125 344/230/125 339/227/125
f 347/232/126 350/234/126 345/231/126
f 353/236/127 356/238/127 351/235/127
f 367/438/121 379/439/121 385/344/121
f 365/440/122 368/246/122 363/385/122
f 389/261/123 362/242/123 387/260/123
f 364/416/124 382/441/124 376/442/124
f 371/248/125 374/250/125 369/247/125
f 377/252/126 380/254/126 375/251/126
f 383/256/127 386/259/127 381/255/127
f 397/443/121 409/420/121 415/406/121
f 395/388/122 398/269/122 393/387/122
f 419/285/123 392/264/123 417/283/123
f 394/444/124 412/421/124 406/445/124
f 401/271/125 404/273/125 399/270/125
f 407/275/126 410/277/126 405/274/126
f 413/279/127 416/282/127 411/278/127
f 427/446/121 439/447/121 445/448/121
f 425/390/122 428/290/122 423/389/122
f 449/303/123 422/288/123 447/301/123
f 424/416/124 442/449/124 436/450/124
f 431/291/125 434/293/125 429/126/125
f 437/295/126 440/135/126 435/294/126
f 443/297/127 446/300/127 441/296/127
f 457/426/121 469/340/121 475/406/121
f 455/393/122 458/309/122 453/391/122
f 479/325/123 452/306/123 477/324/123
f 454/444/124 472/451/124 466/452/124
f 461/311/125 464/314/125 459/310/125
f 467/232/126 470/234/126 465/231/126
f 473/320/127 476/323/127 471/318/127
f 487/332/121 499/340/121 505/344/121
f 485/453/122 488/454/122 483/455/122
f 509/348/123 482/395/123 507/398/123
f 484/444/124 502/451/124 496/452/124
f 491/334/125 494/456/125 489/396/125
f 497/105/126 500/457/126 495/103/126
f 503/343/127 506/458/127 501/397/127
f 2/1/128 5/1/128 4/1/128
f 3/1/129 6/1/129 5/1/129
f 4/1/130 6/1/130 3/1/130
f 5/1/131 8/1/131 7/1/131
f 6/1/132 9/1/132 8/1/132
f 7/1/133 9/1/133 6/1/133
f 8/1/134 11/1/134 10/1/134
f 9/1/135 12/1/135 11/1/135
f 10/1/136 12/1/136 9/1/136
f 11/1/137 14/1/137 13/1/137
f 12/1/138 15/1/138 14/1/138
f 13/1/139 15/1/139 12/1/139
f 14/1/140 17/1/140 16/1/140
f 15/1/14 18/1/14 17/1/14
f 16/1/141 18/1/141 15/1/141
f 17/1/142 20/1/142 19/1/142
f 21/1/143 20/1/143 17/1/143
f 19/1/144 21/1/144 18/1/144
f 20/1/145 23/1/145 22/1/145
f 24/1/146 23/1/146 20/1/146
f 22/1/147 24/1/147 21/1/147
f 23/1/148 26/1/148 25/1/148
f 27/1/149 26/1/149 23/1/149
f 25/1/150 27/1/150 24/1/150
f 26/1/151 29/1/151 28/1/151
f 30/1/152 29/1/152 26/1/152
f 28/1/153 30/1/153 27/1/153
f 29/1/154 32/1/154 31/1/154
f 33/1/29 32/1/29 29/1/29
f 31/1/155 33/1/155 30/1/155
f 32/1/156 35/1/156 34/1/156
f 33/1/157 36/1/157 35/1/157
f 34/1/158 36/1/158 33/1/158
f 35/1/159 38/1/159 37/1/159
f 36/1/160 39/1/160 38/1/160
f 37/1/161 39/1/161 36/1/161
f 38/1/162 41/1/162 40/1/162
f 39/1/163 42/1/163 41/1/163
f 40/1/164 42/1/164 39/1/164
f 41/1/165 44/1/165 43/1/165
f 42/1/166 45/1/166 44/1/166
f 43/1/167 45/1/167 42/1/167
f 44/1/168 47/1/168 46/1/168
f 48/1/44 47/1/44 44/1/44
f 46/1/169 48/1/169 45/1/169
f 47/1/170 50/1/170 49/1/170
f 51/1/171 50/1/171 47/1/171
f 49/1/172 51/1/172 48/1/172
f 50/1/173 53/1/173 52/1/173
f 54/1/174 53/1/174 50/1/174
f 52/1/175 54/1/175 51/1/175
f 53/1/176 56/1/176 55/1/176
f 57/1/177 56/1/177 53/1/177
f 55/1/178 57/1/178 54/1/178
f 56/1/179 59/1/179 58/1/179
f 60/1/180 59/1/180 56/1/180
f 58/1/181 60/1/181 57/1/181
f 59/1/182 62/1/182 61/1/182
f 60/1/59 63/1/59 62/1/59
f 61/1/183 63/1/183 60/1/183
f 62/1/184 65/1/184 64/1/184
f 63/1/185 66/1/185 65/1/185
f 64/1/186 66/1/186 63/1/186
f 65/1/187 68/1/187 67/1/187
f 66/1/188 69/1/188 68/1/188
f 67/1/189 69/1/189 66/1/189
f 68/1/190 71/1/190 70/1/190
f 69/1/191 72/1/191 71/1/191
f 70/1/192 72/1/192 69/1/192
f 71/1/193 74/1/193 73/1/193
f 72/1/194 75/1/194 74/1/194
f 73/1/195 75/1/195 72/1/195
f 74/1/196 77/1/196 76/1/196
f 78/1/197 77/1/197 74/1/197
f 76/1/198 78/1/198 75/1/198
f 77/1/199 80/1/199 79/1/199
f 81/1/200 80/1/200 77/1/200
f 79/1/201 81/1/201 78/1/201
f 80/1/202 83/1/202 82/1/202
f 84/1/203 83/1/203 80/1/203
f 82/1/204 84/1/204 81/1/204
f 83/1/205 86/1/205 85/1/205
f 87/1/206 86/1/206 83/1/206
f 85/1/207 87/1/207 84/1/207
f 86/1/208 89/1/208 88/1/208
f 90/1/209 89/1/209 86/1/209
f 88/1/210 90/1/210 87/1/210
f 89/1/211 2/1/211 1/1/211
f 90/1/89 3/1/89 2/1/89
f 1/1/212 3/1/212 90/1/212
f 98/9/106 97/8/106 91/2/106
f 102/13/107 95/6/107 94/5/107
f 96/350/108 95/459/108 93/351/108
f 99/353/109 98/400/109 102/354/109
f 104/15/110 103/14/110 97/8/110
f 101/12/111 100/11/111 106/17/111
f 105/356/112 104/402/112 108/357/112
f 110/21/113 109/20/113 103/14/113
f 107/18/114 106/17/114 112/23/114
f 111/359/115 110/403/115 114/360/115
f 116/27/116 115/26/116 109/20/116
f 113/24/117 112/23/117 118/29/117
f 117/362/118 116/404/118 120/363/118
f 92/3/119 91/2/119 115/26/119
f 119/30/120 118/29/120 94/5/120
f 128/39/106 127/38/106 121/365/106
f 125/367/107 124/376/107 130/41/107
f 122/33/108 126/37/108 125/36/108
f 129/40/109 128/39/109 132/43/109
f 129/40/110 134/45/110 133/44/110
f 131/42/111 130/41/111 136/47/111
f 135/46/112 134/45/112 138/49/112
f 140/51/113 139/50/113 133/44/113
f 144/55/114 137/48/114 136/47/114
f 141/52/115 140/51/115 144/55/115
f 146/57/116 145/56/116 139/50/116
f 143/54/117 142/53/117 148/59/117
f 147/58/118 146/57/118 150/61/118
f 122/33/119 121/32/119 145/56/119
f 149/60/120 148/59/120 124/35/120
f 153/368/106 158/69/106 157/68/106
f 155/369/107 154/386/107 160/71/107
f 156/67/108 155/66/108 153/64/108
f 159/70/109 158/69/109 162/73/109
f 164/75/110 163/74/110 157/68/110
f 161/72/111 160/71/111 166/77/111
f 165/76/112 164/75/112 168/79/112
f 165/76/113 170/81/113 169/80/113
f 167/78/114 166/77/114 172/83/114
f 171/82/115 170/81/115 174/85/115
f 176/87/116 175/86/116 169/80/116
f 180/91/117 173/84/117 172/83/117
f 177/88/118 176/87/118 180/91/118
f 177/88/119 152/63/119 151/62/119
f 179/90/120 178/89/120 154/65/120
f 183/370/106 188/98/106 187/38/106
f 185/372/107 184/376/107 190/41/107
f 186/97/108 185/96/108 183/94/108
f 189/99/109 188/98/109 192/101/109
f 194/102/110 193/74/110 187/38/110
f 198/106/111 191/100/111 190/41/111
f 195/103/112 194/102/112 198/106/112
f 200/108/113 199/107/113 193/74/113
f 197/105/114 196/104/114 202/110/114
f 201/109/115 200/108/115 204/112/115
f 201/109/116 206/114/116 205/113/116
f 203/111/117 202/110/117 208/116/117
f 207/115/118 206/114/118 210/118/118
f 182/93/119 181/92/119 205/113/119
f 186/97/120 209/117/120 208/116/120
f 213/373/106 218/125/106 217/124/106
f 215/374/107 214/386/107 220/127/107
f 216/123/108 215/122/108 213/121/108
f 219/126/109 218/125/109 222/129/109
f 224/130/110 223/74/110 217/124/110
f 228/133/111 221/128/111 220/127/111
f 225/131/112 224/130/112 228/133/112
f 230/135/113 229/134/113 223/74/113
f 227/132/114 226/104/114 232/137/114
f 231/136/115 230/135/115 234/139/115
f 236/141/116 235/140/116 229/134/116
f 240/145/117 233/138/117 232/137/117
f 237/142/118 236/141/118 240/145/118
f 212/120/119 211/119/119 235/140/119
f 239/144/120 238/143/120 214/95/120
f 248/151/106 247/38/106 241/371/106
f 252/154/107 245/423/107 244/376/107
f 246/150/108 245/149/108 243/148/108
f 249/152/109 248/151/109 252/154/109
f 254/155/110 253/44/110 247/38/110
f 258/159/111 251/153/111 250/41/111
f 255/156/112 254/155/112 258/159/112
f 260/160/113 259/80/113 253/44/113
f 264/164/114 257/158/114 256/157/114
f 261/161/115 260/160/115 264/164/115
f 266/165/116 265/56/116 259/80/116
f 270/169/117 263/163/117 262/162/117
f 269/168/118 267/166/118 266/165/118
f 242/147/119 241/146/119 265/56/119
f 269/168/120 268/167/120 244/65/120
f 273/377/106 278/176/106 277/68/106
f 275/378/107 274/386/107 280/71/107
f 276/175/108 275/174/108 273/172/108
f 279/177/109 278/176/109 282/179/109
f 284/181/110 283/180/110 277/68/110
f 281/178/111 280/71/111 286/183/111
f 285/182/112 284/181/112 288/185/112
f 290/187/113 289/186/113 283/180/113
f 287/184/114 286/183/114 292/83/114
f 291/188/115 290/187/115 294/190/115
f 296/191/116 295/56/116 289/186/116
f 300/195/117 293/189/117 292/83/117
f 297/192/118 296/191/118 300/195/118
f 272/171/119 271/170/119 295/56/119
f 276/175/120 299/194/120 298/193/120
f 308/202/106 307/68/106 301/379/106
f 305/381/107 304/460/107 310/204/107
f 306/201/108 305/200/108 303/198/108
f 311/205/109 309/203/109 308/202/109
f 309/203/110 314/207/110 313/44/110
f 311/205/111 310/204/111 316/47/111
f 315/208/112 314/207/112 318/210/112
f 320/211/113 319/50/113 313/44/113
f 317/209/114 316/47/114 322/53/114
f 321/212/115 320/211/115 324/214/115
f 326/216/116 325/215/116 319/50/116
f 323/213/117 322/53/117 328/59/117
f 327/217/118 326/216/118 330/219/118
f 327/217/119 302/197/119 301/196/119
f 329/218/120 328/59/120 304/199/120
f 333/382/106 338/226/106 337/124/106
f 335/384/107 334/376/107 340/127/107
f 336/225/108 335/224/108 333/222/108
f 339/227/109 338/226/109 342/229/109
f 339/227/110 344/230/110 343/44/110
f 341/228/111 340/127/111 346/47/111
f 345/231/112 344/230/112 348/233/112
f 350/234/113 349/50/113 343/44/113
f 347/232/114 346/47/114 352/162/114
f 351/235/115 350/234/115 354/237/115
f 356/238/116 355/140/116 349/50/116
f 360/241/117 353/236/117 352/162/117
f 357/239/118 356/238/118 360/241/118
f 332/221/119 331/220/119 355/140/119
f 336/225/120 359/240/120 358/143/120
f 368/246/106 367/124/106 361/365/106
f 372/249/107 365/440/107 364/386/107
f 366/245/108 365/244/108 363/243/108
f 369/247/109 368/246/109 372/249/109
f 374/250/110 373/180/110 367/124/110
f 371/248/111 370/127/111 376/183/111
f 375/251/112 374/250/112 378/253/112
f 380/254/113 379/186/113 373/180/113
f 377/252/114 376/183/114 382/83/114
f 381/255/115 380/254/115 384/257/115
f 381/255/116 386/259/116 385/258/116
f 383/256/117 382/83/117 388/167/117
f 387/260/118 386/259/118 390/262/118
f 387/260/119 362/242/119 361/196/119
f 389/261/120 388/167/120 364/199/120
f 398/269/106 397/68/106 391/365/106
f 395/388/107 394/386/107 400/71/107
f 396/268/108 395/267/108 393/265/108
f 399/270/109 398/269/109 402/272/109
f 399/270/110 404/273/110 403/44/110
f 401/271/111 400/71/111 406/47/111
f 405/274/112 404/273/112 408/276/112
f 405/274/113 410/277/113 409/80/113
f 407/275/114 406/47/114 412/162/114
f 411/278/115 410/277/115 414/280/115
f 411/278/116 416/282/116 415/281/116
f 413/279/117 412/162/117 418/284/117
f 417/283/118 416/282/118 420/286/118
f 417/283/119 392/264/119 391/263/119
f 419/285/120 418/284/120 394/266/120
f 428/290/106 427/124/106 421/383/106
f 425/390/107 424/461/107 430/127/107
f 426/289/108 425/122/108 423/121/108
f 429/126/109 428/290/109 432/292/109
f 429/126/110 434/293/110 433/44/110
f 438/133/111 431/291/111 430/127/111
f 435/294/112 434/293/112 438/133/112
f 440/135/113 439/134/113 433/44/113
f 437/295/114 436/157/114 442/162/114
f 441/296/115 440/135/115 444/298/115
f 446/300/116 445/299/116 439/134/116
f 450/304/117 443/297/117 442/162/117
f 447/301/118 446/300/118 450/304/118
f 447/301/119 422/288/119 421/287/119
f 449/303/120 448/302/120 424/35/120
f 453/391/106 458/309/106 457/124/106
f 455/393/107 454/394/107 460/41/107
f 456/308/108 455/224/108 453/222/108
f 459/310/109 458/309/109 462/312/109
f 464/314/110 463/313/110 457/124/110
f 461/311/111 460/41/111 466/315/111
f 465/231/112 464/314/112 468/316/112
f 470/234/113 469/317/113 463/313/113
f 467/232/114 466/315/114 472/319/114
f 471/318/115 470/234/115 474/321/115
f 476/323/116 475/322/116 469/317/116
f 473/320/117 472/319/117 478/116/117
f 477/324/118 476/323/118 480/326/118
f 452/306/119 451/305/119 475/322/119
f 479/325/120 478/116/120 454/307/120
f 488/9/106 487/332/106 481/327/106
f 492/335/107 485/453/107 484/394/107
f 486/331/108 485/96/108 483/94/108
f 489/396/109 488/454/109 492/335/109
f 489/333/110 494/337/110 493/336/110
f 491/334/111 490/204/111 496/47/111
f 495/103/112 494/456/112 498/339/112
f 500/21/113 499/340/113 493/336/113
f 497/105/114 496/47/114 502/342/114
f 501/397/115 500/457/115 504/112/115
f 506/345/116 505/344/116 499/340/116
f 510/349/117 503/343/117 502/342/117
f 507/398/118 506/458/118 510/349/118
f 482/328/119 481/327/119 505/344/119
f 486/331/120 509/348/120 508/347/120
f 115/26/121 91/2/121 97/8/121
f 97/8/121 103/14/121 109/20/121
f 95/399/122 102/354/122 98/400/122
f 119/364/123 96/350/123 92/352/123
f 106/17/124 100/11/124 94/5/124
f 94/5/124 118/29/124 112/23/124
f 101/355/125 108/357/125 104/402/125
f 107/358/126 114/360/126 110/403/126
f 113/361/127 120/363/127 116/404/127
f 145/406/121 121/2/121 127/405/121
f 127/405/121 133/462/121 139/20/121
f 125/367/122 132/43/122 128/39/122
f 149/60/123 126/37/123 122/33/123
f 136/407/124 130/463/124 124/5/124
f 124/5/124 148/464/124 142/23/124
f 131/42/125 138/49/125 134/45/125
f 137/48/126 144/55/126 140/51/126
f 143/54/127 150/61/127 146/57/127
f 175/410/121 151/465/121 157/408/121
f 157/408/121 163/466/121 169/409/121
f 155/369/122 162/73/122 158/69/122
f 179/90/123 156/67/123 152/63/123
f 166/413/124 160/467/124 154/411/124
f 154/411/124 178/468/124 172/412/124
f 161/72/125 168/79/125 164/75/125
f 167/78/126 174/85/126 170/81/126
f 173/84/127 180/91/127 176/87/127
f 205/415/121 181/469/121 187/414/121
f 187/414/121 193/470/121 199/409/121
f 185/372/122 192/101/122 188/98/122
f 209/117/123 186/97/123 182/93/123
f 196/418/124 190/471/124 184/416/124
f 184/416/124 208/472/124 202/417/124
f 191/100/125 198/106/125 194/102/125
f 197/105/126 204/112/126 200/108/126
f 203/111/127 210/118/127 206/114/127
f 235/415/121 211/469/121 217/419/121
f 217/419/121 223/470/121 229/420/121
f 215/374/122 222/129/122 218/125/122
f 239/144/123 216/123/123 212/120/123
f 226/418/124 220/473/124 214/416/124
f 214/416/124 238/472/124 232/421/124
f 221/128/125 228/133/125 224/130/125
f 227/132/126 234/139/126 230/135/126
f 233/138/127 240/145/127 236/141/127
f 265/26/121 241/465/121 247/422/121
f 247/422/121 253/474/121 259/20/121
f 245/423/122 252/154/122 248/151/122
f 269/168/123 246/150/123 242/147/123
f 256/425/124 250/475/124 244/411/124
f 244/411/124 268/476/124 262/424/124
f 251/153/125 258/159/125 254/155/125
f 257/158/126 264/164/126 260/160/126
f 263/163/127 270/169/127 266/165/127
f 295/428/121 271/469/121 277/426/121
f 277/426/121 283/477/121 289/427/121
f 275/378/122 282/179/122 278/176/122
f 299/194/123 276/175/123 272/171/123
f 286/430/124 280/478/124 274/416/124
f 274/416/124 298/479/124 292/429/124
f 281/178/125 288/185/125 284/181/125
f 287/184/126 294/190/126 290/187/126
f 293/189/127 300/195/127 296/191/127
f 325/428/121 301/469/121 307/426/121
f 307/426/121 313/474/121 319/431/121
f 305/381/122 312/206/122 308/202/122
f 329/218/123 306/201/123 302/197/123
f 316/433/124 310/480/124 304/416/124
f 304/416/124 328/481/124 322/432/124
f 311/205/125 318/210/125 314/207/125
f 317/209/126 324/214/126 320/211/126
f 323/213/127 330/219/127 326/216/127
f 355/410/121 331/469/121 337/434/121
f 337/434/121 343/482/121 349/435/121
f 335/384/122 342/229/122 338/226/122
f 359/240/123 336/225/123 332/221/123
f 346/437/124 340/473/124 334/416/124
f 334/416/124 358/483/124 352/436/124
f 341/228/125 348/233/125 344/230/125
f 347/232/126 354/237/126 350/234/126
f 353/236/127 360/241/127 356/238/127
f 385/344/121 361/484/121 367/438/121
f 367/438/121 373/485/121 379/439/121
f 365/440/122 372/249/122 368/246/122
f 389/261/123 366/245/123 362/242/123
f 376/442/124 370/486/124 364/416/124
f 364/416/124 388/487/124 382/441/124
f 371/248/125 378/253/125 374/250/125
f 377/252/126 384/257/126 380/254/126
f 383/256/127 390/262/127 386/259/127
f 415/406/121 391/327/121 397/443/121
f 397/443/121 403/466/121 409/420/121
f 395/388/122 402/272/122 398/269/122
f 419/285/123 396/268/123 392/264/123
f 406/445/124 400/488/124 394/444/124
f 394/444/124 418/489/124 412/421/124
f 401/271/125 408/276/125 404/273/125
f 407/275/126 414/280/126 410/277/126
f 413/279/127 420/286/127 416/282/127
f 445/448/121 421/484/121 427/446/121
f 427/446/121 433/490/121 439/447/121
f 425/390/122 432/292/122 428/290/122
f 449/303/123 426/289/123 422/288/123
f 436/450/124 430/491/124 424/416/124
f 424/416/124 448/492/124 442/449/124
f 431/291/125 438/133/125 434/293/125
f 437/295/126 444/298/126 440/135/126
f 443/297/127 450/304/127 446/300/127
f 475/406/121 451/327/121 457/426/121
f 457/426/121 463/336/121 469/340/121
f 455/393/122 462/312/122 458/309/122
f 479/325/123 456/308/123 452/306/123
f 466/452/124 460/478/124 454/444/124
f 454/444/124 478/493/124 472/451/124
f 461/311/125 468/316/125 464/314/125
f 467/232/126 474/321/126 470/234/126
f 473/320/127 480/326/127 476/323/127
f 505/344/121 481/327/121 487/332/121
f 487/332/121 493/336/121 499/340/121
f 485/453/122 492/335/122 488/454/122
f 509/348/123 486/331/123 482/395/123
f 496/452/124 490/494/124 484/444/124
f 484/444/124 508/495/124 502/451/124
f 491/334/125 498/339/125 494/456/125
f 497/105/126 504/112/126 500/457/126
f 503/343/127 510/349/127 506/458/127
